SplineFontDB: 3.0
FontName: Belgrano-Regular
FullName: Belgrano
FamilyName: Belgrano
Weight: Book
Copyright: Copyright (c) 2011 by LatinoType Limitada (info@latinotype.com),  with Reserved Font Names "Belgrano"
Version: 1.002
ItalicAngle: 0
UnderlinePosition: -50
UnderlineWidth: 50
Ascent: 800
Descent: 200
sfntRevision: 0x00010083
LayerCount: 2
Layer: 0 1 "Back"  1
Layer: 1 1 "Fore"  0
XUID: [1021 860 910437525 4804235]
FSType: 0
OS2Version: 2
OS2_WeightWidthSlopeOnly: 0
OS2_UseTypoMetrics: 1
CreationTime: 1326410098
ModificationTime: 1326406807
PfmFamily: 17
TTFWeight: 400
TTFWidth: 5
LineGap: 0
VLineGap: 0
Panose: 2 0 0 0 0 0 0 0 0 0
OS2TypoAscent: 190
OS2TypoAOffset: 1
OS2TypoDescent: -78
OS2TypoDOffset: 1
OS2TypoLinegap: 0
OS2WinAscent: 0
OS2WinAOffset: 1
OS2WinDescent: -1
OS2WinDOffset: 1
HheadAscent: 0
HheadAOffset: 1
HheadDescent: 1
HheadDOffset: 1
OS2SubXSize: 700
OS2SubYSize: 650
OS2SubXOff: 0
OS2SubYOff: 140
OS2SupXSize: 700
OS2SupYSize: 650
OS2SupXOff: 0
OS2SupYOff: 477
OS2StrikeYSize: 50
OS2StrikeYPos: 250
OS2Vendor: 'pyrs'
OS2CodePages: 00000001.00000000
OS2UnicodeRanges: 800000af.4000004a.00000000.00000000
Lookup: 258 0 0 "'kern' Horizontal Kerning in Latin lookup 0"  {"'kern' Horizontal Kerning in Latin lookup 0 subtable"  } ['kern' ('DFLT' <'dflt' > 'latn' <'dflt' > ) ]
DEI: 91125
TtTable: prep
PUSHW_1
 511
SCANCTRL
PUSHB_1
 4
SCANTYPE
EndTTInstrs
ShortTable: maxp 16
  1
  0
  230
  207
  17
  60
  4
  2
  0
  1
  1
  0
  64
  0
  2
  1
EndShort
LangName: 1033 "" "" "" "DanielHernndez: Belgrano: 2011" "" "Version 1.002" "" "Belgrano is a trademark of LatinoType Limitada" "Daniel Hern+AIcA-ndez" "Daniel Hernandez" "" "www.latinotype.com" "www.hernandeztype.com" "This Font Software is licensed under the SIL Open Font License, Version 1.1. This license is available with a FAQ at: http://scripts.sil.org/OFL" "http://scripts.sil.org/OFL" 
GaspTable: 1 65535 15 1
Encoding: UnicodeBmp
UnicodeInterp: none
NameList: Adobe Glyph List
DisplaySize: -24

StartChar: exclam
Encoding: 33 33 4
Width: 304
GlyphClass: 2
Flags: W
LayerCount: 2
Fore
SplineSet
187 216 m 1,0,-1
 120 216 l 1,1,-1
 99 768 l 1,2,-1
 213 768 l 1,3,-1
 187 216 l 1,0,-1
192.5 97.5 m 128,-1,5
 211 80 211 80 211 53.5 c 128,-1,6
 211 27 211 27 192 8.5 c 128,-1,7
 173 -10 173 -10 146.5 -10 c 128,-1,8
 120 -10 120 -10 103 8 c 128,-1,9
 86 26 86 26 86 52 c 128,-1,10
 86 78 86 78 103 96.5 c 128,-1,11
 120 115 120 115 147 115 c 128,-1,4
 174 115 174 115 192.5 97.5 c 128,-1,5
EndSplineSet
EndChar

StartChar: quotedbl
Encoding: 34 34 5
Width: 367
GlyphClass: 2
Flags: W
LayerCount: 2
Fore
SplineSet
144 603 m 1,0,-1
 78 603 l 1,1,-1
 68 831 l 1,2,-1
 154 831 l 1,3,-1
 144 603 l 1,0,-1
289 603 m 1,4,-1
 223 603 l 1,5,-1
 213 831 l 1,6,-1
 299 831 l 1,7,-1
 289 603 l 1,4,-1
EndSplineSet
EndChar

StartChar: numbersign
Encoding: 35 35 6
Width: 655
GlyphClass: 2
Flags: W
LayerCount: 2
Fore
SplineSet
523 165 m 1,0,-1
 443 165 l 1,1,-1
 414 59 l 1,2,-1
 321 59 l 1,3,-1
 350 165 l 1,4,-1
 229 165 l 1,5,-1
 200 59 l 1,6,-1
 107 59 l 1,7,-1
 136 165 l 1,8,-1
 48 165 l 1,9,-1
 48 236 l 1,10,-1
 156 236 l 1,11,-1
 194 372 l 1,12,-1
 126 372 l 1,13,-1
 126 443 l 1,14,-1
 214 443 l 1,15,-1
 248 562 l 1,16,-1
 341 562 l 1,17,-1
 307 443 l 1,18,-1
 428 443 l 1,19,-1
 462 562 l 1,20,-1
 555 562 l 1,21,-1
 521 443 l 1,22,-1
 601 443 l 1,23,-1
 601 372 l 1,24,-1
 501 372 l 1,25,-1
 463 236 l 1,26,-1
 523 236 l 1,27,-1
 523 165 l 1,0,-1
370 236 m 1,28,-1
 408 372 l 1,29,-1
 287 372 l 1,30,-1
 249 236 l 1,31,-1
 370 236 l 1,28,-1
EndSplineSet
EndChar

StartChar: dollar
Encoding: 36 36 7
Width: 534
GlyphClass: 2
Flags: W
LayerCount: 2
Fore
SplineSet
309 713 m 1,0,1
 422 703 422 703 473 669 c 1,2,-1
 473 532 l 1,3,-1
 414 530 l 1,4,-1
 391 611 l 1,5,6
 350 632 350 632 284 632 c 0,7,8
 149 632 149 632 149 546 c 0,9,10
 149 498 149 498 185.5 466.5 c 128,-1,11
 222 435 222 435 299 407 c 0,12,13
 487 338 487 338 487 187 c 0,14,15
 487 110 487 110 442 57.5 c 128,-1,16
 397 5 397 5 310 -7 c 1,17,-1
 326 -149 l 1,18,-1
 215 -149 l 1,19,-1
 231 -10 l 1,20,21
 185 -7 185 -7 142 6 c 0,22,23
 75 26 75 26 51 47 c 1,24,-1
 51 190 l 1,25,-1
 111 190 l 1,26,-1
 139 97 l 1,27,28
 178 66 178 66 266 66 c 0,29,30
 323 66 323 66 357.5 96 c 128,-1,31
 392 126 392 126 392 171.5 c 128,-1,32
 392 217 392 217 354.5 257.5 c 128,-1,33
 317 298 317 298 226 332 c 0,34,35
 54 397 54 397 54 514 c 0,36,37
 54 601 54 601 104 651.5 c 128,-1,38
 154 702 154 702 231 712 c 1,39,-1
 215 857 l 1,40,-1
 326 857 l 1,41,-1
 309 713 l 1,0,1
EndSplineSet
EndChar

StartChar: percent
Encoding: 37 37 8
Width: 932
GlyphClass: 2
Flags: W
LayerCount: 2
Fore
SplineSet
213 316 m 128,-1,1
 135 316 135 316 86 369.5 c 128,-1,2
 37 423 37 423 37 514 c 128,-1,3
 37 605 37 605 86 660 c 128,-1,4
 135 715 135 715 213 715 c 128,-1,5
 291 715 291 715 341 660 c 128,-1,6
 391 605 391 605 391 514 c 128,-1,7
 391 423 391 423 341 369.5 c 128,-1,0
 291 316 291 316 213 316 c 128,-1,1
214 385 m 128,-1,9
 258 385 258 385 282.5 422.5 c 128,-1,10
 307 460 307 460 307 514.5 c 128,-1,11
 307 569 307 569 282.5 607 c 128,-1,12
 258 645 258 645 213 645 c 128,-1,13
 168 645 168 645 144 607 c 128,-1,14
 120 569 120 569 120 514.5 c 128,-1,15
 120 460 120 460 145 422.5 c 128,-1,8
 170 385 170 385 214 385 c 128,-1,9
324 -11 m 1,16,-1
 231 -11 l 1,17,-1
 608 715 l 1,18,-1
 701 715 l 1,19,-1
 324 -11 l 1,16,-1
717 -11 m 128,-1,21
 639 -11 639 -11 590 42.5 c 128,-1,22
 541 96 541 96 541 187 c 128,-1,23
 541 278 541 278 590 333 c 128,-1,24
 639 388 639 388 717 388 c 128,-1,25
 795 388 795 388 845 333 c 128,-1,26
 895 278 895 278 895 187 c 128,-1,27
 895 96 895 96 845 42.5 c 128,-1,20
 795 -11 795 -11 717 -11 c 128,-1,21
718 58 m 128,-1,29
 762 58 762 58 786.5 95.5 c 128,-1,30
 811 133 811 133 811 187.5 c 128,-1,31
 811 242 811 242 786.5 280 c 128,-1,32
 762 318 762 318 717 318 c 128,-1,33
 672 318 672 318 648 280 c 128,-1,34
 624 242 624 242 624 187.5 c 128,-1,35
 624 133 624 133 649 95.5 c 128,-1,28
 674 58 674 58 718 58 c 128,-1,29
EndSplineSet
EndChar

StartChar: ampersand
Encoding: 38 38 9
Width: 640
GlyphClass: 2
Flags: W
LayerCount: 2
Fore
SplineSet
465 67 m 1,0,1
 394 -7 394 -7 282.5 -7 c 128,-1,2
 171 -7 171 -7 110 54.5 c 128,-1,3
 49 116 49 116 49 195 c 0,4,5
 49 288 49 288 112 341 c 0,6,7
 161 382 161 382 220 406 c 1,8,9
 152 485 152 485 152 561 c 128,-1,10
 152 637 152 637 199.5 680.5 c 128,-1,11
 247 724 247 724 319 724 c 0,12,13
 419 724 419 724 466 664 c 0,14,15
 477 650 477 650 481 640.5 c 128,-1,16
 485 631 485 631 484 631 c 1,17,-1
 484 518 l 1,18,-1
 422 518 l 1,19,-1
 405 602 l 1,20,21
 399 617 399 617 374 630.5 c 128,-1,22
 349 644 349 644 318 644 c 128,-1,23
 287 644 287 644 267 621 c 128,-1,24
 247 598 247 598 247 562 c 128,-1,25
 247 526 247 526 281.5 471.5 c 128,-1,26
 316 417 316 417 390 314.5 c 128,-1,27
 464 212 464 212 479 192 c 1,28,29
 504 232 504 232 504 309 c 2,30,-1
 504 329 l 1,31,-1
 577 329 l 1,32,-1
 577 309 l 2,33,34
 577 258 577 258 564.5 212 c 128,-1,35
 552 166 552 166 540 146 c 2,36,-1
 527 125 l 1,37,-1
 617 0 l 1,38,-1
 514 0 l 1,39,-1
 465 67 l 1,0,1
185 108 m 128,-1,41
 227 74 227 74 286 74 c 0,42,43
 370 74 370 74 422 126 c 1,44,-1
 264 347 l 1,45,46
 218 324 218 324 193 303 c 0,47,48
 143 262 143 262 143 202 c 128,-1,40
 143 142 143 142 185 108 c 128,-1,41
EndSplineSet
EndChar

StartChar: quotesingle
Encoding: 39 39 10
Width: 222
GlyphClass: 2
Flags: W
LayerCount: 2
Fore
SplineSet
144 603 m 1,0,-1
 78 603 l 1,1,-1
 68 831 l 1,2,-1
 154 831 l 1,3,-1
 144 603 l 1,0,-1
EndSplineSet
EndChar

StartChar: parenleft
Encoding: 40 40 11
Width: 305
GlyphClass: 2
Flags: W
LayerCount: 2
Fore
SplineSet
66 59.5 m 128,-1,1
 50 148 50 148 50 243 c 128,-1,2
 50 338 50 338 65.5 428.5 c 128,-1,3
 81 519 81 519 103 580 c 0,4,5
 149 707 149 707 184 754 c 1,6,-1
 199 776 l 1,7,-1
 274 741 l 1,8,9
 258 723 258 723 230.5 667 c 128,-1,10
 203 611 203 611 185 557.5 c 128,-1,11
 167 504 167 504 152 418 c 128,-1,12
 137 332 137 332 137 242.5 c 128,-1,13
 137 153 137 153 151 71.5 c 128,-1,14
 165 -10 165 -10 185 -64 c 0,15,16
 225 -173 225 -173 260 -220 c 2,17,-1
 274 -239 l 1,18,-1
 199 -274 l 1,19,20
 181 -253 181 -253 151 -196 c 128,-1,21
 121 -139 121 -139 101.5 -84 c 128,-1,0
 82 -29 82 -29 66 59.5 c 128,-1,1
EndSplineSet
EndChar

StartChar: parenright
Encoding: 41 41 12
Width: 304
GlyphClass: 2
Flags: W
LayerCount: 2
Fore
SplineSet
153 70.5 m 128,-1,1
 168 153 168 153 168 242.5 c 128,-1,2
 168 332 168 332 154 417 c 128,-1,3
 140 502 140 502 120 558 c 0,4,5
 79 672 79 672 45 721 c 2,6,-1
 31 741 l 1,7,-1
 106 776 l 1,8,9
 128 746 128 746 156 691 c 128,-1,10
 184 636 184 636 203.5 578.5 c 128,-1,11
 223 521 223 521 239 429.5 c 128,-1,12
 255 338 255 338 255 243 c 128,-1,13
 255 148 255 148 239.5 60.5 c 128,-1,14
 224 -27 224 -27 202 -85 c 0,15,16
 155 -209 155 -209 122 -254 c 1,17,-1
 106 -274 l 1,18,-1
 31 -239 l 1,19,20
 49 -219 49 -219 75.5 -167 c 128,-1,21
 102 -115 102 -115 120 -63.5 c 128,-1,0
 138 -12 138 -12 153 70.5 c 128,-1,1
EndSplineSet
EndChar

StartChar: asterisk
Encoding: 42 42 13
Width: 443
GlyphClass: 2
Flags: W
LayerCount: 2
Fore
SplineSet
306 503 m 1,0,-1
 261 483 l 1,1,-1
 213 610 l 1,2,-1
 134 503 l 1,3,-1
 94 532 l 1,4,-1
 187 635 l 1,5,-1
 52 650 l 1,6,-1
 58 698 l 1,7,-1
 190 670 l 1,8,-1
 135 790 l 1,9,-1
 179 810 l 1,10,-1
 225 682 l 1,11,-1
 307 796 l 1,12,-1
 346 766 l 1,13,-1
 253 661 l 1,14,-1
 390 646 l 1,15,-1
 384 599 l 1,16,-1
 248 625 l 1,17,-1
 306 503 l 1,0,-1
EndSplineSet
EndChar

StartChar: plus
Encoding: 43 43 14
Width: 497
GlyphClass: 2
Flags: W
LayerCount: 2
Fore
SplineSet
447 312 m 1,0,-1
 284 312 l 1,1,-1
 284 149 l 1,2,-1
 213 149 l 1,3,-1
 213 312 l 1,4,-1
 50 312 l 1,5,-1
 50 383 l 1,6,-1
 213 383 l 1,7,-1
 213 546 l 1,8,-1
 284 546 l 1,9,-1
 284 383 l 1,10,-1
 447 383 l 1,11,-1
 447 312 l 1,0,-1
EndSplineSet
EndChar

StartChar: comma
Encoding: 44 44 15
Width: 267
GlyphClass: 2
Flags: W
LayerCount: 2
Fore
SplineSet
89 -120 m 1,0,-1
 89 -72 l 1,1,2
 107 -72 107 -72 121 -58.5 c 128,-1,3
 135 -45 135 -45 135 -19 c 2,4,-1
 135 -11 l 1,5,-1
 130 -11 l 2,6,7
 105 -11 105 -11 88 6 c 128,-1,8
 71 23 71 23 71 48 c 128,-1,9
 71 73 71 73 88 90 c 128,-1,10
 105 107 105 107 135.5 107 c 128,-1,11
 166 107 166 107 182.5 80.5 c 128,-1,12
 199 54 199 54 199 13 c 0,13,14
 199 -56 199 -56 168 -88 c 128,-1,15
 137 -120 137 -120 89 -120 c 1,0,-1
EndSplineSet
EndChar

StartChar: hyphen
Encoding: 45 45 16
Width: 416
GlyphClass: 2
Flags: W
LayerCount: 2
Fore
SplineSet
343 235 m 1,0,-1
 73 235 l 1,1,-1
 73 298 l 1,2,-1
 343 298 l 1,3,-1
 343 235 l 1,0,-1
EndSplineSet
EndChar

StartChar: period
Encoding: 46 46 17
Width: 260
GlyphClass: 2
Flags: W
LayerCount: 2
Fore
SplineSet
130 -11 m 128,-1,1
 105 -11 105 -11 88 6 c 128,-1,2
 71 23 71 23 71 48 c 128,-1,3
 71 73 71 73 88 90 c 128,-1,4
 105 107 105 107 130 107 c 128,-1,5
 155 107 155 107 172 90 c 128,-1,6
 189 73 189 73 189 48 c 128,-1,7
 189 23 189 23 172 6 c 128,-1,0
 155 -11 155 -11 130 -11 c 128,-1,1
EndSplineSet
EndChar

StartChar: slash
Encoding: 47 47 18
Width: 443
GlyphClass: 2
Flags: W
LayerCount: 2
Fore
SplineSet
129 -279 m 1,0,-1
 36 -279 l 1,1,-1
 315 715 l 1,2,-1
 408 715 l 1,3,-1
 129 -279 l 1,0,-1
EndSplineSet
EndChar

StartChar: zero
Encoding: 48 48 19
Width: 738
GlyphClass: 2
Flags: W
LayerCount: 2
Fore
SplineSet
593.5 88 m 128,-1,1
 506 -10 506 -10 368.5 -10 c 128,-1,2
 231 -10 231 -10 144 87.5 c 128,-1,3
 57 185 57 185 57 350 c 128,-1,4
 57 515 57 515 144 615 c 128,-1,5
 231 715 231 715 368 715 c 128,-1,6
 505 715 505 715 593 615 c 128,-1,7
 681 515 681 515 681 350.5 c 128,-1,0
 681 186 681 186 593.5 88 c 128,-1,1
216.5 151 m 128,-1,9
 272 70 272 70 368.5 70 c 128,-1,10
 465 70 465 70 520 151 c 128,-1,11
 575 232 575 232 575 350.5 c 128,-1,12
 575 469 575 469 520 551.5 c 128,-1,13
 465 634 465 634 367.5 634 c 128,-1,14
 270 634 270 634 215.5 551.5 c 128,-1,15
 161 469 161 469 161 350.5 c 128,-1,8
 161 232 161 232 216.5 151 c 128,-1,9
EndSplineSet
EndChar

StartChar: one
Encoding: 49 49 20
Width: 500
GlyphClass: 2
Flags: W
LayerCount: 2
Fore
SplineSet
485 0 m 1,0,-1
 65 0 l 1,1,-1
 65 45 l 1,2,-1
 224 79 l 1,3,-1
 224 603 l 1,4,-1
 79 502 l 1,5,-1
 37 569 l 1,6,-1
 231 706 l 1,7,-1
 325 706 l 1,8,-1
 325 79 l 1,9,-1
 485 45 l 1,10,-1
 485 0 l 1,0,-1
EndSplineSet
EndChar

StartChar: two
Encoding: 50 50 21
Width: 615
GlyphClass: 2
Flags: W
LayerCount: 2
Fore
SplineSet
553 0 m 1,0,-1
 66 0 l 1,1,-1
 66 75 l 1,2,3
 122 112 122 112 187.5 165.5 c 128,-1,4
 253 219 253 219 300 267 c 128,-1,5
 347 315 347 315 386 377.5 c 128,-1,6
 425 440 425 440 425 498 c 128,-1,7
 425 556 425 556 387 595 c 128,-1,8
 349 634 349 634 283 634 c 0,9,10
 243 634 243 634 212.5 620 c 128,-1,11
 182 606 182 606 171 592 c 2,12,-1
 160 578 l 1,13,-1
 140 454 l 1,14,-1
 64 454 l 1,15,-1
 64 607 l 1,16,17
 71 621 71 621 91.5 642 c 128,-1,18
 112 663 112 663 134.5 677.5 c 128,-1,19
 157 692 157 692 196.5 703.5 c 128,-1,20
 236 715 236 715 281 715 c 0,21,22
 396 715 396 715 463 653.5 c 128,-1,23
 530 592 530 592 530 491 c 0,24,25
 530 438 530 438 499.5 378.5 c 128,-1,26
 469 319 469 319 426 271 c 128,-1,27
 383 223 383 223 333 180 c 0,28,29
 243 102 243 102 190 76 c 1,30,-1
 447 76 l 1,31,-1
 480 187 l 1,32,-1
 553 187 l 1,33,-1
 553 0 l 1,0,-1
EndSplineSet
EndChar

StartChar: three
Encoding: 51 51 22
Width: 613
GlyphClass: 2
Flags: W
LayerCount: 2
Fore
SplineSet
63 201 m 1,0,-1
 139 201 l 1,1,-1
 159 112 l 1,2,3
 171 97 171 97 211.5 84 c 128,-1,4
 252 71 252 71 297 71 c 0,5,6
 370 71 370 71 412 104.5 c 128,-1,7
 454 138 454 138 454 194 c 0,8,9
 454 330 454 330 214 330 c 1,10,-1
 214 394 l 1,11,12
 316 394 316 394 365 423.5 c 128,-1,13
 414 453 414 453 414 525 c 0,14,15
 414 574 414 574 383 603.5 c 128,-1,16
 352 633 352 633 303.5 633 c 128,-1,17
 255 633 255 633 223 622.5 c 128,-1,18
 191 612 191 612 180 602 c 2,19,-1
 169 592 l 1,20,-1
 149 518 l 1,21,-1
 73 518 l 1,22,-1
 73 621 l 1,23,24
 78 631 78 631 100 650 c 128,-1,25
 122 669 122 669 145 681.5 c 128,-1,26
 168 694 168 694 208.5 704 c 128,-1,27
 249 714 249 714 295 714 c 0,28,29
 399 714 399 714 459 662 c 128,-1,30
 519 610 519 610 519 525 c 0,31,32
 519 461 519 461 484 419 c 0,33,34
 453 383 453 383 430 372 c 2,35,-1
 419 367 l 1,36,37
 434 364 434 364 463 348 c 128,-1,38
 492 332 492 332 510.5 314.5 c 128,-1,39
 529 297 529 297 544 264.5 c 128,-1,40
 559 232 559 232 559 194 c 0,41,42
 559 102 559 102 488 46 c 128,-1,43
 417 -10 417 -10 295 -10 c 0,44,45
 198 -10 198 -10 138 22 c 0,46,47
 87 50 87 50 70 74 c 1,48,-1
 63 83 l 1,49,-1
 63 201 l 1,0,-1
EndSplineSet
EndChar

StartChar: four
Encoding: 52 52 23
Width: 625
GlyphClass: 2
Flags: W
LayerCount: 2
Fore
SplineSet
583 0 m 1,0,-1
 194 0 l 1,1,-1
 194 45 l 1,2,-1
 353 73 l 1,3,-1
 353 226 l 1,4,-1
 30 226 l 1,5,-1
 30 302 l 1,6,-1
 360 706 l 1,7,-1
 454 706 l 1,8,-1
 454 302 l 1,9,-1
 572 302 l 1,10,-1
 572 226 l 1,11,-1
 454 226 l 1,12,-1
 454 73 l 1,13,-1
 583 45 l 1,14,-1
 583 0 l 1,0,-1
353 302 m 1,15,-1
 353 574 l 1,16,-1
 139 302 l 1,17,-1
 353 302 l 1,15,-1
EndSplineSet
EndChar

StartChar: five
Encoding: 53 53 24
Width: 628
GlyphClass: 2
Flags: W
LayerCount: 2
Fore
SplineSet
310 70 m 0,0,1
 382 70 382 70 424.5 115 c 128,-1,2
 467 160 467 160 467 226.5 c 128,-1,3
 467 293 467 293 421.5 332 c 128,-1,4
 376 371 376 371 313 371 c 0,5,6
 270 371 270 371 237 359.5 c 128,-1,7
 204 348 204 348 192 337 c 2,8,-1
 181 326 l 1,9,-1
 84 326 l 1,10,-1
 84 704 l 1,11,-1
 541 704 l 1,12,-1
 541 527 l 1,13,-1
 478 527 l 1,14,-1
 445 628 l 1,15,-1
 185 628 l 1,16,-1
 185 423 l 1,17,18
 225 453 225 453 316 453 c 0,19,20
 431 453 431 453 501.5 387.5 c 128,-1,21
 572 322 572 322 572 222 c 128,-1,22
 572 122 572 122 498.5 55.5 c 128,-1,23
 425 -11 425 -11 308 -11 c 0,24,25
 179 -11 179 -11 100 49 c 0,26,27
 81 63 81 63 74 72 c 2,28,-1
 66 82 l 1,29,-1
 66 200 l 1,30,-1
 142 200 l 1,31,-1
 162 111 l 1,32,33
 174 96 174 96 217.5 83 c 128,-1,34
 261 70 261 70 310 70 c 0,0,1
EndSplineSet
EndChar

StartChar: six
Encoding: 54 54 25
Width: 637
GlyphClass: 2
Flags: W
LayerCount: 2
Fore
SplineSet
217 126 m 128,-1,1
 263 70 263 70 332 70 c 128,-1,2
 401 70 401 70 442.5 110 c 128,-1,3
 484 150 484 150 484 218.5 c 128,-1,4
 484 287 484 287 442.5 326 c 128,-1,5
 401 365 401 365 329 365 c 0,6,7
 274 365 274 365 232 338 c 1,8,9
 197 314 197 314 181.5 298 c 128,-1,10
 166 282 166 282 165 281 c 1,11,0
 171 182 171 182 217 126 c 128,-1,1
560 518 m 1,12,-1
 484 518 l 1,13,-1
 464 592 l 1,14,15
 460 597 460 597 452 603.5 c 128,-1,16
 444 610 444 610 411 621.5 c 128,-1,17
 378 633 378 633 336 633 c 0,18,19
 171 633 171 633 162 376 c 1,20,21
 164 377 164 377 181 389.5 c 128,-1,22
 198 402 198 402 217.5 413.5 c 128,-1,23
 237 425 237 425 270.5 435.5 c 128,-1,24
 304 446 304 446 339 446 c 0,25,26
 442 446 442 446 510.5 385 c 128,-1,27
 579 324 579 324 579 218.5 c 128,-1,28
 579 113 579 113 514 51 c 128,-1,29
 449 -11 449 -11 325.5 -11 c 128,-1,30
 202 -11 202 -11 131.5 74 c 128,-1,31
 61 159 61 159 61 325 c 0,32,33
 61 519 61 519 132.5 617 c 128,-1,34
 204 715 204 715 342 715 c 0,35,36
 405 715 405 715 467.5 691.5 c 128,-1,37
 530 668 530 668 560 621 c 1,38,-1
 560 518 l 1,12,-1
EndSplineSet
EndChar

StartChar: seven
Encoding: 55 55 26
Width: 569
GlyphClass: 2
Flags: W
LayerCount: 2
Fore
SplineSet
293 0 m 1,0,-1
 186 0 l 1,1,2
 186 151 186 151 238 286 c 0,3,4
 289 416 289 416 348 500 c 0,5,6
 404 579 404 579 438 616 c 2,7,-1
 452 631 l 1,8,-1
 147 631 l 1,9,-1
 114 495 l 1,10,-1
 41 495 l 1,11,-1
 41 707 l 1,12,-1
 553 707 l 1,13,-1
 553 632 l 1,14,15
 521 600 521 600 469.5 522 c 128,-1,16
 418 444 418 444 383.5 374 c 128,-1,17
 349 304 349 304 321 201.5 c 128,-1,18
 293 99 293 99 293 0 c 1,0,-1
EndSplineSet
EndChar

StartChar: eight
Encoding: 56 56 27
Width: 648
GlyphClass: 2
Flags: W
LayerCount: 2
Fore
SplineSet
460 388 m 1,0,-1
 460 387 l 1,1,2
 490 387 490 387 535 350 c 0,3,4
 558 331 558 331 574 293 c 128,-1,5
 590 255 590 255 590 206 c 0,6,7
 590 110 590 110 516.5 49.5 c 128,-1,8
 443 -11 443 -11 324.5 -11 c 128,-1,9
 206 -11 206 -11 132 49.5 c 128,-1,10
 58 110 58 110 58 206 c 0,11,12
 58 255 58 255 74 293 c 128,-1,13
 90 331 90 331 112 350 c 0,14,15
 156 387 156 387 188 387 c 1,16,-1
 188 388 l 1,17,18
 160 388 160 388 121 426.5 c 128,-1,19
 82 465 82 465 82 534.5 c 128,-1,20
 82 604 82 604 142 659 c 128,-1,21
 202 714 202 714 324 714.5 c 128,-1,22
 446 715 446 715 506 659.5 c 128,-1,23
 566 604 566 604 566 534.5 c 128,-1,24
 566 465 566 465 526.5 426.5 c 128,-1,25
 487 388 487 388 460 388 c 1,0,-1
352 341 m 2,26,-1
 296 341 l 2,27,28
 231 341 231 341 189.5 306 c 128,-1,29
 148 271 148 271 148 209 c 128,-1,30
 148 147 148 147 196 108.5 c 128,-1,31
 244 70 244 70 324 70 c 128,-1,32
 404 70 404 70 451.5 109 c 128,-1,33
 499 148 499 148 499 209.5 c 128,-1,34
 499 271 499 271 457.5 306 c 128,-1,35
 416 341 416 341 352 341 c 2,26,-1
437 444 m 128,-1,37
 476 471 476 471 476 520.5 c 128,-1,38
 476 570 476 570 436.5 602.5 c 128,-1,39
 397 635 397 635 324 635 c 128,-1,40
 251 635 251 635 211.5 602.5 c 128,-1,41
 172 570 172 570 172 520 c 128,-1,42
 172 470 172 470 212 443 c 128,-1,43
 252 416 252 416 300 416 c 0,44,45
 302 416 302 416 304 416 c 2,46,-1
 346 416 l 1,47,36
 398 417 398 417 437 444 c 128,-1,37
EndSplineSet
EndChar

StartChar: nine
Encoding: 57 57 28
Width: 637
GlyphClass: 2
Flags: W
LayerCount: 2
Fore
SplineSet
420 578 m 128,-1,1
 374 634 374 634 305 634 c 128,-1,2
 236 634 236 634 194.5 594 c 128,-1,3
 153 554 153 554 153 485.5 c 128,-1,4
 153 417 153 417 194.5 378 c 128,-1,5
 236 339 236 339 308 339 c 0,6,7
 363 339 363 339 405 366 c 1,8,9
 440 390 440 390 455.5 406 c 128,-1,10
 471 422 471 422 472 423 c 1,11,0
 466 522 466 522 420 578 c 128,-1,1
77 186 m 1,12,-1
 153 186 l 1,13,-1
 173 112 l 1,14,15
 177 107 177 107 185 100.5 c 128,-1,16
 193 94 193 94 226 82.5 c 128,-1,17
 259 71 259 71 301 71 c 0,18,19
 466 71 466 71 475 328 c 1,20,-1
 456 314 l 2,21,22
 437 300 437 300 419 289.5 c 128,-1,23
 401 279 401 279 367 268.5 c 128,-1,24
 333 258 333 258 298 258 c 0,25,26
 195 258 195 258 126.5 319 c 128,-1,27
 58 380 58 380 58 485.5 c 128,-1,28
 58 591 58 591 123 653 c 128,-1,29
 188 715 188 715 311.5 715 c 128,-1,30
 435 715 435 715 505.5 630 c 128,-1,31
 576 545 576 545 576 379 c 0,32,33
 576 185 576 185 504.5 87 c 128,-1,34
 433 -11 433 -11 295 -11 c 0,35,36
 232 -11 232 -11 169.5 12.5 c 128,-1,37
 107 36 107 36 77 83 c 1,38,-1
 77 186 l 1,12,-1
EndSplineSet
EndChar

StartChar: colon
Encoding: 58 58 29
Width: 264
GlyphClass: 2
Flags: W
LayerCount: 2
Fore
SplineSet
132 -11 m 128,-1,1
 107 -11 107 -11 90 6 c 128,-1,2
 73 23 73 23 73 48 c 128,-1,3
 73 73 73 73 90 90 c 128,-1,4
 107 107 107 107 132 107 c 128,-1,5
 157 107 157 107 174 90 c 128,-1,6
 191 73 191 73 191 48 c 128,-1,7
 191 23 191 23 174 6 c 128,-1,0
 157 -11 157 -11 132 -11 c 128,-1,1
132 394 m 128,-1,9
 107 394 107 394 90 411 c 128,-1,10
 73 428 73 428 73 453 c 128,-1,11
 73 478 73 478 90 495 c 128,-1,12
 107 512 107 512 132 512 c 128,-1,13
 157 512 157 512 174 495 c 128,-1,14
 191 478 191 478 191 453 c 128,-1,15
 191 428 191 428 174 411 c 128,-1,8
 157 394 157 394 132 394 c 128,-1,9
EndSplineSet
EndChar

StartChar: semicolon
Encoding: 59 59 30
AltUni2: 00037e.ffffffff.0
Width: 283
GlyphClass: 2
Flags: W
LayerCount: 2
Fore
SplineSet
137 394 m 128,-1,1
 112 394 112 394 95 411 c 128,-1,2
 78 428 78 428 78 453 c 128,-1,3
 78 478 78 478 95 495 c 128,-1,4
 112 512 112 512 137 512 c 128,-1,5
 162 512 162 512 179 495 c 128,-1,6
 196 478 196 478 196 453 c 128,-1,7
 196 428 196 428 179 411 c 128,-1,0
 162 394 162 394 137 394 c 128,-1,1
96 -120 m 1,8,-1
 96 -72 l 1,9,10
 114 -72 114 -72 128 -58.5 c 128,-1,11
 142 -45 142 -45 142 -19 c 2,12,-1
 142 -11 l 1,13,-1
 137 -11 l 2,14,15
 112 -11 112 -11 95 6 c 128,-1,16
 78 23 78 23 78 48 c 128,-1,17
 78 73 78 73 95 90 c 128,-1,18
 112 107 112 107 142.5 107 c 128,-1,19
 173 107 173 107 189.5 80.5 c 128,-1,20
 206 54 206 54 206 13 c 0,21,22
 206 -56 206 -56 175 -88 c 128,-1,23
 144 -120 144 -120 96 -120 c 1,8,-1
EndSplineSet
EndChar

StartChar: less
Encoding: 60 60 31
Width: 421
GlyphClass: 2
Flags: W
LayerCount: 2
Fore
SplineSet
358 -21 m 1,0,-1
 48 208 l 1,1,-1
 48 289 l 1,2,-1
 358 518 l 1,3,-1
 358 407 l 1,4,-1
 141 248 l 1,5,-1
 358 90 l 1,6,-1
 358 -21 l 1,0,-1
EndSplineSet
EndChar

StartChar: equal
Encoding: 61 61 32
Width: 549
GlyphClass: 2
Flags: W
LayerCount: 2
Fore
SplineSet
473 165 m 1,0,-1
 76 165 l 1,1,-1
 76 236 l 1,2,-1
 473 236 l 1,3,-1
 473 165 l 1,0,-1
473 372 m 1,4,-1
 76 372 l 1,5,-1
 76 443 l 1,6,-1
 473 443 l 1,7,-1
 473 372 l 1,4,-1
EndSplineSet
EndChar

StartChar: greater
Encoding: 62 62 33
Width: 421
GlyphClass: 2
Flags: W
LayerCount: 2
Fore
SplineSet
373 289 m 1,0,-1
 373 208 l 1,1,-1
 63 -21 l 1,2,-1
 63 90 l 1,3,-1
 280 248 l 1,4,-1
 63 407 l 1,5,-1
 63 518 l 1,6,-1
 373 289 l 1,0,-1
EndSplineSet
EndChar

StartChar: question
Encoding: 63 63 34
Width: 519
GlyphClass: 2
Flags: W
LayerCount: 2
Fore
SplineSet
244 177 m 1,0,-1
 149 177 l 1,1,-1
 149 335 l 1,2,3
 255 335 255 335 318 385.5 c 128,-1,4
 381 436 381 436 381 536 c 0,5,6
 381 601 381 601 337.5 641 c 128,-1,7
 294 681 294 681 218 682 c 0,8,9
 161 682 161 682 140 670 c 1,10,-1
 133 665 l 1,11,-1
 115 577 l 1,12,-1
 41 577 l 1,13,-1
 41 684 l 1,14,15
 44 687 44 687 48.5 692.5 c 128,-1,16
 53 698 53 698 70 711.5 c 128,-1,17
 87 725 87 725 106 735 c 0,18,19
 157 762 157 762 217 762 c 0,20,21
 333 762 333 762 402.5 699.5 c 128,-1,22
 472 637 472 637 472 543 c 0,23,24
 472 478 472 478 448.5 425 c 128,-1,25
 425 372 425 372 389 342 c 0,26,27
 315 279 315 279 244 279 c 1,28,-1
 244 177 l 1,0,-1
237.5 97.5 m 128,-1,30
 256 80 256 80 256 53.5 c 128,-1,31
 256 27 256 27 237 8.5 c 128,-1,32
 218 -10 218 -10 191.5 -10 c 128,-1,33
 165 -10 165 -10 148 8 c 128,-1,34
 131 26 131 26 131 52 c 128,-1,35
 131 78 131 78 148 96.5 c 128,-1,36
 165 115 165 115 192 115 c 128,-1,29
 219 115 219 115 237.5 97.5 c 128,-1,30
EndSplineSet
EndChar

StartChar: at
Encoding: 64 64 35
Width: 799
GlyphClass: 2
Flags: W
LayerCount: 2
Fore
SplineSet
407 -126 m 0,0,1
 256 -126 256 -126 154.5 -24.5 c 128,-1,2
 53 77 53 77 53 234.5 c 128,-1,3
 53 392 53 392 168 508.5 c 128,-1,4
 283 625 283 625 435.5 625 c 128,-1,5
 588 625 588 625 674 546.5 c 128,-1,6
 760 468 760 468 760 345 c 128,-1,7
 760 222 760 222 692 150 c 128,-1,8
 624 78 624 78 539 78 c 2,9,-1
 519 78 l 2,10,11
 479 78 479 78 479 107 c 0,12,13
 479 111 479 111 480 116 c 2,14,-1
 483 141 l 2,15,16
 483 138 483 138 472 123.5 c 128,-1,17
 461 109 461 109 435 92 c 128,-1,18
 409 75 409 75 379 75 c 0,19,20
 319 75 319 75 277 116.5 c 128,-1,21
 235 158 235 158 235 248 c 128,-1,22
 235 338 235 338 292.5 396 c 128,-1,23
 350 454 350 454 423.5 454 c 128,-1,24
 497 454 497 454 520 408 c 1,25,-1
 526 444 l 1,26,-1
 579 444 l 1,27,-1
 539 137 l 1,28,-1
 561 137 l 2,29,30
 614 137 614 137 655 193.5 c 128,-1,31
 696 250 696 250 696 346.5 c 128,-1,32
 696 443 696 443 626.5 500.5 c 128,-1,33
 557 558 557 558 441 558 c 0,34,35
 306 558 306 558 214.5 459.5 c 128,-1,36
 123 361 123 361 123 232.5 c 128,-1,37
 123 104 123 104 205 23 c 128,-1,38
 287 -58 287 -58 407 -58 c 0,39,40
 467 -58 467 -58 517 -49 c 128,-1,41
 567 -40 567 -40 587 -30 c 2,42,-1
 607 -21 l 1,43,-1
 634 -78 l 1,44,45
 624 -83 624 -83 606 -91 c 128,-1,46
 588 -99 588 -99 529 -112.5 c 128,-1,47
 470 -126 470 -126 407 -126 c 0,0,1
431 391 m 0,48,49
 381 391 381 391 343 351.5 c 128,-1,50
 305 312 305 312 305 253.5 c 128,-1,51
 305 195 305 195 330.5 169.5 c 128,-1,52
 356 144 356 144 390.5 144 c 128,-1,53
 425 144 425 144 454 173.5 c 128,-1,54
 483 203 483 203 486 231 c 2,55,-1
 499 334 l 1,56,57
 496 360 496 360 475.5 375.5 c 128,-1,58
 455 391 455 391 431 391 c 0,48,49
EndSplineSet
EndChar

StartChar: A
Encoding: 65 65 36
Width: 745
GlyphClass: 2
Flags: W
LayerCount: 2
Fore
SplineSet
764 0 m 1,0,-1
 492 0 l 1,1,-1
 492 44 l 1,2,-1
 574 77 l 1,3,-1
 503 254 l 1,4,-1
 243 254 l 1,5,-1
 172 77 l 1,6,-1
 252 44 l 1,7,-1
 252 0 l 1,8,-1
 -10 0 l 1,9,-1
 -10 44 l 1,10,-1
 72 77 l 1,11,-1
 318 706 l 1,12,-1
 421 706 l 1,13,-1
 677 77 l 1,14,-1
 764 44 l 1,15,-1
 764 0 l 1,0,-1
477 322 m 1,16,-1
 371 603 l 1,17,-1
 269 322 l 1,18,-1
 477 322 l 1,16,-1
EndSplineSet
EndChar

StartChar: B
Encoding: 66 66 37
Width: 683
GlyphClass: 2
Flags: W
LayerCount: 2
Fore
SplineSet
398 0 m 2,0,-1
 51 0 l 1,1,-1
 51 44 l 1,2,-1
 142 77 l 1,3,-1
 142 629 l 1,4,-1
 51 662 l 1,5,-1
 51 706 l 1,6,-1
 344 706 l 2,7,8
 478 706 478 706 542 628 c 0,9,10
 578 584 578 584 578 520 c 0,11,12
 578 426 578 426 514 377 c 1,13,14
 632 334 632 334 632 203 c 0,15,16
 632 149 632 149 610 108 c 128,-1,17
 588 67 588 67 552 44 c 0,18,19
 482 0 482 0 398 0 c 2,0,-1
243 75 m 1,20,-1
 351 75 l 2,21,22
 443 75 443 75 488.5 103 c 128,-1,23
 534 131 534 131 534 200 c 128,-1,24
 534 269 534 269 495 299 c 128,-1,25
 456 329 456 329 395 329 c 2,26,-1
 243 329 l 1,27,-1
 243 75 l 1,20,-1
244 395 m 1,28,-1
 341 395 l 2,29,30
 480 395 480 395 480 519 c 0,31,32
 480 583 480 583 434 607 c 128,-1,33
 388 631 388 631 297 631 c 2,34,-1
 244 631 l 1,35,-1
 244 395 l 1,28,-1
EndSplineSet
EndChar

StartChar: C
Encoding: 67 67 38
Width: 669
GlyphClass: 2
Flags: W
LayerCount: 2
Fore
SplineSet
643 68 m 1,0,1
 538 -11 538 -11 394 -11 c 0,2,3
 259 -11 259 -11 160 76 c 0,4,5
 112 118 112 118 83 186.5 c 128,-1,6
 54 255 54 255 54 342 c 128,-1,7
 54 429 54 429 84.5 502 c 128,-1,8
 115 575 115 575 166 621 c 0,9,10
 271 716 271 716 412 716 c 0,11,12
 518 716 518 716 597 673 c 1,13,-1
 597 510 l 1,14,-1
 515 510 l 1,15,-1
 497 614 l 1,16,17
 477 636 477 636 414 636 c 0,18,19
 295 636 295 636 227 553 c 128,-1,20
 159 470 159 470 159 344.5 c 128,-1,21
 159 219 159 219 229.5 144.5 c 128,-1,22
 300 70 300 70 408 70 c 0,23,24
 459 70 459 70 509 85 c 128,-1,25
 559 100 559 100 583 115 c 2,26,-1
 607 130 l 1,27,-1
 643 68 l 1,0,1
EndSplineSet
EndChar

StartChar: D
Encoding: 68 68 39
Width: 779
GlyphClass: 2
Flags: W
LayerCount: 2
Fore
SplineSet
359 0 m 2,0,-1
 51 0 l 1,1,-1
 51 44 l 1,2,-1
 142 77 l 1,3,-1
 142 629 l 1,4,-1
 51 662 l 1,5,-1
 51 706 l 1,6,-1
 360 706 l 2,7,8
 522 706 522 706 623 610 c 128,-1,9
 724 514 724 514 724 354 c 128,-1,10
 724 194 724 194 622.5 97 c 128,-1,11
 521 0 521 0 359 0 c 2,0,-1
243 74 m 1,12,-1
 371 74 l 2,13,14
 479 74 479 74 548.5 147.5 c 128,-1,15
 618 221 618 221 618 352 c 128,-1,16
 618 483 618 483 548 557.5 c 128,-1,17
 478 632 478 632 371 632 c 2,18,-1
 243 632 l 1,19,-1
 243 74 l 1,12,-1
EndSplineSet
EndChar

StartChar: E
Encoding: 69 69 40
Width: 677
GlyphClass: 2
Flags: W
LayerCount: 2
Fore
SplineSet
617 0 m 1,0,-1
 51 0 l 1,1,-1
 51 44 l 1,2,-1
 142 77 l 1,3,-1
 142 629 l 1,4,-1
 51 662 l 1,5,-1
 51 706 l 1,6,-1
 617 706 l 1,7,-1
 617 544 l 1,8,-1
 565 544 l 1,9,-1
 532 630 l 1,10,-1
 243 630 l 1,11,-1
 243 392 l 1,12,-1
 473 392 l 1,13,-1
 492 450 l 1,14,-1
 538 450 l 1,15,-1
 538 253 l 1,16,-1
 492 253 l 1,17,-1
 473 320 l 1,18,-1
 243 320 l 1,19,-1
 243 76 l 1,20,-1
 532 76 l 1,21,-1
 565 162 l 1,22,-1
 617 162 l 1,23,-1
 617 0 l 1,0,-1
EndSplineSet
EndChar

StartChar: F
Encoding: 70 70 41
Width: 655
GlyphClass: 2
Flags: W
LayerCount: 2
Fore
SplineSet
335 0 m 1,0,-1
 52 0 l 1,1,-1
 52 54 l 1,2,-1
 143 87 l 1,3,-1
 143 629 l 1,4,-1
 52 662 l 1,5,-1
 52 706 l 1,6,-1
 618 706 l 1,7,-1
 618 544 l 1,8,-1
 566 544 l 1,9,-1
 533 630 l 1,10,-1
 244 630 l 1,11,-1
 244 392 l 1,12,-1
 474 392 l 1,13,-1
 493 450 l 1,14,-1
 539 450 l 1,15,-1
 539 253 l 1,16,-1
 493 253 l 1,17,-1
 474 320 l 1,18,-1
 244 320 l 1,19,-1
 244 87 l 1,20,-1
 335 54 l 1,21,-1
 335 0 l 1,0,-1
EndSplineSet
EndChar

StartChar: G
Encoding: 71 71 42
Width: 759
GlyphClass: 2
Flags: W
LayerCount: 2
Fore
SplineSet
420 716 m 0,0,1
 522 716 522 716 629 673 c 1,2,-1
 629 510 l 1,3,-1
 557 510 l 1,4,-1
 539 614 l 1,5,6
 485 636 485 636 422 636 c 0,7,8
 302 636 302 636 230.5 552.5 c 128,-1,9
 159 469 159 469 159 344 c 128,-1,10
 159 219 159 219 229.5 144.5 c 128,-1,11
 300 70 300 70 408 70 c 0,12,13
 478 70 478 70 550 103 c 1,14,-1
 550 262 l 1,15,-1
 451 295 l 1,16,-1
 451 339 l 1,17,-1
 734 339 l 1,18,-1
 734 295 l 1,19,-1
 643 262 l 1,20,-1
 643 68 l 1,21,22
 575 17 575 17 479 -2 c 0,23,24
 437 -11 437 -11 383 -11 c 128,-1,25
 329 -11 329 -11 268.5 11.5 c 128,-1,26
 208 34 208 34 160 76 c 128,-1,27
 112 118 112 118 83 186.5 c 128,-1,28
 54 255 54 255 54 342 c 128,-1,29
 54 429 54 429 86 502 c 128,-1,30
 118 575 118 575 170 621 c 0,31,32
 279 716 279 716 420 716 c 0,0,1
EndSplineSet
EndChar

StartChar: H
Encoding: 72 72 43
Width: 830
GlyphClass: 2
Flags: W
LayerCount: 2
Fore
SplineSet
779 0 m 1,0,-1
 496 0 l 1,1,-1
 496 44 l 1,2,-1
 587 77 l 1,3,-1
 587 326 l 1,4,-1
 243 326 l 1,5,-1
 243 77 l 1,6,-1
 334 44 l 1,7,-1
 334 0 l 1,8,-1
 51 0 l 1,9,-1
 51 44 l 1,10,-1
 142 77 l 1,11,-1
 142 629 l 1,12,-1
 51 662 l 1,13,-1
 51 706 l 1,14,-1
 334 706 l 1,15,-1
 334 662 l 1,16,-1
 243 629 l 1,17,-1
 243 403 l 1,18,-1
 587 403 l 1,19,-1
 587 629 l 1,20,-1
 496 662 l 1,21,-1
 496 706 l 1,22,-1
 779 706 l 1,23,-1
 779 662 l 1,24,-1
 688 629 l 1,25,-1
 688 77 l 1,26,-1
 779 44 l 1,27,-1
 779 0 l 1,0,-1
EndSplineSet
EndChar

StartChar: I
Encoding: 73 73 44
Width: 385
GlyphClass: 2
Flags: W
LayerCount: 2
Fore
SplineSet
334 0 m 1,0,-1
 51 0 l 1,1,-1
 51 44 l 1,2,-1
 142 77 l 1,3,-1
 142 629 l 1,4,-1
 51 662 l 1,5,-1
 51 706 l 1,6,-1
 334 706 l 1,7,-1
 334 662 l 1,8,-1
 243 629 l 1,9,-1
 243 77 l 1,10,-1
 334 44 l 1,11,-1
 334 0 l 1,0,-1
EndSplineSet
EndChar

StartChar: J
Encoding: 74 74 45
Width: 482
GlyphClass: 2
Flags: W
LayerCount: 2
Fore
SplineSet
255 229 m 2,0,-1
 255 629 l 1,1,-1
 164 662 l 1,2,-1
 164 706 l 1,3,-1
 447 706 l 1,4,-1
 447 662 l 1,5,-1
 356 629 l 1,6,-1
 356 241 l 2,7,8
 356 117 356 117 308 53 c 128,-1,9
 260 -11 260 -11 145 -11 c 0,10,11
 108 -11 108 -11 75 -1 c 128,-1,12
 42 9 42 9 28 19 c 2,13,-1
 13 29 l 1,14,-1
 48 101 l 1,15,16
 85 67 85 67 144.5 67 c 128,-1,17
 204 67 204 67 229.5 104 c 128,-1,18
 255 141 255 141 255 229 c 2,0,-1
EndSplineSet
EndChar

StartChar: K
Encoding: 75 75 46
Width: 754
GlyphClass: 2
Flags: W
LayerCount: 2
Fore
SplineSet
757 0 m 1,0,-1
 489 0 l 1,1,-1
 489 48 l 1,2,-1
 553 74 l 1,3,-1
 243 340 l 1,4,-1
 243 77 l 1,5,-1
 334 44 l 1,6,-1
 334 0 l 1,7,-1
 51 0 l 1,8,-1
 51 44 l 1,9,-1
 142 77 l 1,10,-1
 142 629 l 1,11,-1
 51 662 l 1,12,-1
 51 706 l 1,13,-1
 334 706 l 1,14,-1
 334 662 l 1,15,-1
 243 629 l 1,16,-1
 243 375 l 1,17,-1
 512 630 l 1,18,-1
 444 658 l 1,19,-1
 444 706 l 1,20,-1
 704 706 l 1,21,-1
 704 658 l 1,22,-1
 621 624 l 1,23,-1
 355 367 l 1,24,-1
 672 82 l 1,25,-1
 757 48 l 1,26,-1
 757 0 l 1,0,-1
EndSplineSet
EndChar

StartChar: L
Encoding: 76 76 47
Width: 637
GlyphClass: 2
Flags: W
LayerCount: 2
Fore
SplineSet
617 0 m 1,0,-1
 51 0 l 1,1,-1
 51 44 l 1,2,-1
 142 77 l 1,3,-1
 142 629 l 1,4,-1
 51 662 l 1,5,-1
 51 706 l 1,6,-1
 334 706 l 1,7,-1
 334 662 l 1,8,-1
 243 629 l 1,9,-1
 243 76 l 1,10,-1
 532 76 l 1,11,-1
 565 162 l 1,12,-1
 617 162 l 1,13,-1
 617 0 l 1,0,-1
EndSplineSet
EndChar

StartChar: M
Encoding: 77 77 48
Width: 933
GlyphClass: 2
Flags: W
LayerCount: 2
Fore
SplineSet
914 0 m 1,0,-1
 620 0 l 1,1,-1
 620 54 l 1,2,-1
 711 92 l 1,3,-1
 671 595 l 1,4,-1
 519 0 l 1,5,-1
 415 0 l 1,6,-1
 263 595 l 1,7,-1
 223 92 l 1,8,-1
 314 54 l 1,9,-1
 314 0 l 1,10,-1
 20 0 l 1,11,-1
 20 57 l 1,12,-1
 126 95 l 1,13,-1
 186 611 l 1,14,-1
 81 649 l 1,15,-1
 81 706 l 1,16,-1
 316 706 l 1,17,-1
 460 129 l 1,18,-1
 467 113 l 1,19,-1
 474 129 l 1,20,-1
 618 706 l 1,21,-1
 851 706 l 1,22,-1
 851 649 l 1,23,-1
 747 612 l 1,24,-1
 808 95 l 1,25,-1
 914 57 l 1,26,-1
 914 0 l 1,0,-1
EndSplineSet
EndChar

StartChar: N
Encoding: 78 78 49
Width: 792
GlyphClass: 2
Flags: W
LayerCount: 2
Fore
SplineSet
660 0 m 1,0,-1
 568 0 l 1,1,-1
 243 557 l 1,2,-1
 243 77 l 1,3,-1
 312 44 l 1,4,-1
 312 0 l 1,5,-1
 51 0 l 1,6,-1
 51 44 l 1,7,-1
 142 77 l 1,8,-1
 142 629 l 1,9,-1
 51 662 l 1,10,-1
 51 706 l 1,11,-1
 256 706 l 1,12,-1
 559 184 l 1,13,-1
 559 629 l 1,14,-1
 490 662 l 1,15,-1
 490 706 l 1,16,-1
 751 706 l 1,17,-1
 751 662 l 1,18,-1
 660 629 l 1,19,-1
 660 0 l 1,0,-1
EndSplineSet
EndChar

StartChar: O
Encoding: 79 79 50
Width: 792
GlyphClass: 2
Flags: W
LayerCount: 2
Fore
SplineSet
395 -10 m 128,-1,1
 255 -10 255 -10 154.5 89.5 c 128,-1,2
 54 189 54 189 54 350.5 c 128,-1,3
 54 512 54 512 155 613.5 c 128,-1,4
 256 715 256 715 395 715 c 128,-1,5
 534 715 534 715 636 613.5 c 128,-1,6
 738 512 738 512 738 350.5 c 128,-1,7
 738 189 738 189 636.5 89.5 c 128,-1,0
 535 -10 535 -10 395 -10 c 128,-1,1
225.5 151 m 128,-1,9
 288 70 288 70 395.5 70 c 128,-1,10
 503 70 503 70 565 151 c 128,-1,11
 627 232 627 232 627 350.5 c 128,-1,12
 627 469 627 469 565 551.5 c 128,-1,13
 503 634 503 634 394.5 634 c 128,-1,14
 286 634 286 634 224.5 551.5 c 128,-1,15
 163 469 163 469 163 350.5 c 128,-1,8
 163 232 163 232 225.5 151 c 128,-1,9
EndSplineSet
EndChar

StartChar: P
Encoding: 80 80 51
Width: 636
GlyphClass: 2
Flags: W
LayerCount: 2
Fore
SplineSet
334 0 m 1,0,-1
 51 0 l 1,1,-1
 51 44 l 1,2,-1
 142 77 l 1,3,-1
 142 629 l 1,4,-1
 51 662 l 1,5,-1
 51 706 l 1,6,-1
 363 706 l 2,7,8
 455 706 455 706 526 645.5 c 128,-1,9
 597 585 597 585 597 475.5 c 128,-1,10
 597 366 597 366 530 305.5 c 128,-1,11
 463 245 463 245 363 245 c 2,12,-1
 243 245 l 1,13,-1
 243 77 l 1,14,-1
 334 44 l 1,15,-1
 334 0 l 1,0,-1
244 318 m 1,16,-1
 316 318 l 2,17,18
 394 318 394 318 446.5 357 c 128,-1,19
 499 396 499 396 499 476 c 0,20,21
 499 631 499 631 316 631 c 2,22,-1
 244 631 l 1,23,-1
 244 318 l 1,16,-1
EndSplineSet
EndChar

StartChar: Q
Encoding: 81 81 52
Width: 793
GlyphClass: 2
Flags: W
LayerCount: 2
Fore
SplineSet
145.5 95 m 128,-1,1
 55 192 55 192 55 353 c 128,-1,2
 55 514 55 514 152.5 614.5 c 128,-1,3
 250 715 250 715 396.5 715 c 128,-1,4
 543 715 543 715 641 614.5 c 128,-1,5
 739 514 739 514 739 350 c 0,6,7
 739 214 739 214 665.5 121.5 c 128,-1,8
 592 29 592 29 472 1 c 1,9,10
 520 -38 520 -38 580 -63 c 0,11,12
 672 -101 672 -101 722 -101 c 1,13,-1
 702 -173 l 1,14,15
 642 -173 642 -173 585.5 -155 c 128,-1,16
 529 -137 529 -137 488 -108 c 0,17,18
 420 -59 420 -59 376 -9 c 1,19,0
 236 -2 236 -2 145.5 95 c 128,-1,1
232 147 m 128,-1,21
 305 70 305 70 402.5 70 c 128,-1,22
 500 70 500 70 566.5 145 c 128,-1,23
 633 220 633 220 633 350.5 c 128,-1,24
 633 481 633 481 566.5 557.5 c 128,-1,25
 500 634 500 634 395 634 c 128,-1,26
 290 634 290 634 224.5 557.5 c 128,-1,27
 159 481 159 481 159 352.5 c 128,-1,20
 159 224 159 224 232 147 c 128,-1,21
EndSplineSet
EndChar

StartChar: R
Encoding: 82 82 53
Width: 705
GlyphClass: 2
Flags: W
LayerCount: 2
Fore
SplineSet
701 0 m 1,0,-1
 438 0 l 1,1,-1
 438 48 l 1,2,-1
 502 74 l 1,3,-1
 368 289 l 1,4,-1
 243 289 l 1,5,-1
 243 77 l 1,6,-1
 334 44 l 1,7,-1
 334 0 l 1,8,-1
 51 0 l 1,9,-1
 51 44 l 1,10,-1
 142 77 l 1,11,-1
 142 629 l 1,12,-1
 51 662 l 1,13,-1
 51 706 l 1,14,-1
 363 706 l 2,15,16
 466 706 466 706 531.5 654 c 128,-1,17
 597 602 597 602 597 496 c 0,18,19
 597 355 597 355 465 308 c 1,20,-1
 610 81 l 1,21,-1
 701 48 l 1,22,-1
 701 0 l 1,0,-1
244 362 m 1,23,-1
 360 362 l 2,24,25
 420 362 420 362 459.5 394.5 c 128,-1,26
 499 427 499 427 499 497 c 128,-1,27
 499 567 499 567 447 599 c 128,-1,28
 395 631 395 631 316 631 c 2,29,-1
 244 631 l 1,30,-1
 244 362 l 1,23,-1
EndSplineSet
EndChar

StartChar: S
Encoding: 83 83 54
Width: 566
GlyphClass: 2
Flags: W
LayerCount: 2
Fore
SplineSet
67 190 m 1,0,-1
 127 190 l 1,1,-1
 155 97 l 1,2,3
 194 66 194 66 282 66 c 0,4,5
 339 66 339 66 373.5 96 c 128,-1,6
 408 126 408 126 408 171.5 c 128,-1,7
 408 217 408 217 370.5 257.5 c 128,-1,8
 333 298 333 298 242 332 c 0,9,10
 70 397 70 397 70 514 c 0,11,12
 70 612 70 612 132 663.5 c 128,-1,13
 194 715 194 715 284 715 c 0,14,15
 394 715 394 715 472 678 c 0,16,17
 481 674 481 674 489 669 c 1,18,-1
 489 532 l 1,19,-1
 430 530 l 1,20,-1
 407 611 l 1,21,22
 366 632 366 632 300 632 c 0,23,24
 165 632 165 632 165 546 c 0,25,26
 165 498 165 498 201.5 466.5 c 128,-1,27
 238 435 238 435 315 407 c 0,28,29
 503 338 503 338 503 187 c 0,30,31
 503 99 503 99 444 44 c 128,-1,32
 385 -11 385 -11 273 -11 c 0,33,34
 222 -11 222 -11 172 2 c 0,35,36
 99 22 99 22 67 47 c 1,37,-1
 67 190 l 1,0,-1
EndSplineSet
EndChar

StartChar: T
Encoding: 84 84 55
Width: 692
GlyphClass: 2
Flags: W
LayerCount: 2
Fore
SplineSet
484 0 m 1,0,-1
 201 0 l 1,1,-1
 201 44 l 1,2,-1
 292 77 l 1,3,-1
 292 630 l 1,4,-1
 116 630 l 1,5,-1
 83 544 l 1,6,-1
 21 544 l 1,7,-1
 21 706 l 1,8,-1
 671 706 l 1,9,-1
 671 544 l 1,10,-1
 609 544 l 1,11,-1
 576 630 l 1,12,-1
 393 630 l 1,13,-1
 393 77 l 1,14,-1
 484 44 l 1,15,-1
 484 0 l 1,0,-1
EndSplineSet
EndChar

StartChar: U
Encoding: 85 85 56
Width: 777
GlyphClass: 2
Flags: W
LayerCount: 2
Fore
SplineSet
557 269 m 2,0,-1
 557 629 l 1,1,-1
 466 662 l 1,2,-1
 466 706 l 1,3,-1
 749 706 l 1,4,-1
 749 662 l 1,5,-1
 658 629 l 1,6,-1
 658 281 l 2,7,8
 658 146 658 146 590 67.5 c 128,-1,9
 522 -11 522 -11 388 -11 c 128,-1,10
 254 -11 254 -11 186.5 67 c 128,-1,11
 119 145 119 145 119 281 c 2,12,-1
 119 629 l 1,13,-1
 28 662 l 1,14,-1
 28 706 l 1,15,-1
 311 706 l 1,16,-1
 311 662 l 1,17,-1
 220 629 l 1,18,-1
 220 269 l 2,19,20
 220 175 220 175 264.5 122 c 128,-1,21
 309 69 309 69 388.5 69 c 128,-1,22
 468 69 468 69 512.5 121.5 c 128,-1,23
 557 174 557 174 557 269 c 2,0,-1
EndSplineSet
EndChar

StartChar: V
Encoding: 86 86 57
Width: 778
GlyphClass: 2
Flags: W
LayerCount: 2
Fore
SplineSet
-13 706 m 1,0,-1
 304 706 l 1,1,-1
 304 657 l 1,2,-1
 213 619 l 1,3,-1
 391 126 l 1,4,-1
 396 115 l 1,5,-1
 583 619 l 1,6,-1
 488 657 l 1,7,-1
 488 706 l 1,8,-1
 791 706 l 1,9,-1
 791 654 l 1,10,-1
 685 616 l 1,11,-1
 449 0 l 1,12,-1
 329 0 l 1,13,-1
 93 616 l 1,14,-1
 -13 654 l 1,15,-1
 -13 706 l 1,0,-1
EndSplineSet
EndChar

StartChar: W
Encoding: 87 87 58
Width: 1093
GlyphClass: 2
Flags: W
LayerCount: 2
Fore
SplineSet
-8 706 m 1,0,-1
 297 706 l 1,1,-1
 297 652 l 1,2,-1
 206 624 l 1,3,-1
 364 126 l 1,4,-1
 496 635 l 1,5,-1
 414 649 l 1,6,-1
 414 706 l 1,7,-1
 680 706 l 1,8,-1
 680 652 l 1,9,-1
 608 638 l 1,10,-1
 735 126 l 1,11,-1
 893 624 l 1,12,-1
 802 652 l 1,13,-1
 802 706 l 1,14,-1
 1101 706 l 1,15,-1
 1101 649 l 1,16,-1
 995 621 l 1,17,-1
 789 0 l 1,18,-1
 675 0 l 1,19,-1
 549 481 l 1,20,-1
 418 0 l 1,21,-1
 304 0 l 1,22,-1
 98 621 l 1,23,-1
 -8 649 l 1,24,-1
 -8 706 l 1,0,-1
EndSplineSet
EndChar

StartChar: X
Encoding: 88 88 59
Width: 755
GlyphClass: 2
Flags: W
LayerCount: 2
Fore
SplineSet
746 0 m 1,0,-1
 451 0 l 1,1,-1
 451 57 l 1,2,-1
 525 72 l 1,3,-1
 361 295 l 1,4,-1
 211 72 l 1,5,-1
 303 50 l 1,6,-1
 303 0 l 1,7,-1
 22 0 l 1,8,-1
 22 57 l 1,9,-1
 121 92 l 1,10,-1
 309 368 l 1,11,-1
 116 634 l 1,12,-1
 17 656 l 1,13,-1
 17 706 l 1,14,-1
 332 706 l 1,15,-1
 332 649 l 1,16,-1
 245 634 l 1,17,-1
 386 439 l 1,18,-1
 530 641 l 1,19,-1
 464 656 l 1,20,-1
 464 706 l 1,21,-1
 719 706 l 1,22,-1
 719 649 l 1,23,-1
 625 621 l 1,24,-1
 438 366 l 1,25,-1
 645 79 l 1,26,-1
 746 57 l 1,27,-1
 746 0 l 1,0,-1
EndSplineSet
EndChar

StartChar: Y
Encoding: 89 89 60
Width: 653
GlyphClass: 2
Flags: W
LayerCount: 2
Fore
SplineSet
478 0 m 1,0,-1
 195 0 l 1,1,-1
 195 44 l 1,2,-1
 286 77 l 1,3,-1
 286 247 l 1,4,-1
 71 621 l 1,5,-1
 -11 656 l 1,6,-1
 -11 706 l 1,7,-1
 266 706 l 1,8,-1
 266 649 l 1,9,-1
 179 639 l 1,10,-1
 339 351 l 1,11,-1
 471 624 l 1,12,-1
 388 649 l 1,13,-1
 388 706 l 1,14,-1
 647 706 l 1,15,-1
 647 649 l 1,16,-1
 567 626 l 1,17,-1
 387 276 l 1,18,-1
 387 77 l 1,19,-1
 478 44 l 1,20,-1
 478 0 l 1,0,-1
EndSplineSet
EndChar

StartChar: Z
Encoding: 90 90 61
Width: 670
GlyphClass: 2
Flags: W
LayerCount: 2
Fore
SplineSet
613 0 m 1,0,-1
 57 0 l 1,1,-1
 57 76 l 1,2,3
 447 570 447 570 492 630 c 1,4,-1
 159 630 l 1,5,-1
 126 523 l 1,6,-1
 55 523 l 1,7,-1
 55 706 l 1,8,-1
 613 706 l 1,9,-1
 613 630 l 1,10,-1
 177 76 l 1,11,-1
 507 76 l 1,12,-1
 540 187 l 1,13,-1
 613 187 l 1,14,-1
 613 0 l 1,0,-1
EndSplineSet
EndChar

StartChar: bracketleft
Encoding: 91 91 62
Width: 360
GlyphClass: 2
Flags: W
LayerCount: 2
Fore
SplineSet
325 -271 m 1,0,-1
 99 -271 l 1,1,-1
 99 772 l 1,2,-1
 325 772 l 1,3,-1
 325 696 l 1,4,-1
 190 696 l 1,5,-1
 190 -195 l 1,6,-1
 325 -195 l 1,7,-1
 325 -271 l 1,0,-1
EndSplineSet
EndChar

StartChar: backslash
Encoding: 92 92 63
Width: 443
GlyphClass: 2
Flags: W
LayerCount: 2
Fore
SplineSet
128 715 m 1,0,-1
 407 -279 l 1,1,-1
 314 -279 l 1,2,-1
 35 715 l 1,3,-1
 128 715 l 1,0,-1
EndSplineSet
EndChar

StartChar: bracketright
Encoding: 93 93 64
Width: 360
GlyphClass: 2
Flags: W
LayerCount: 2
Fore
SplineSet
261 -271 m 1,0,-1
 35 -271 l 1,1,-1
 35 -195 l 1,2,-1
 170 -195 l 1,3,-1
 170 696 l 1,4,-1
 35 696 l 1,5,-1
 35 772 l 1,6,-1
 261 772 l 1,7,-1
 261 -271 l 1,0,-1
EndSplineSet
EndChar

StartChar: asciicircum
Encoding: 94 94 65
Width: 420
GlyphClass: 2
Flags: W
LayerCount: 2
Fore
SplineSet
370 595 m 1,0,-1
 281 595 l 1,1,-1
 210 714 l 1,2,-1
 139 595 l 1,3,-1
 50 595 l 1,4,-1
 161 784 l 1,5,-1
 259 784 l 1,6,-1
 370 595 l 1,0,-1
EndSplineSet
EndChar

StartChar: underscore
Encoding: 95 95 66
Width: 673
GlyphClass: 2
Flags: W
LayerCount: 2
Fore
SplineSet
539 -89 m 1,0,-1
 134 -89 l 1,1,-1
 134 -12 l 1,2,-1
 539 -12 l 1,3,-1
 539 -89 l 1,0,-1
EndSplineSet
EndChar

StartChar: grave
Encoding: 96 96 67
Width: 318
GlyphClass: 2
Flags: W
LayerCount: 2
Fore
SplineSet
167 784 m 1,0,-1
 268 595 l 1,1,-1
 179 595 l 1,2,-1
 50 784 l 1,3,-1
 167 784 l 1,0,-1
EndSplineSet
EndChar

StartChar: a
Encoding: 97 97 68
Width: 562
GlyphClass: 2
Flags: W
LayerCount: 2
Fore
SplineSet
542 68 m 1,0,-1
 542 8 l 1,1,2
 503 -11 503 -11 456 -11 c 128,-1,3
 409 -11 409 -11 388.5 7 c 128,-1,4
 368 25 368 25 365 59 c 1,5,6
 310 -11 310 -11 220.5 -11 c 128,-1,7
 131 -11 131 -11 85 25 c 128,-1,8
 39 61 39 61 39 126 c 0,9,10
 39 251 39 251 213 270 c 2,11,-1
 364 286 l 1,12,-1
 364 315 l 2,13,14
 364 373 364 373 340 403 c 128,-1,15
 316 433 316 433 264 433 c 0,16,17
 168 433 168 433 108 412 c 2,18,-1
 88 405 l 1,19,-1
 70 469 l 1,20,21
 98 485 98 485 155 498.5 c 128,-1,22
 212 512 212 512 261 512 c 0,23,24
 368 512 368 512 413 469.5 c 128,-1,25
 458 427 458 427 458 350 c 2,26,-1
 458 68 l 1,27,-1
 542 68 l 1,0,-1
157.5 182 m 128,-1,29
 135 164 135 164 135 133.5 c 128,-1,30
 135 103 135 103 159.5 85.5 c 128,-1,31
 184 68 184 68 228 68 c 0,32,33
 311 68 311 68 364 113 c 1,34,-1
 364 221 l 1,35,-1
 218 205 l 2,36,28
 180 200 180 200 157.5 182 c 128,-1,29
EndSplineSet
EndChar

StartChar: b
Encoding: 98 98 69
Width: 587
GlyphClass: 2
Flags: W
LayerCount: 2
Fore
SplineSet
82 693 m 1,0,-1
 -2 693 l 1,1,-1
 -2 753 l 1,2,3
 37 772 37 772 88.5 772 c 128,-1,4
 140 772 140 772 158 747.5 c 128,-1,5
 176 723 176 723 176 673 c 2,6,-1
 176 457 l 1,7,8
 224 512 224 512 319 512 c 0,9,10
 398 512 398 512 465 458 c 0,11,12
 499 430 499 430 519.5 378.5 c 128,-1,13
 540 327 540 327 540 259 c 128,-1,14
 540 191 540 191 517 137.5 c 128,-1,15
 494 84 494 84 455 53 c 0,16,17
 376 -10 376 -10 271 -10 c 0,18,19
 222 -10 222 -10 174.5 4.5 c 128,-1,20
 127 19 127 19 104 34 c 2,21,-1
 82 48 l 1,22,-1
 82 693 l 1,0,-1
271 68 m 0,23,24
 352 68 352 68 397.5 115.5 c 128,-1,25
 443 163 443 163 443 250 c 128,-1,26
 443 337 443 337 399 385.5 c 128,-1,27
 355 434 355 434 305 434 c 0,28,29
 222 434 222 434 176 385 c 1,30,-1
 176 85 l 1,31,-1
 188 82 l 2,32,33
 241 68 241 68 271 68 c 0,23,24
EndSplineSet
EndChar

StartChar: c
Encoding: 99 99 70
Width: 523
GlyphClass: 2
Flags: W
LayerCount: 2
Fore
SplineSet
300 -10 m 0,0,1
 189 -10 189 -10 117.5 55 c 128,-1,2
 46 120 46 120 46 243 c 0,3,4
 46 311 46 311 73 364.5 c 128,-1,5
 100 418 100 418 144 449 c 0,6,7
 235 512 235 512 343 512 c 0,8,9
 376 512 376 512 408 504 c 128,-1,10
 440 496 440 496 456 488 c 2,11,-1
 472 479 l 1,12,-1
 472 361 l 1,13,-1
 411 361 l 1,14,-1
 397 422 l 1,15,16
 383 433 383 433 343 433 c 0,17,18
 257 433 257 433 200 381 c 128,-1,19
 143 329 143 329 143 250 c 128,-1,20
 143 171 143 171 192.5 119.5 c 128,-1,21
 242 68 242 68 324 68 c 0,22,23
 364 68 364 68 398.5 76.5 c 128,-1,24
 433 85 433 85 447 94 c 2,25,-1
 461 102 l 1,26,-1
 490 50 l 1,27,28
 487 48 487 48 481.5 43.5 c 128,-1,29
 476 39 476 39 458 29 c 128,-1,30
 440 19 440 19 420 11 c 0,31,32
 366 -10 366 -10 300 -10 c 0,0,1
EndSplineSet
EndChar

StartChar: d
Encoding: 100 100 71
Width: 618
GlyphClass: 2
Flags: W
LayerCount: 2
Fore
SplineSet
589 68 m 1,0,-1
 589 8 l 1,1,2
 550 -11 550 -11 503.5 -11 c 128,-1,3
 457 -11 457 -11 436.5 6 c 128,-1,4
 416 23 416 23 412 56 c 1,5,6
 366 -10 366 -10 268 -10 c 0,7,8
 189 -10 189 -10 122 44 c 0,9,10
 88 72 88 72 67.5 123.5 c 128,-1,11
 47 175 47 175 47 243 c 128,-1,12
 47 311 47 311 74 364.5 c 128,-1,13
 101 418 101 418 145 449 c 0,14,15
 234 512 234 512 342 512 c 0,16,17
 374 512 374 512 411 498 c 1,18,-1
 411 693 l 1,19,-1
 327 693 l 1,20,-1
 327 753 l 1,21,22
 366 772 366 772 417.5 772 c 128,-1,23
 469 772 469 772 487 747.5 c 128,-1,24
 505 723 505 723 505 673 c 2,25,-1
 505 68 l 1,26,-1
 589 68 l 1,0,-1
342 433 m 0,27,28
 253 433 253 433 198.5 384.5 c 128,-1,29
 144 336 144 336 144 248 c 128,-1,30
 144 160 144 160 187.5 111.5 c 128,-1,31
 231 63 231 63 282 63 c 0,32,33
 368 63 368 63 411 126 c 1,34,-1
 411 418 l 1,35,36
 366 433 366 433 342 433 c 0,27,28
EndSplineSet
EndChar

StartChar: e
Encoding: 101 101 72
Width: 555
GlyphClass: 2
Flags: W
LayerCount: 2
Fore
SplineSet
301 -10 m 0,0,1
 188 -10 188 -10 117.5 54.5 c 128,-1,2
 47 119 47 119 47 243 c 128,-1,3
 47 367 47 367 119 439.5 c 128,-1,4
 191 512 191 512 287 512 c 0,5,6
 515 512 515 512 515 242 c 1,7,-1
 144 242 l 1,8,-1
 144 237 l 2,9,10
 144 166 144 166 194 117 c 128,-1,11
 244 68 244 68 330 68 c 0,12,13
 367 68 367 68 400 76.5 c 128,-1,14
 433 85 433 85 448 94 c 2,15,-1
 462 102 l 1,16,-1
 491 50 l 1,17,18
 488 48 488 48 482.5 43.5 c 128,-1,19
 477 39 477 39 459 29 c 128,-1,20
 441 19 441 19 420 11 c 0,21,22
 367 -10 367 -10 301 -10 c 0,0,1
381.5 400.5 m 128,-1,24
 346 433 346 433 289.5 433 c 128,-1,25
 233 433 233 433 196 401.5 c 128,-1,26
 159 370 159 370 148 306 c 1,27,-1
 422 306 l 1,28,23
 417 368 417 368 381.5 400.5 c 128,-1,24
EndSplineSet
EndChar

StartChar: f
Encoding: 102 102 73
Width: 403
GlyphClass: 2
Flags: W
LayerCount: 2
Fore
SplineSet
305 0 m 1,0,-1
 40 0 l 1,1,-1
 40 43 l 1,2,-1
 124 76 l 1,3,-1
 124 419 l 1,4,-1
 46 419 l 1,5,-1
 46 479 l 1,6,-1
 124 511 l 1,7,-1
 124 571 l 2,8,9
 124 670 124 670 174.5 721.5 c 128,-1,10
 225 773 225 773 317 773 c 0,11,12
 353 773 353 773 383.5 762.5 c 128,-1,13
 414 752 414 752 426 741 c 2,14,-1
 439 730 l 1,15,-1
 412 678 l 1,16,17
 384 694 384 694 328.5 694 c 128,-1,18
 273 694 273 694 246.5 661.5 c 128,-1,19
 220 629 220 629 220 543 c 2,20,-1
 220 500 l 1,21,-1
 381 500 l 1,22,-1
 381 419 l 1,23,-1
 220 419 l 1,24,-1
 220 76 l 1,25,-1
 305 43 l 1,26,-1
 305 0 l 1,0,-1
EndSplineSet
EndChar

StartChar: g
Encoding: 103 103 74
Width: 589
GlyphClass: 2
Flags: W
LayerCount: 2
Fore
SplineSet
503 323 m 0,0,1
 503 239 503 239 438.5 188 c 128,-1,2
 374 137 374 137 283 137 c 0,3,4
 233 137 233 137 188 154 c 1,5,-1
 142 71 l 1,6,-1
 336 71 l 2,7,8
 443 71 443 71 491 30 c 128,-1,9
 539 -11 539 -11 539 -90 c 128,-1,10
 539 -169 539 -169 470 -224 c 128,-1,11
 401 -279 401 -279 277 -279 c 128,-1,12
 153 -279 153 -279 89 -231 c 128,-1,13
 25 -183 25 -183 25 -109.5 c 128,-1,14
 25 -36 25 -36 97 -4 c 1,15,16
 55 10 55 10 55 56 c 1,17,-1
 59 81 l 1,18,19
 116 168 116 168 128 188 c 1,20,21
 63 240 63 240 63 323.5 c 128,-1,22
 63 407 63 407 128 459.5 c 128,-1,23
 193 512 193 512 283 512 c 0,24,25
 340 512 340 512 393 488 c 1,26,-1
 568 511 l 1,27,-1
 565 424 l 1,28,-1
 464 433 l 1,29,30
 503 386 503 386 503 323 c 0,0,1
113 -99 m 0,31,32
 113 -145 113 -145 155.5 -172.5 c 128,-1,33
 198 -200 198 -200 275 -200 c 128,-1,34
 352 -200 352 -200 397.5 -171 c 128,-1,35
 443 -142 443 -142 443 -91 c 0,36,37
 443 -9 443 -9 338 -9 c 2,38,-1
 160 -10 l 1,39,40
 113 -36 113 -36 113 -99 c 0,31,32
380 245 m 128,-1,42
 415 278 415 278 415 324 c 128,-1,43
 415 370 415 370 380 404 c 128,-1,44
 345 438 345 438 282.5 438 c 128,-1,45
 220 438 220 438 186 404.5 c 128,-1,46
 152 371 152 371 152 324.5 c 128,-1,47
 152 278 152 278 186.5 245 c 128,-1,48
 221 212 221 212 283 212 c 128,-1,41
 345 212 345 212 380 245 c 128,-1,42
EndSplineSet
EndChar

StartChar: h
Encoding: 104 104 75
Width: 643
GlyphClass: 2
Flags: W
LayerCount: 2
Fore
SplineSet
627 0 m 1,0,-1
 364 0 l 1,1,-1
 364 43 l 1,2,-1
 444 76 l 1,3,-1
 444 315 l 2,4,5
 444 374 444 374 424.5 403 c 128,-1,6
 405 432 405 432 354 432 c 0,7,8
 262 432 262 432 207 377 c 1,9,-1
 207 76 l 1,10,-1
 292 43 l 1,11,-1
 292 0 l 1,12,-1
 29 0 l 1,13,-1
 29 43 l 1,14,-1
 113 76 l 1,15,-1
 113 693 l 1,16,-1
 29 693 l 1,17,-1
 29 753 l 1,18,19
 68 772 68 772 119.5 772 c 128,-1,20
 171 772 171 772 189 747.5 c 128,-1,21
 207 723 207 723 207 673 c 2,22,-1
 207 434 l 1,23,24
 228 464 228 464 281.5 488 c 128,-1,25
 335 512 335 512 382 512 c 0,26,27
 460 512 460 512 499 468.5 c 128,-1,28
 538 425 538 425 538 350 c 2,29,-1
 538 76 l 1,30,-1
 627 43 l 1,31,-1
 627 0 l 1,0,-1
EndSplineSet
EndChar

StartChar: i
Encoding: 105 105 76
Width: 332
GlyphClass: 2
Flags: W
LayerCount: 2
Fore
SplineSet
306 0 m 1,0,-1
 43 0 l 1,1,-1
 43 43 l 1,2,-1
 127 76 l 1,3,-1
 127 433 l 1,4,-1
 43 433 l 1,5,-1
 43 493 l 1,6,7
 82 512 82 512 133.5 512 c 128,-1,8
 185 512 185 512 203 487.5 c 128,-1,9
 221 463 221 463 221 413 c 2,10,-1
 221 76 l 1,11,-1
 306 43 l 1,12,-1
 306 0 l 1,0,-1
169 604 m 128,-1,14
 136 604 136 604 113 627 c 128,-1,15
 90 650 90 650 90 683 c 128,-1,16
 90 716 90 716 113 739 c 128,-1,17
 136 762 136 762 169 762 c 128,-1,18
 202 762 202 762 225 739 c 128,-1,19
 248 716 248 716 248 683 c 128,-1,20
 248 650 248 650 225 627 c 128,-1,13
 202 604 202 604 169 604 c 128,-1,14
EndSplineSet
EndChar

StartChar: j
Encoding: 106 106 77
Width: 291
GlyphClass: 2
Flags: W
LayerCount: 2
Fore
SplineSet
113 -42 m 2,0,-1
 113 433 l 1,1,-1
 29 433 l 1,2,-1
 29 493 l 1,3,4
 68 512 68 512 119.5 512 c 128,-1,5
 171 512 171 512 189 487.5 c 128,-1,6
 207 463 207 463 207 413 c 2,7,-1
 207 -70 l 2,8,9
 207 -169 207 -169 157 -220.5 c 128,-1,10
 107 -272 107 -272 16 -272 c 0,11,12
 -20 -272 -20 -272 -50.5 -261 c 128,-1,13
 -81 -250 -81 -250 -94 -240 c 1,14,-1
 -106 -229 l 1,15,-1
 -79 -174 l 1,16,17
 -51 -190 -51 -190 5 -190 c 128,-1,18
 61 -190 61 -190 87 -159 c 128,-1,19
 113 -128 113 -128 113 -42 c 2,0,-1
155 604 m 128,-1,21
 122 604 122 604 99 627 c 128,-1,22
 76 650 76 650 76 683 c 128,-1,23
 76 716 76 716 99 739 c 128,-1,24
 122 762 122 762 155 762 c 128,-1,25
 188 762 188 762 211 739 c 128,-1,26
 234 716 234 716 234 683 c 128,-1,27
 234 650 234 650 211 627 c 128,-1,20
 188 604 188 604 155 604 c 128,-1,21
EndSplineSet
EndChar

StartChar: k
Encoding: 107 107 78
Width: 637
GlyphClass: 2
Flags: W
LayerCount: 2
Fore
SplineSet
635 0 m 1,0,-1
 395 0 l 1,1,-1
 395 43 l 1,2,-1
 447 62 l 1,3,-1
 209 296 l 1,4,-1
 394 447 l 1,5,-1
 323 457 l 1,6,-1
 323 500 l 1,7,-1
 574 500 l 1,8,-1
 574 457 l 1,9,-1
 499 438 l 1,10,-1
 323 296 l 1,11,-1
 560 62 l 1,12,-1
 635 43 l 1,13,-1
 635 0 l 1,0,-1
292 0 m 1,14,-1
 29 0 l 1,15,-1
 29 43 l 1,16,-1
 113 76 l 1,17,-1
 113 693 l 1,18,-1
 29 693 l 1,19,-1
 29 753 l 1,20,21
 68 772 68 772 119.5 772 c 128,-1,22
 171 772 171 772 189 747.5 c 128,-1,23
 207 723 207 723 207 673 c 2,24,-1
 207 76 l 1,25,-1
 292 43 l 1,26,-1
 292 0 l 1,14,-1
EndSplineSet
EndChar

StartChar: l
Encoding: 108 108 79
Width: 320
GlyphClass: 2
Flags: W
LayerCount: 2
Fore
SplineSet
292 0 m 1,0,-1
 29 0 l 1,1,-1
 29 43 l 1,2,-1
 113 76 l 1,3,-1
 113 693 l 1,4,-1
 29 693 l 1,5,-1
 29 753 l 1,6,7
 68 772 68 772 119.5 772 c 128,-1,8
 171 772 171 772 189 747.5 c 128,-1,9
 207 723 207 723 207 673 c 2,10,-1
 207 76 l 1,11,-1
 292 43 l 1,12,-1
 292 0 l 1,0,-1
EndSplineSet
EndChar

StartChar: m
Encoding: 109 109 80
Width: 973
GlyphClass: 2
Flags: W
LayerCount: 2
Fore
SplineSet
957 0 m 1,0,-1
 694 0 l 1,1,-1
 694 43 l 1,2,-1
 774 76 l 1,3,-1
 774 315 l 2,4,5
 774 374 774 374 754.5 403 c 128,-1,6
 735 432 735 432 684 432 c 0,7,8
 604 432 604 432 547 375 c 1,9,10
 550 363 550 363 550 350 c 2,11,-1
 550 76 l 1,12,-1
 639 43 l 1,13,-1
 639 0 l 1,14,-1
 376 0 l 1,15,-1
 376 43 l 1,16,-1
 456 76 l 1,17,-1
 456 315 l 2,18,19
 456 374 456 374 436.5 403 c 128,-1,20
 417 432 417 432 366 432 c 0,21,22
 284 432 284 432 219 367 c 1,23,-1
 219 76 l 1,24,-1
 304 43 l 1,25,-1
 304 0 l 1,26,-1
 41 0 l 1,27,-1
 41 43 l 1,28,-1
 125 76 l 1,29,-1
 125 433 l 1,30,-1
 41 433 l 1,31,-1
 41 493 l 1,32,33
 80 512 80 512 130 512 c 128,-1,34
 180 512 180 512 198.5 490 c 128,-1,35
 217 468 217 468 219 424 c 1,36,37
 233 442 233 442 261 465 c 0,38,39
 320 512 320 512 394 512 c 0,40,41
 504 512 504 512 538 424 c 1,42,43
 611 512 611 512 712 512 c 0,44,45
 790 512 790 512 829 468.5 c 128,-1,46
 868 425 868 425 868 350 c 2,47,-1
 868 76 l 1,48,-1
 957 43 l 1,49,-1
 957 0 l 1,0,-1
EndSplineSet
EndChar

StartChar: n
Encoding: 110 110 81
Width: 655
GlyphClass: 2
Flags: W
LayerCount: 2
Fore
SplineSet
639 0 m 1,0,-1
 376 0 l 1,1,-1
 376 43 l 1,2,-1
 456 76 l 1,3,-1
 456 315 l 2,4,5
 456 374 456 374 436.5 403 c 128,-1,6
 417 432 417 432 366 432 c 0,7,8
 284 432 284 432 219 367 c 1,9,-1
 219 76 l 1,10,-1
 304 43 l 1,11,-1
 304 0 l 1,12,-1
 41 0 l 1,13,-1
 41 43 l 1,14,-1
 125 76 l 1,15,-1
 125 433 l 1,16,-1
 41 433 l 1,17,-1
 41 493 l 1,18,19
 80 512 80 512 130 512 c 128,-1,20
 180 512 180 512 198.5 490 c 128,-1,21
 217 468 217 468 219 424 c 1,22,23
 233 442 233 442 261 465 c 0,24,25
 320 512 320 512 396 512 c 128,-1,26
 472 512 472 512 511 468.5 c 128,-1,27
 550 425 550 425 550 350 c 2,28,-1
 550 76 l 1,29,-1
 639 43 l 1,30,-1
 639 0 l 1,0,-1
EndSplineSet
EndChar

StartChar: o
Encoding: 111 111 82
Width: 606
GlyphClass: 2
Flags: W
LayerCount: 2
Fore
SplineSet
303 -11 m 128,-1,1
 192 -11 192 -11 119 61.5 c 128,-1,2
 46 134 46 134 46 250 c 128,-1,3
 46 366 46 366 119 439 c 128,-1,4
 192 512 192 512 303 512 c 128,-1,5
 414 512 414 512 487 439 c 128,-1,6
 560 366 560 366 560 250 c 128,-1,7
 560 134 560 134 487 61.5 c 128,-1,0
 414 -11 414 -11 303 -11 c 128,-1,1
303 68 m 128,-1,9
 373 68 373 68 418 116.5 c 128,-1,10
 463 165 463 165 463 247 c 128,-1,11
 463 329 463 329 417.5 381 c 128,-1,12
 372 433 372 433 303 433 c 128,-1,13
 234 433 234 433 188.5 381 c 128,-1,14
 143 329 143 329 143 247 c 128,-1,15
 143 165 143 165 188 116.5 c 128,-1,8
 233 68 233 68 303 68 c 128,-1,9
EndSplineSet
EndChar

StartChar: p
Encoding: 112 112 83
Width: 619
GlyphClass: 2
Flags: W
LayerCount: 2
Fore
SplineSet
291 -271 m 1,0,-1
 28 -271 l 1,1,-1
 28 -228 l 1,2,-1
 113 -195 l 1,3,-1
 113 437 l 1,4,-1
 29 437 l 1,5,-1
 29 492 l 1,6,7
 68 511 68 511 114.5 511 c 128,-1,8
 161 511 161 511 181 494 c 128,-1,9
 201 477 201 477 205 444 c 1,10,11
 254 512 254 512 351 512 c 0,12,13
 430 512 430 512 497 458 c 0,14,15
 531 430 531 430 551.5 378.5 c 128,-1,16
 572 327 572 327 572 259 c 128,-1,17
 572 191 572 191 549 137.5 c 128,-1,18
 526 84 526 84 487 53 c 0,19,20
 408 -10 408 -10 303 -10 c 0,21,22
 261 -10 261 -10 207 4 c 1,23,-1
 207 -195 l 1,24,-1
 291 -228 l 1,25,-1
 291 -271 l 1,0,-1
303 69 m 0,26,27
 384 69 384 69 429.5 117 c 128,-1,28
 475 165 475 165 475 251 c 128,-1,29
 475 337 475 337 431 385.5 c 128,-1,30
 387 434 387 434 337 434 c 0,31,32
 250 434 250 434 207 379 c 1,33,-1
 207 87 l 1,34,35
 263 69 263 69 303 69 c 0,26,27
EndSplineSet
EndChar

StartChar: q
Encoding: 113 113 84
Width: 587
GlyphClass: 2
Flags: W
LayerCount: 2
Fore
SplineSet
590 -271 m 1,0,-1
 327 -271 l 1,1,-1
 327 -228 l 1,2,-1
 411 -195 l 1,3,-1
 411 55 l 1,4,5
 364 -10 364 -10 268 -10 c 0,6,7
 189 -10 189 -10 122 44 c 0,8,9
 88 72 88 72 67.5 123.5 c 128,-1,10
 47 175 47 175 47 243 c 128,-1,11
 47 311 47 311 74 364.5 c 128,-1,12
 101 418 101 418 145 449 c 0,13,14
 234 512 234 512 342 512 c 0,15,16
 391 512 391 512 432 497.5 c 128,-1,17
 473 483 473 483 489 468 c 2,18,-1
 505 454 l 1,19,-1
 505 -195 l 1,20,-1
 590 -228 l 1,21,-1
 590 -271 l 1,0,-1
342 433 m 0,22,23
 253 433 253 433 198.5 384.5 c 128,-1,24
 144 336 144 336 144 250.5 c 128,-1,25
 144 165 144 165 188 116.5 c 128,-1,26
 232 68 232 68 282 68 c 0,27,28
 368 68 368 68 411 126 c 1,29,-1
 411 418 l 1,30,31
 366 433 366 433 342 433 c 0,22,23
EndSplineSet
EndChar

StartChar: r
Encoding: 114 114 85
Width: 477
GlyphClass: 2
Flags: W
LayerCount: 2
Fore
SplineSet
304 0 m 1,0,-1
 41 0 l 1,1,-1
 41 43 l 1,2,-1
 125 76 l 1,3,-1
 125 433 l 1,4,-1
 41 433 l 1,5,-1
 41 493 l 1,6,7
 80 512 80 512 129 512 c 128,-1,8
 178 512 178 512 197 491 c 128,-1,9
 216 470 216 470 218 429 c 1,10,11
 228 459 228 459 259 483 c 0,12,13
 296 512 296 512 357 512 c 0,14,15
 384 512 384 512 408.5 505 c 128,-1,16
 433 498 433 498 444 491 c 2,17,-1
 456 484 l 1,18,-1
 456 366 l 1,19,-1
 396 366 l 1,20,-1
 383 426 l 1,21,22
 377 432 377 432 350 432 c 128,-1,23
 323 432 323 432 298 424.5 c 128,-1,24
 273 417 273 417 259 406 c 0,25,26
 231 382 231 382 219 357 c 1,27,-1
 219 76 l 1,28,-1
 304 43 l 1,29,-1
 304 0 l 1,0,-1
EndSplineSet
EndChar

StartChar: s
Encoding: 115 115 86
Width: 478
GlyphClass: 2
Flags: W
LayerCount: 2
Fore
SplineSet
415 357 m 1,0,-1
 352 357 l 1,1,-1
 338 407 l 1,2,3
 312 432 312 432 258 432 c 128,-1,4
 204 432 204 432 174.5 418 c 128,-1,5
 145 404 145 404 145 380.5 c 128,-1,6
 145 357 145 357 167 336.5 c 128,-1,7
 189 316 189 316 212 306 c 128,-1,8
 235 296 235 296 294 276 c 128,-1,9
 353 256 353 256 390.5 223 c 128,-1,10
 428 190 428 190 428 136 c 0,11,12
 428 64 428 64 375.5 26.5 c 128,-1,13
 323 -11 323 -11 255.5 -11 c 128,-1,14
 188 -11 188 -11 139.5 6 c 128,-1,15
 91 23 91 23 70 40 c 2,16,-1
 50 57 l 1,17,-1
 50 164 l 1,18,-1
 110 164 l 1,19,-1
 131 102 l 2,20,21
 132 99 132 99 147 92 c 0,22,23
 194 68 194 68 241 68 c 128,-1,24
 288 68 288 68 313 82.5 c 128,-1,25
 338 97 338 97 338 123.5 c 128,-1,26
 338 150 338 150 310 174 c 128,-1,27
 282 198 282 198 216.5 217.5 c 128,-1,28
 151 237 151 237 106.5 274.5 c 128,-1,29
 62 312 62 312 62 362 c 0,30,31
 62 437 62 437 114.5 474.5 c 128,-1,32
 167 512 167 512 250 512 c 0,33,34
 291 512 291 512 332 502 c 128,-1,35
 373 492 373 492 394 482 c 2,36,-1
 415 472 l 1,37,-1
 415 357 l 1,0,-1
EndSplineSet
EndChar

StartChar: t
Encoding: 116 116 87
Width: 408
GlyphClass: 2
Flags: W
LayerCount: 2
Fore
SplineSet
213 102 m 128,-1,1
 239 71 239 71 292 71 c 128,-1,2
 345 71 345 71 379 87 c 1,3,-1
 399 37 l 1,4,5
 395 32 395 32 387.5 24 c 128,-1,6
 380 16 380 16 350 2.5 c 128,-1,7
 320 -11 320 -11 284 -11 c 0,8,9
 193 -11 193 -11 143 40.5 c 128,-1,10
 93 92 93 92 93 191 c 2,11,-1
 93 421 l 1,12,-1
 40 421 l 1,13,-1
 40 480 l 1,14,-1
 136 576 l 1,15,-1
 187 576 l 1,16,-1
 187 500 l 1,17,-1
 355 500 l 1,18,-1
 355 421 l 1,19,-1
 187 421 l 1,20,-1
 187 219 l 2,21,0
 187 133 187 133 213 102 c 128,-1,1
EndSplineSet
EndChar

StartChar: u
Encoding: 117 117 88
Width: 636
GlyphClass: 2
Flags: W
LayerCount: 2
Fore
SplineSet
608 68 m 1,0,-1
 608 8 l 1,1,2
 569 -11 569 -11 520 -11 c 128,-1,3
 471 -11 471 -11 452 9.5 c 128,-1,4
 433 30 433 30 430 70 c 1,5,6
 417 55 417 55 400 40 c 128,-1,7
 383 25 383 25 343.5 7 c 128,-1,8
 304 -11 304 -11 261 -11 c 0,9,10
 183 -11 183 -11 144 32.5 c 128,-1,11
 105 76 105 76 105 151 c 2,12,-1
 105 433 l 1,13,-1
 21 433 l 1,14,-1
 21 493 l 1,15,16
 60 512 60 512 111.5 512 c 128,-1,17
 163 512 163 512 181 487.5 c 128,-1,18
 199 463 199 463 199 413 c 2,19,-1
 199 186 l 2,20,21
 199 127 199 127 218.5 98 c 128,-1,22
 238 69 238 69 289 69 c 128,-1,23
 340 69 340 69 376 88.5 c 128,-1,24
 412 108 412 108 430 129 c 1,25,-1
 430 433 l 1,26,-1
 346 433 l 1,27,-1
 346 493 l 1,28,29
 385 512 385 512 436.5 512 c 128,-1,30
 488 512 488 512 506 487.5 c 128,-1,31
 524 463 524 463 524 413 c 2,32,-1
 524 68 l 1,33,-1
 608 68 l 1,0,-1
EndSplineSet
EndChar

StartChar: v
Encoding: 118 118 89
Width: 684
GlyphClass: 2
Flags: W
LayerCount: 2
Fore
SplineSet
30 499 m 1,0,-1
 285 499 l 1,1,-1
 285 455 l 1,2,-1
 217 431 l 1,3,-1
 347 99 l 1,4,-1
 472 431 l 1,5,-1
 404 455 l 1,6,-1
 404 499 l 1,7,-1
 654 499 l 1,8,-1
 654 455 l 1,9,-1
 574 429 l 1,10,-1
 392 0 l 1,11,-1
 292 0 l 1,12,-1
 110 429 l 1,13,-1
 30 455 l 1,14,-1
 30 499 l 1,0,-1
EndSplineSet
EndChar

StartChar: w
Encoding: 119 119 90
Width: 907
GlyphClass: 2
Flags: W
LayerCount: 2
Fore
SplineSet
3 499 m 1,0,-1
 258 499 l 1,1,-1
 258 455 l 1,2,-1
 190 431 l 1,3,-1
 297 94 l 1,4,-1
 400 431 l 1,5,-1
 332 455 l 1,6,-1
 332 499 l 1,7,-1
 587 499 l 1,8,-1
 587 455 l 1,9,-1
 508 429 l 1,10,-1
 615 95 l 1,11,-1
 718 431 l 1,12,-1
 650 455 l 1,13,-1
 650 499 l 1,14,-1
 900 499 l 1,15,-1
 900 455 l 1,16,-1
 820 429 l 1,17,-1
 665 0 l 1,18,-1
 565 0 l 1,19,-1
 452 334 l 1,20,-1
 347 0 l 1,21,-1
 247 0 l 1,22,-1
 83 429 l 1,23,-1
 3 455 l 1,24,-1
 3 499 l 1,0,-1
EndSplineSet
EndChar

StartChar: x
Encoding: 120 120 91
Width: 620
GlyphClass: 2
Flags: W
LayerCount: 2
Fore
SplineSet
596 -2 m 1,0,-1
 346 -2 l 1,1,-1
 346 42 l 1,2,-1
 414 66 l 1,3,-1
 305 206 l 1,4,-1
 206 66 l 1,5,-1
 274 42 l 1,6,-1
 274 -2 l 1,7,-1
 24 -2 l 1,8,-1
 24 42 l 1,9,-1
 104 68 l 1,10,-1
 249 247 l 1,11,-1
 104 428 l 1,12,-1
 24 454 l 1,13,-1
 24 498 l 1,14,-1
 274 498 l 1,15,-1
 274 454 l 1,16,-1
 206 430 l 1,17,-1
 308 293 l 1,18,-1
 414 430 l 1,19,-1
 346 454 l 1,20,-1
 346 498 l 1,21,-1
 596 498 l 1,22,-1
 596 454 l 1,23,-1
 516 428 l 1,24,-1
 364 242 l 1,25,-1
 516 68 l 1,26,-1
 596 42 l 1,27,-1
 596 -2 l 1,0,-1
EndSplineSet
EndChar

StartChar: y
Encoding: 121 121 92
Width: 628
GlyphClass: 2
Flags: W
LayerCount: 2
Fore
SplineSet
-1 499 m 1,0,-1
 259 499 l 1,1,-1
 259 455 l 1,2,-1
 191 431 l 1,3,-1
 321 102 l 1,4,-1
 441 431 l 1,5,-1
 373 455 l 1,6,-1
 373 499 l 1,7,-1
 623 499 l 1,8,-1
 623 455 l 1,9,-1
 543 429 l 1,10,-1
 319 -106 l 2,11,12
 287 -182 287 -182 239.5 -227 c 128,-1,13
 192 -272 192 -272 113 -272 c 0,14,15
 77 -272 77 -272 49.5 -261 c 128,-1,16
 22 -250 22 -250 13 -240 c 2,17,-1
 4 -229 l 1,18,-1
 31 -174 l 1,19,20
 61 -190 61 -190 113 -190 c 0,21,22
 203 -190 203 -190 251 -62 c 2,23,-1
 274 -1 l 1,24,-1
 79 429 l 1,25,-1
 -1 455 l 1,26,-1
 -1 499 l 1,0,-1
EndSplineSet
EndChar

StartChar: z
Encoding: 122 122 93
Width: 520
GlyphClass: 2
Flags: W
LayerCount: 2
Fore
SplineSet
472 0 m 1,0,-1
 47 0 l 1,1,-1
 47 68 l 1,2,-1
 353 419 l 1,3,-1
 132 419 l 1,4,-1
 113 361 l 1,5,-1
 56 361 l 1,6,-1
 56 498 l 1,7,-1
 458 498 l 1,8,-1
 458 419 l 1,9,-1
 167 82 l 1,10,-1
 401 82 l 1,11,-1
 420 142 l 1,12,-1
 472 142 l 1,13,-1
 472 0 l 1,0,-1
EndSplineSet
EndChar

StartChar: braceleft
Encoding: 123 123 94
Width: 334
GlyphClass: 2
Flags: W
LayerCount: 2
Fore
SplineSet
294 -195 m 1,0,-1
 294 -272 l 1,1,2
 214 -272 214 -272 161.5 -231.5 c 128,-1,3
 109 -191 109 -191 109 -96 c 2,4,-1
 109 138 l 2,5,6
 109 171 109 171 90 188 c 128,-1,7
 71 205 71 205 45 205 c 2,8,-1
 35 205 l 1,9,-1
 35 277 l 1,10,-1
 45 277 l 2,11,12
 71 277 71 277 90 294 c 128,-1,13
 109 311 109 311 109 344 c 2,14,-1
 109 596 l 2,15,16
 109 697 109 697 167 736 c 0,17,18
 219 772 219 772 294 772 c 1,19,-1
 294 696 l 1,20,21
 192 696 192 696 192 584 c 2,22,-1
 192 325 l 2,23,24
 192 296 192 296 182 276 c 0,25,26
 166 246 166 246 144 241 c 1,27,28
 163 238 163 238 177.5 211 c 128,-1,29
 192 184 192 184 192 157 c 2,30,-1
 192 -83 l 2,31,32
 192 -195 192 -195 294 -195 c 1,0,-1
EndSplineSet
EndChar

StartChar: bar
Encoding: 124 124 95
Width: 281
GlyphClass: 2
Flags: W
LayerCount: 2
Fore
SplineSet
182 -279 m 1,0,-1
 99 -279 l 1,1,-1
 99 772 l 1,2,-1
 182 772 l 1,3,-1
 182 -279 l 1,0,-1
EndSplineSet
EndChar

StartChar: braceright
Encoding: 125 125 96
Width: 334
GlyphClass: 2
Flags: W
LayerCount: 2
Fore
SplineSet
225 138 m 2,0,-1
 225 -96 l 2,1,2
 225 -191 225 -191 172.5 -231.5 c 128,-1,3
 120 -272 120 -272 40 -272 c 1,4,-1
 40 -195 l 1,5,6
 142 -195 142 -195 142 -83 c 2,7,-1
 142 157 l 2,8,9
 142 184 142 184 152 204 c 0,10,11
 169 238 169 238 190 241 c 1,12,13
 168 246 168 246 155 271 c 128,-1,14
 142 296 142 296 142 325 c 2,15,-1
 142 584 l 2,16,17
 142 696 142 696 40 696 c 1,18,-1
 40 772 l 1,19,20
 115 772 115 772 167 736 c 0,21,22
 225 697 225 697 225 596 c 2,23,-1
 225 344 l 2,24,25
 225 311 225 311 244 294 c 128,-1,26
 263 277 263 277 289 277 c 2,27,-1
 299 277 l 1,28,-1
 299 205 l 1,29,-1
 289 205 l 2,30,31
 263 205 263 205 244 188 c 128,-1,32
 225 171 225 171 225 138 c 2,0,-1
EndSplineSet
EndChar

StartChar: asciitilde
Encoding: 126 126 97
Width: 506
GlyphClass: 2
Flags: W
LayerCount: 2
Fore
SplineSet
378 332 m 128,-1,1
 345 311 345 311 316.5 311 c 128,-1,2
 288 311 288 311 244.5 337 c 128,-1,3
 201 363 201 363 184 363 c 0,4,5
 153 363 153 363 114 329 c 1,6,-1
 102 318 l 1,7,-1
 65 358 l 1,8,9
 63 358 63 358 81 380 c 128,-1,10
 99 402 99 402 131.5 423.5 c 128,-1,11
 164 445 164 445 192.5 445 c 128,-1,12
 221 445 221 445 264.5 419 c 128,-1,13
 308 393 308 393 326 393 c 0,14,15
 356 393 356 393 394 427 c 1,16,-1
 407 438 l 1,17,-1
 447 396 l 1,18,19
 449 396 449 396 430 374.5 c 128,-1,0
 411 353 411 353 378 332 c 128,-1,1
EndSplineSet
EndChar

StartChar: exclamdown
Encoding: 161 161 98
Width: 280
GlyphClass: 2
Flags: W
LayerCount: 2
Fore
SplineSet
173 285 m 1,0,-1
 199 -267 l 1,1,-1
 85 -267 l 1,2,-1
 106 285 l 1,3,-1
 173 285 l 1,0,-1
178 492.5 m 128,-1,5
 197 474 197 474 197 447.5 c 128,-1,6
 197 421 197 421 178.5 403.5 c 128,-1,7
 160 386 160 386 133 386 c 128,-1,8
 106 386 106 386 89 404.5 c 128,-1,9
 72 423 72 423 72 449 c 128,-1,10
 72 475 72 475 89 493 c 128,-1,11
 106 511 106 511 132.5 511 c 128,-1,4
 159 511 159 511 178 492.5 c 128,-1,5
EndSplineSet
EndChar

StartChar: cent
Encoding: 162 162 99
Width: 525
GlyphClass: 2
Flags: W
LayerCount: 2
Fore
SplineSet
327 -90 m 1,0,-1
 244 -90 l 1,1,-1
 244 -6 l 1,2,3
 159 8 159 8 106.5 71.5 c 128,-1,4
 54 135 54 135 54 240 c 128,-1,5
 54 345 54 345 108 409.5 c 128,-1,6
 162 474 162 474 244 498 c 1,7,-1
 244 606 l 1,8,-1
 327 606 l 1,9,-1
 327 512 l 1,10,-1
 336 512 l 2,11,12
 368 512 368 512 399 504 c 128,-1,13
 430 496 430 496 445 488 c 2,14,-1
 460 479 l 1,15,-1
 432 404 l 1,16,17
 405 433 405 433 336 433 c 2,18,-1
 327 433 l 1,19,-1
 327 68 l 1,20,21
 402 70 402 70 442 86 c 1,22,-1
 456 92 l 1,23,-1
 483 50 l 1,24,25
 461 31 461 31 416 13.5 c 128,-1,26
 371 -4 371 -4 327 -8 c 1,27,-1
 327 -90 l 1,0,-1
176 347.5 m 128,-1,29
 151 304 151 304 151 246.5 c 128,-1,30
 151 189 151 189 175.5 145 c 128,-1,31
 200 101 200 101 244 81 c 1,32,-1
 244 411 l 1,33,28
 201 391 201 391 176 347.5 c 128,-1,29
EndSplineSet
EndChar

StartChar: sterling
Encoding: 163 163 100
Width: 501
GlyphClass: 2
Flags: W
LayerCount: 2
Fore
SplineSet
232 177 m 2,0,1
 232 109 232 109 219 90 c 1,2,3
 237 90 237 90 269.5 80.5 c 128,-1,4
 302 71 302 71 329 71 c 128,-1,5
 356 71 356 71 379.5 80.5 c 128,-1,6
 403 90 403 90 412 100 c 2,7,-1
 420 109 l 1,8,-1
 456 45 l 1,9,10
 450 39 450 39 439 29.5 c 128,-1,11
 428 20 428 20 393 4.5 c 128,-1,12
 358 -11 358 -11 328 -11 c 128,-1,13
 298 -11 298 -11 248.5 4 c 128,-1,14
 199 19 199 19 172 19 c 0,15,16
 115 19 115 19 68 5 c 2,17,-1
 52 0 l 1,18,-1
 52 43 l 1,19,20
 55 44 55 44 61 45.5 c 128,-1,21
 67 47 67 47 81.5 57 c 128,-1,22
 96 67 96 67 107 82 c 0,23,24
 136 120 136 120 136 190 c 2,25,-1
 136 419 l 1,26,-1
 58 419 l 1,27,-1
 58 479 l 1,28,-1
 136 511 l 1,29,-1
 136 571 l 2,30,31
 136 670 136 670 186.5 721.5 c 128,-1,32
 237 773 237 773 329 773 c 0,33,34
 365 773 365 773 395.5 762.5 c 128,-1,35
 426 752 426 752 438 741 c 2,36,-1
 451 730 l 1,37,-1
 424 678 l 1,38,39
 396 694 396 694 340.5 694 c 128,-1,40
 285 694 285 694 258.5 661.5 c 128,-1,41
 232 629 232 629 232 543 c 2,42,-1
 232 500 l 1,43,-1
 393 500 l 1,44,-1
 393 419 l 1,45,-1
 232 419 l 1,46,-1
 232 177 l 2,0,1
EndSplineSet
EndChar

StartChar: currency
Encoding: 164 164 101
Width: 585
GlyphClass: 2
Flags: W
LayerCount: 2
Fore
SplineSet
400 142 m 1,0,1
 353 112 353 112 294 112 c 128,-1,2
 235 112 235 112 186 144 c 1,3,-1
 120 78 l 1,4,-1
 60 138 l 1,5,-1
 126 204 l 1,6,7
 95 252 95 252 95 309 c 128,-1,8
 95 366 95 366 124 416 c 1,9,-1
 59 481 l 1,10,-1
 122 544 l 1,11,-1
 186 479 l 1,12,13
 235 512 235 512 293.5 512 c 128,-1,14
 352 512 352 512 402 480 c 1,15,-1
 465 543 l 1,16,-1
 525 483 l 1,17,-1
 463 420 l 1,18,19
 495 370 495 370 495 311.5 c 128,-1,20
 495 253 495 253 461 201 c 1,21,-1
 525 138 l 1,22,-1
 465 78 l 1,23,-1
 400 142 l 1,0,1
372.5 234 m 128,-1,25
 405 266 405 266 405 311.5 c 128,-1,26
 405 357 405 357 372.5 389.5 c 128,-1,27
 340 422 340 422 294.5 422 c 128,-1,28
 249 422 249 422 217 389.5 c 128,-1,29
 185 357 185 357 185 311.5 c 128,-1,30
 185 266 185 266 217 234 c 128,-1,31
 249 202 249 202 294.5 202 c 128,-1,24
 340 202 340 202 372.5 234 c 128,-1,25
EndSplineSet
EndChar

StartChar: yen
Encoding: 165 165 102
Width: 726
GlyphClass: 2
Flags: W
LayerCount: 2
Fore
SplineSet
522 0 m 1,0,-1
 239 0 l 1,1,-1
 239 44 l 1,2,-1
 330 77 l 1,3,-1
 330 161 l 1,4,-1
 191 161 l 1,5,-1
 191 232 l 1,6,-1
 330 232 l 1,7,-1
 330 247 l 1,8,-1
 281 332 l 1,9,-1
 156 332 l 1,10,-1
 156 403 l 1,11,-1
 240 403 l 1,12,-1
 115 621 l 1,13,-1
 33 656 l 1,14,-1
 33 706 l 1,15,-1
 310 706 l 1,16,-1
 310 649 l 1,17,-1
 223 639 l 1,18,-1
 383 351 l 1,19,-1
 515 624 l 1,20,-1
 432 649 l 1,21,-1
 432 706 l 1,22,-1
 691 706 l 1,23,-1
 691 649 l 1,24,-1
 611 626 l 1,25,-1
 496 403 l 1,26,-1
 585 403 l 1,27,-1
 585 332 l 1,28,-1
 460 332 l 1,29,-1
 431 276 l 1,30,-1
 431 232 l 1,31,-1
 559 232 l 1,32,-1
 559 161 l 1,33,-1
 431 161 l 1,34,-1
 431 77 l 1,35,-1
 522 44 l 1,36,-1
 522 0 l 1,0,-1
EndSplineSet
EndChar

StartChar: brokenbar
Encoding: 166 166 103
Width: 285
GlyphClass: 2
Flags: W
LayerCount: 2
Fore
SplineSet
184 -279 m 1,0,-1
 101 -279 l 1,1,-1
 101 180 l 1,2,-1
 184 180 l 1,3,-1
 184 -279 l 1,0,-1
184 369 m 1,4,-1
 101 369 l 1,5,-1
 101 772 l 1,6,-1
 184 772 l 1,7,-1
 184 369 l 1,4,-1
EndSplineSet
EndChar

StartChar: section
Encoding: 167 167 104
Width: 565
GlyphClass: 2
Flags: W
LayerCount: 2
Fore
SplineSet
502 187 m 0,0,1
 502 116 502 116 463 66 c 1,2,3
 502 14 502 14 502 -55 c 0,4,5
 502 -143 502 -143 443 -198 c 128,-1,6
 384 -253 384 -253 272 -253 c 0,7,8
 221 -253 221 -253 171 -240 c 0,9,10
 98 -220 98 -220 66 -195 c 1,11,-1
 66 -52 l 1,12,-1
 126 -52 l 1,13,-1
 154 -145 l 1,14,15
 193 -176 193 -176 281 -176 c 0,16,17
 338 -176 338 -176 372.5 -146 c 128,-1,18
 407 -116 407 -116 407 -70.5 c 128,-1,19
 407 -25 407 -25 369.5 15.5 c 128,-1,20
 332 56 332 56 240 90 c 0,21,22
 69 155 69 155 69 272 c 0,23,24
 69 354 69 354 116 406 c 1,25,26
 69 453 69 453 69 514 c 0,27,28
 69 612 69 612 131 663.5 c 128,-1,29
 193 715 193 715 283 715 c 0,30,31
 393 715 393 715 472 678 c 0,32,33
 480 674 480 674 488 669 c 1,34,-1
 488 532 l 1,35,-1
 429 530 l 1,36,-1
 406 611 l 1,37,38
 365 632 365 632 300 632 c 0,39,40
 164 632 164 632 164 546 c 0,41,42
 164 498 164 498 200.5 466.5 c 128,-1,43
 237 435 237 435 314 407 c 0,44,45
 502 338 502 338 502 187 c 0,0,1
164 304 m 0,46,47
 164 256 164 256 200.5 224.5 c 128,-1,48
 237 193 237 193 300.5 169.5 c 128,-1,49
 364 146 364 146 397 125 c 1,50,51
 407 145 407 145 407 165 c 0,52,53
 407 217 407 217 369.5 257.5 c 128,-1,54
 332 298 332 298 228 337 c 0,55,56
 204 346 204 346 184 356 c 1,57,58
 164 336 164 336 164 304 c 0,46,47
EndSplineSet
EndChar

StartChar: dieresis
Encoding: 168 168 105
Width: 437
GlyphClass: 2
Flags: W
LayerCount: 2
Fore
SplineSet
171 637 m 128,-1,1
 171 612 171 612 153.5 594.5 c 128,-1,2
 136 577 136 577 110 577 c 128,-1,3
 84 577 84 577 67 594.5 c 128,-1,4
 50 612 50 612 50 637.5 c 128,-1,5
 50 663 50 663 67.5 680.5 c 128,-1,6
 85 698 85 698 110.5 698 c 128,-1,7
 136 698 136 698 153.5 680 c 128,-1,0
 171 662 171 662 171 637 c 128,-1,1
387 637 m 128,-1,9
 387 612 387 612 369.5 594.5 c 128,-1,10
 352 577 352 577 326 577 c 128,-1,11
 300 577 300 577 283 594.5 c 128,-1,12
 266 612 266 612 266 637.5 c 128,-1,13
 266 663 266 663 283.5 680.5 c 128,-1,14
 301 698 301 698 326.5 698 c 128,-1,15
 352 698 352 698 369.5 680 c 128,-1,8
 387 662 387 662 387 637 c 128,-1,9
EndSplineSet
EndChar

StartChar: copyright
Encoding: 169 169 106
Width: 762
GlyphClass: 2
Flags: W
LayerCount: 2
Fore
SplineSet
705 348 m 128,-1,1
 705 217 705 217 608.5 120.5 c 128,-1,2
 512 24 512 24 381 24 c 128,-1,3
 250 24 250 24 153.5 120.5 c 128,-1,4
 57 217 57 217 57 348 c 128,-1,5
 57 479 57 479 153.5 575.5 c 128,-1,6
 250 672 250 672 381 672 c 128,-1,7
 512 672 512 672 608.5 575.5 c 128,-1,0
 705 479 705 479 705 348 c 128,-1,1
381 88 m 128,-1,9
 489 88 489 88 565 164 c 128,-1,10
 641 240 641 240 641 348 c 128,-1,11
 641 456 641 456 565 532 c 128,-1,12
 489 608 489 608 381 608 c 128,-1,13
 273 608 273 608 197 532 c 128,-1,14
 121 456 121 456 121 348 c 128,-1,15
 121 240 121 240 197 164 c 128,-1,8
 273 88 273 88 381 88 c 128,-1,9
385 171 m 0,16,17
 314 171 314 171 262 217 c 128,-1,18
 210 263 210 263 210 348.5 c 128,-1,19
 210 434 210 434 265 484 c 128,-1,20
 320 534 320 534 394 534 c 0,21,22
 413 534 413 534 425 531 c 2,23,-1
 444 526 l 2,24,25
 451 524 451 524 457.5 521 c 128,-1,26
 464 518 464 518 469.5 515.5 c 128,-1,27
 475 513 475 513 479 511 c 128,-1,28
 483 509 483 509 492 503 c 1,29,-1
 492 436 l 1,30,-1
 446 436 l 1,31,-1
 437 471 l 1,32,33
 427 482 427 482 395 482 c 0,34,35
 340 482 340 482 309 444 c 128,-1,36
 278 406 278 406 278 349.5 c 128,-1,37
 278 293 278 293 310.5 259.5 c 128,-1,38
 343 226 343 226 392 226 c 0,39,40
 438 226 438 226 471 246 c 1,41,-1
 482 252 l 1,42,-1
 510 210 l 1,43,44
 491 195 491 195 456 183 c 128,-1,45
 421 171 421 171 385 171 c 0,16,17
EndSplineSet
EndChar

StartChar: ordfeminine
Encoding: 170 170 107
Width: 394
GlyphClass: 2
Flags: W
LayerCount: 2
Fore
SplineSet
332 481 m 1,0,-1
 332 438 l 1,1,2
 311 428 311 428 286 428 c 0,3,4
 238 428 238 428 235 466 c 1,5,6
 206 428 206 428 157 428 c 128,-1,7
 108 428 108 428 83.5 447.5 c 128,-1,8
 59 467 59 467 59 503 c 0,9,10
 59 576 59 576 159 587 c 2,11,-1
 234 596 l 1,12,-1
 234 607 l 2,13,14
 234 633 234 633 222 646.5 c 128,-1,15
 210 660 210 660 183 660 c 0,16,17
 133 660 133 660 102 648 c 2,18,-1
 91 644 l 1,19,-1
 81 692 l 1,20,21
 124 715 124 715 183 715 c 0,22,23
 296 715 296 715 296 626 c 2,24,-1
 296 481 l 1,25,-1
 332 481 l 1,0,-1
162 544 m 2,26,27
 127 539 127 539 127 512.5 c 128,-1,28
 127 486 127 486 165 486 c 128,-1,29
 203 486 203 486 234 508 c 1,30,-1
 234 553 l 1,31,-1
 162 544 l 2,26,27
EndSplineSet
EndChar

StartChar: guillemotleft
Encoding: 171 171 108
Width: 608
GlyphClass: 2
Flags: W
LayerCount: 2
Fore
SplineSet
282 -21 m 1,0,-1
 47 208 l 1,1,-1
 47 289 l 1,2,-1
 282 518 l 1,3,-1
 282 407 l 1,4,-1
 128 248 l 1,5,-1
 282 90 l 1,6,-1
 282 -21 l 1,0,-1
545 -21 m 1,7,-1
 310 208 l 1,8,-1
 310 289 l 1,9,-1
 545 518 l 1,10,-1
 545 407 l 1,11,-1
 391 248 l 1,12,-1
 545 90 l 1,13,-1
 545 -21 l 1,7,-1
EndSplineSet
EndChar

StartChar: logicalnot
Encoding: 172 172 109
Width: 548
GlyphClass: 2
Flags: W
LayerCount: 2
Fore
SplineSet
466 217 m 1,0,-1
 395 217 l 1,1,-1
 395 380 l 1,2,-1
 69 380 l 1,3,-1
 69 451 l 1,4,-1
 466 451 l 1,5,-1
 466 217 l 1,0,-1
EndSplineSet
EndChar

StartChar: uni00AD
Encoding: 173 173 110
Width: 336
GlyphClass: 2
Flags: W
LayerCount: 2
Fore
SplineSet
263 235 m 1,0,-1
 73 235 l 1,1,-1
 73 298 l 1,2,-1
 263 298 l 1,3,-1
 263 235 l 1,0,-1
EndSplineSet
EndChar

StartChar: registered
Encoding: 174 174 111
Width: 762
GlyphClass: 2
Flags: W
LayerCount: 2
Fore
SplineSet
705 348 m 128,-1,1
 705 217 705 217 608.5 120.5 c 128,-1,2
 512 24 512 24 381 24 c 128,-1,3
 250 24 250 24 153.5 120.5 c 128,-1,4
 57 217 57 217 57 348 c 128,-1,5
 57 479 57 479 153.5 575.5 c 128,-1,6
 250 672 250 672 381 672 c 128,-1,7
 512 672 512 672 608.5 575.5 c 128,-1,0
 705 479 705 479 705 348 c 128,-1,1
381 88 m 128,-1,9
 489 88 489 88 565 164 c 128,-1,10
 641 240 641 240 641 348 c 128,-1,11
 641 456 641 456 565 532 c 128,-1,12
 489 608 489 608 381 608 c 128,-1,13
 273 608 273 608 197 532 c 128,-1,14
 121 456 121 456 121 348 c 128,-1,15
 121 240 121 240 197 164 c 128,-1,8
 273 88 273 88 381 88 c 128,-1,9
553 176 m 1,16,-1
 412 176 l 1,17,-1
 412 210 l 1,18,-1
 444 223 l 1,19,-1
 377 321 l 1,20,-1
 334 321 l 1,21,-1
 334 225 l 1,22,-1
 370 208 l 1,23,-1
 370 176 l 1,24,-1
 228 176 l 1,25,-1
 228 208 l 1,26,-1
 274 225 l 1,27,-1
 274 481 l 1,28,-1
 228 497 l 1,29,-1
 228 529 l 1,30,-1
 384 529 l 2,31,32
 435 529 435 529 468 503 c 128,-1,33
 501 477 501 477 501 424 c 0,34,35
 501 353 501 353 435 330 c 1,36,-1
 508 227 l 1,37,-1
 553 210 l 1,38,-1
 553 176 l 1,16,-1
335 372 m 1,39,-1
 383 372 l 2,40,41
 408 372 408 372 425 385.5 c 128,-1,42
 442 399 442 399 442 425 c 128,-1,43
 442 451 442 451 418.5 463.5 c 128,-1,44
 395 476 395 476 361 476 c 2,45,-1
 335 476 l 1,46,-1
 335 372 l 1,39,-1
EndSplineSet
EndChar

StartChar: degree
Encoding: 176 176 112
Width: 363
GlyphClass: 2
Flags: W
LayerCount: 2
Fore
SplineSet
307 587 m 128,-1,1
 307 535 307 535 270 498.5 c 128,-1,2
 233 462 233 462 181 462 c 128,-1,3
 129 462 129 462 93 498.5 c 128,-1,4
 57 535 57 535 57 587 c 128,-1,5
 57 639 57 639 93 676 c 128,-1,6
 129 713 129 713 181 713 c 128,-1,7
 233 713 233 713 270 676 c 128,-1,0
 307 639 307 639 307 587 c 128,-1,1
258 587 m 128,-1,9
 258 619 258 619 235.5 641.5 c 128,-1,10
 213 664 213 664 181.5 664 c 128,-1,11
 150 664 150 664 128 641.5 c 128,-1,12
 106 619 106 619 106 587 c 128,-1,13
 106 555 106 555 128 533 c 128,-1,14
 150 511 150 511 181.5 511 c 128,-1,15
 213 511 213 511 235.5 533 c 128,-1,8
 258 555 258 555 258 587 c 128,-1,9
EndSplineSet
EndChar

StartChar: plusminus
Encoding: 177 177 113
Width: 551
GlyphClass: 2
Flags: W
LayerCount: 2
Fore
SplineSet
474 355 m 1,0,-1
 311 355 l 1,1,-1
 311 192 l 1,2,-1
 240 192 l 1,3,-1
 240 355 l 1,4,-1
 77 355 l 1,5,-1
 77 426 l 1,6,-1
 240 426 l 1,7,-1
 240 589 l 1,8,-1
 311 589 l 1,9,-1
 311 426 l 1,10,-1
 474 426 l 1,11,-1
 474 355 l 1,0,-1
474 62 m 1,12,-1
 77 62 l 1,13,-1
 77 133 l 1,14,-1
 474 133 l 1,15,-1
 474 62 l 1,12,-1
EndSplineSet
EndChar

StartChar: twosuperior
Encoding: 178 178 114
Width: 423
GlyphClass: 2
Flags: W
LayerCount: 2
Fore
SplineSet
348 320 m 1,0,-1
 77 320 l 1,1,-1
 77 375 l 1,2,3
 96 384 96 384 135 413.5 c 128,-1,4
 174 443 174 443 198.5 466.5 c 128,-1,5
 223 490 223 490 243 521.5 c 128,-1,6
 263 553 263 553 263 581 c 128,-1,7
 263 609 263 609 245.5 626.5 c 128,-1,8
 228 644 228 644 203 644 c 0,9,10
 159 644 159 644 144 630 c 1,11,-1
 139 626 l 1,12,-1
 128 577 l 1,13,-1
 76 577 l 1,14,-1
 76 657 l 1,15,16
 79 663 79 663 87 672.5 c 128,-1,17
 95 682 95 682 125.5 697.5 c 128,-1,18
 156 713 156 713 195 713 c 0,19,20
 265 713 265 713 306 676.5 c 128,-1,21
 347 640 347 640 347 580 c 0,22,23
 347 547 347 547 325.5 510 c 128,-1,24
 304 473 304 473 274 445 c 0,25,26
 212 388 212 388 179 372 c 1,27,-1
 282 372 l 1,28,-1
 300 423 l 1,29,-1
 348 423 l 1,30,-1
 348 320 l 1,0,-1
EndSplineSet
EndChar

StartChar: threesuperior
Encoding: 179 179 115
Width: 422
GlyphClass: 2
Flags: W
LayerCount: 2
Fore
SplineSet
68 454 m 1,0,-1
 120 454 l 1,1,-1
 131 405 l 1,2,3
 142 387 142 387 206 387 c 0,4,5
 240 387 240 387 261 401.5 c 128,-1,6
 282 416 282 416 282 440 c 0,7,8
 282 490 282 490 161 490 c 1,9,-1
 161 540 l 1,10,11
 210 540 210 540 234.5 554 c 128,-1,12
 259 568 259 568 259 602 c 0,13,14
 259 622 259 622 244.5 634.5 c 128,-1,15
 230 647 230 647 205 647 c 128,-1,16
 180 647 180 647 163 642.5 c 128,-1,17
 146 638 146 638 138 629 c 1,18,-1
 127 580 l 1,19,-1
 73 580 l 1,20,-1
 73 660 l 1,21,22
 77 666 77 666 85 675.5 c 128,-1,23
 93 685 93 685 127 700.5 c 128,-1,24
 161 716 161 716 215 716 c 128,-1,25
 269 716 269 716 306 685 c 128,-1,26
 343 654 343 654 343 602 c 0,27,28
 343 578 343 578 329 559 c 0,29,30
 310 533 310 533 288 525 c 1,31,32
 338 513 338 513 358 474 c 0,33,34
 366 458 366 458 366 440 c 0,35,36
 366 385 366 385 322.5 351.5 c 128,-1,37
 279 318 279 318 205 318 c 0,38,39
 159 318 159 318 125 332 c 128,-1,40
 91 346 91 346 80 360 c 1,41,-1
 68 373 l 1,42,-1
 68 454 l 1,0,-1
EndSplineSet
EndChar

StartChar: acute
Encoding: 180 180 116
Width: 318
GlyphClass: 2
Flags: W
LayerCount: 2
Fore
SplineSet
139 595 m 1,0,-1
 50 595 l 1,1,-1
 151 784 l 1,2,-1
 268 784 l 1,3,-1
 139 595 l 1,0,-1
EndSplineSet
EndChar

StartChar: mu
Encoding: 181 181 117
AltUni2: 0003bc.ffffffff.0
Width: 573
GlyphClass: 2
Flags: W
LayerCount: 2
Fore
SplineSet
514 0 m 1,0,-1
 420 0 l 1,1,-1
 420 70 l 1,2,3
 407 55 407 55 390 40 c 128,-1,4
 373 25 373 25 333.5 7 c 128,-1,5
 294 -11 294 -11 255 -11 c 128,-1,6
 216 -11 216 -11 189 -2 c 1,7,-1
 189 -273 l 1,8,-1
 95 -273 l 1,9,-1
 95 500 l 1,10,-1
 189 500 l 1,11,-1
 189 186 l 2,12,13
 189 127 189 127 208.5 98 c 128,-1,14
 228 69 228 69 279 69 c 0,15,16
 367 69 367 69 420 119 c 1,17,-1
 420 500 l 1,18,-1
 514 500 l 1,19,-1
 514 0 l 1,0,-1
EndSplineSet
EndChar

StartChar: paragraph
Encoding: 182 182 118
Width: 787
GlyphClass: 2
Flags: W
LayerCount: 2
Fore
SplineSet
319 318 m 2,0,-1
 366 318 l 1,1,-1
 366 631 l 1,2,-1
 319 631 l 2,3,4
 136 631 136 631 136 476 c 0,5,6
 136 396 136 396 188.5 357 c 128,-1,7
 241 318 241 318 319 318 c 2,0,-1
654 0 m 1,8,-1
 553 0 l 1,9,-1
 553 631 l 1,10,-1
 468 631 l 1,11,-1
 468 0 l 1,12,-1
 367 0 l 1,13,-1
 367 245 l 1,14,-1
 272 245 l 2,15,16
 172 245 172 245 105 305.5 c 128,-1,17
 38 366 38 366 38 475.5 c 128,-1,18
 38 585 38 585 109 645.5 c 128,-1,19
 180 706 180 706 272 706 c 2,20,-1
 745 706 l 1,21,-1
 745 672 l 1,22,-1
 654 639 l 1,23,-1
 654 0 l 1,8,-1
EndSplineSet
EndChar

StartChar: periodcentered
Encoding: 183 183 119
Width: 262
GlyphClass: 2
Flags: W
LayerCount: 2
Fore
SplineSet
131 328 m 128,-1,1
 106 328 106 328 89 345 c 128,-1,2
 72 362 72 362 72 387 c 128,-1,3
 72 412 72 412 89 429 c 128,-1,4
 106 446 106 446 131 446 c 128,-1,5
 156 446 156 446 173 429 c 128,-1,6
 190 412 190 412 190 387 c 128,-1,7
 190 362 190 362 173 345 c 128,-1,0
 156 328 156 328 131 328 c 128,-1,1
EndSplineSet
EndChar

StartChar: cedilla
Encoding: 184 184 120
Width: 272
GlyphClass: 2
Flags: W
LayerCount: 2
Fore
SplineSet
71 -111 m 1,0,1
 94 -136 94 -136 133 -136 c 128,-1,2
 172 -136 172 -136 172 -102 c 0,3,4
 172 -64 172 -64 100 -64 c 1,5,-1
 126 4 l 1,6,-1
 173 4 l 1,7,-1
 157 -34 l 1,8,9
 184 -35 184 -35 203 -53 c 128,-1,10
 222 -71 222 -71 222 -105.5 c 128,-1,11
 222 -140 222 -140 196.5 -160 c 128,-1,12
 171 -180 171 -180 139 -180 c 0,13,14
 84 -180 84 -180 58 -154 c 2,15,-1
 50 -146 l 1,16,-1
 71 -111 l 1,0,1
EndSplineSet
EndChar

StartChar: onesuperior
Encoding: 185 185 121
Width: 406
GlyphClass: 2
Flags: W
LayerCount: 2
Fore
SplineSet
352 320 m 1,0,-1
 90 320 l 1,1,-1
 90 370 l 1,2,-1
 178 388 l 1,3,-1
 178 616 l 1,4,-1
 98 561 l 1,5,-1
 54 616 l 1,6,-1
 181 708 l 1,7,-1
 264 708 l 1,8,-1
 264 388 l 1,9,-1
 352 370 l 1,10,-1
 352 320 l 1,0,-1
EndSplineSet
EndChar

StartChar: ordmasculine
Encoding: 186 186 122
Width: 412
GlyphClass: 2
Flags: W
LayerCount: 2
Fore
SplineSet
314.5 675.5 m 128,-1,1
 357 636 357 636 357 571.5 c 128,-1,2
 357 507 357 507 314 467.5 c 128,-1,3
 271 428 271 428 206 428 c 128,-1,4
 141 428 141 428 98 467.5 c 128,-1,5
 55 507 55 507 55 571.5 c 128,-1,6
 55 636 55 636 97.5 675.5 c 128,-1,7
 140 715 140 715 206 715 c 128,-1,0
 272 715 272 715 314.5 675.5 c 128,-1,1
206 478 m 128,-1,9
 243 478 243 478 266 503 c 128,-1,10
 289 528 289 528 289 570 c 128,-1,11
 289 612 289 612 265.5 638.5 c 128,-1,12
 242 665 242 665 206 665 c 128,-1,13
 170 665 170 665 146.5 638.5 c 128,-1,14
 123 612 123 612 123 570 c 128,-1,15
 123 528 123 528 146 503 c 128,-1,8
 169 478 169 478 206 478 c 128,-1,9
EndSplineSet
EndChar

StartChar: guillemotright
Encoding: 187 187 123
Width: 608
GlyphClass: 2
Flags: W
LayerCount: 2
Fore
SplineSet
561 289 m 1,0,-1
 561 208 l 1,1,-1
 326 -21 l 1,2,-1
 326 90 l 1,3,-1
 480 248 l 1,4,-1
 326 407 l 1,5,-1
 326 518 l 1,6,-1
 561 289 l 1,0,-1
298 289 m 1,7,-1
 298 208 l 1,8,-1
 63 -21 l 1,9,-1
 63 90 l 1,10,-1
 217 248 l 1,11,-1
 63 407 l 1,12,-1
 63 518 l 1,13,-1
 298 289 l 1,7,-1
EndSplineSet
EndChar

StartChar: onequarter
Encoding: 188 188 124
Width: 856
GlyphClass: 2
Flags: W
LayerCount: 2
Fore
SplineSet
303 -11 m 1,0,-1
 210 -11 l 1,1,-1
 587 715 l 1,2,-1
 680 715 l 1,3,-1
 303 -11 l 1,0,-1
337 320 m 1,4,-1
 75 320 l 1,5,-1
 75 370 l 1,6,-1
 163 388 l 1,7,-1
 163 616 l 1,8,-1
 83 561 l 1,9,-1
 39 616 l 1,10,-1
 166 708 l 1,11,-1
 249 708 l 1,12,-1
 249 388 l 1,13,-1
 337 370 l 1,14,-1
 337 320 l 1,4,-1
820 -1 m 1,15,-1
 558 -1 l 1,16,-1
 558 49 l 1,17,-1
 646 67 l 1,18,-1
 646 123 l 1,19,-1
 485 123 l 1,20,-1
 485 185 l 1,21,-1
 650 387 l 1,22,-1
 732 387 l 1,23,-1
 732 185 l 1,24,-1
 797 185 l 1,25,-1
 797 123 l 1,26,-1
 732 123 l 1,27,-1
 732 67 l 1,28,-1
 820 49 l 1,29,-1
 820 -1 l 1,15,-1
646 185 m 1,30,-1
 646 281 l 1,31,-1
 568 185 l 1,32,-1
 646 185 l 1,30,-1
EndSplineSet
EndChar

StartChar: onehalf
Encoding: 189 189 125
Width: 866
GlyphClass: 2
Flags: W
LayerCount: 2
Fore
SplineSet
301 -11 m 1,0,-1
 208 -11 l 1,1,-1
 585 715 l 1,2,-1
 678 715 l 1,3,-1
 301 -11 l 1,0,-1
335 320 m 1,4,-1
 73 320 l 1,5,-1
 73 370 l 1,6,-1
 161 388 l 1,7,-1
 161 616 l 1,8,-1
 81 561 l 1,9,-1
 37 616 l 1,10,-1
 164 708 l 1,11,-1
 247 708 l 1,12,-1
 247 388 l 1,13,-1
 335 370 l 1,14,-1
 335 320 l 1,4,-1
817 0 m 1,15,-1
 546 0 l 1,16,-1
 546 57 l 1,17,18
 564 66 564 66 603.5 95 c 128,-1,19
 643 124 643 124 667.5 147 c 128,-1,20
 692 170 692 170 712 201.5 c 128,-1,21
 732 233 732 233 732 261 c 128,-1,22
 732 289 732 289 714.5 306.5 c 128,-1,23
 697 324 697 324 672 324 c 0,24,25
 628 324 628 324 613 310 c 1,26,-1
 608 306 l 1,27,-1
 597 257 l 1,28,-1
 545 257 l 1,29,-1
 545 337 l 1,30,31
 548 343 548 343 556 352.5 c 128,-1,32
 564 362 564 362 594.5 377.5 c 128,-1,33
 625 393 625 393 664 393 c 0,34,35
 734 393 734 393 775 356.5 c 128,-1,36
 816 320 816 320 816 260 c 0,37,38
 816 227 816 227 794.5 190 c 128,-1,39
 773 153 773 153 742 125 c 0,40,41
 681 68 681 68 648 52 c 1,42,-1
 751 52 l 1,43,-1
 769 103 l 1,44,-1
 817 103 l 1,45,-1
 817 0 l 1,15,-1
EndSplineSet
EndChar

StartChar: threequarters
Encoding: 190 190 126
Width: 869
GlyphClass: 2
Flags: W
LayerCount: 2
Fore
SplineSet
833 -1 m 1,0,-1
 571 -1 l 1,1,-1
 571 49 l 1,2,-1
 659 67 l 1,3,-1
 659 123 l 1,4,-1
 498 123 l 1,5,-1
 498 185 l 1,6,-1
 663 387 l 1,7,-1
 745 387 l 1,8,-1
 745 185 l 1,9,-1
 810 185 l 1,10,-1
 810 123 l 1,11,-1
 745 123 l 1,12,-1
 745 67 l 1,13,-1
 833 49 l 1,14,-1
 833 -1 l 1,0,-1
316 -11 m 1,15,-1
 223 -11 l 1,16,-1
 600 715 l 1,17,-1
 693 715 l 1,18,-1
 316 -11 l 1,15,-1
52 454 m 1,19,-1
 104 454 l 1,20,-1
 115 405 l 1,21,22
 126 387 126 387 190 387 c 0,23,24
 224 387 224 387 245 401.5 c 128,-1,25
 266 416 266 416 266 440 c 0,26,27
 266 490 266 490 145 490 c 1,28,-1
 145 540 l 1,29,30
 194 540 194 540 218.5 554 c 128,-1,31
 243 568 243 568 243 602 c 0,32,33
 243 622 243 622 228.5 634.5 c 128,-1,34
 214 647 214 647 189 647 c 128,-1,35
 164 647 164 647 147 642.5 c 128,-1,36
 130 638 130 638 122 629 c 1,37,-1
 111 580 l 1,38,-1
 57 580 l 1,39,-1
 57 660 l 1,40,41
 61 666 61 666 69 675.5 c 128,-1,42
 77 685 77 685 111 700.5 c 128,-1,43
 145 716 145 716 199 716 c 128,-1,44
 253 716 253 716 290 685 c 128,-1,45
 327 654 327 654 327 602 c 0,46,47
 327 578 327 578 313 559 c 0,48,49
 294 533 294 533 272 525 c 1,50,51
 322 513 322 513 342 474 c 0,52,53
 350 458 350 458 350 440 c 0,54,55
 350 385 350 385 306.5 351.5 c 128,-1,56
 263 318 263 318 189 318 c 0,57,58
 143 318 143 318 109 332 c 128,-1,59
 75 346 75 346 64 360 c 1,60,-1
 52 373 l 1,61,-1
 52 454 l 1,19,-1
659 185 m 1,62,-1
 659 281 l 1,63,-1
 581 185 l 1,64,-1
 659 185 l 1,62,-1
EndSplineSet
EndChar

StartChar: questiondown
Encoding: 191 191 127
Width: 501
GlyphClass: 2
Flags: W
LayerCount: 2
Fore
SplineSet
466 -80 m 1,0,-1
 466 -182 l 1,1,2
 463 -185 463 -185 458.5 -190.5 c 128,-1,3
 454 -196 454 -196 437 -209.5 c 128,-1,4
 420 -223 420 -223 401 -233 c 0,5,6
 350 -260 350 -260 290 -260 c 0,7,8
 174 -260 174 -260 104.5 -197.5 c 128,-1,9
 35 -135 35 -135 35 -41 c 0,10,11
 35 24 35 24 58.5 77 c 128,-1,12
 82 130 82 130 118 160 c 0,13,14
 192 223 192 223 263 223 c 1,15,-1
 263 325 l 1,16,-1
 358 325 l 1,17,-1
 358 167 l 1,18,19
 252 167 252 167 189 116.5 c 128,-1,20
 126 66 126 66 126 -34 c 0,21,22
 126 -99 126 -99 169.5 -139 c 128,-1,23
 213 -179 213 -179 289 -180 c 0,24,25
 348 -180 348 -180 367 -168 c 1,26,-1
 374 -163 l 1,27,-1
 392 -80 l 1,28,-1
 466 -80 l 1,0,-1
359 405.5 m 128,-1,30
 342 387 342 387 315 387 c 128,-1,31
 288 387 288 387 269.5 404.5 c 128,-1,32
 251 422 251 422 251 448.5 c 128,-1,33
 251 475 251 475 270 493.5 c 128,-1,34
 289 512 289 512 315.5 512 c 128,-1,35
 342 512 342 512 359 494 c 128,-1,36
 376 476 376 476 376 450 c 128,-1,29
 376 424 376 424 359 405.5 c 128,-1,30
EndSplineSet
EndChar

StartChar: Aacute
Encoding: 193 193 129
Width: 745
GlyphClass: 2
Flags: W
LayerCount: 2
Fore
SplineSet
764 0 m 1,0,-1
 492 0 l 1,1,-1
 492 44 l 1,2,-1
 574 77 l 1,3,-1
 503 254 l 1,4,-1
 243 254 l 1,5,-1
 172 77 l 1,6,-1
 252 44 l 1,7,-1
 252 0 l 1,8,-1
 -10 0 l 1,9,-1
 -10 44 l 1,10,-1
 72 77 l 1,11,-1
 318 706 l 1,12,-1
 421 706 l 1,13,-1
 677 77 l 1,14,-1
 764 44 l 1,15,-1
 764 0 l 1,0,-1
477 322 m 1,16,-1
 371 603 l 1,17,-1
 269 322 l 1,18,-1
 477 322 l 1,16,-1
417 801 m 1,19,-1
 328 801 l 1,20,-1
 429 990 l 1,21,-1
 546 990 l 1,22,-1
 417 801 l 1,19,-1
EndSplineSet
EndChar

StartChar: Atilde
Encoding: 195 195 131
Width: 745
GlyphClass: 2
Flags: W
LayerCount: 2
Fore
SplineSet
764 0 m 1,0,-1
 492 0 l 1,1,-1
 492 44 l 1,2,-1
 574 77 l 1,3,-1
 503 254 l 1,4,-1
 243 254 l 1,5,-1
 172 77 l 1,6,-1
 252 44 l 1,7,-1
 252 0 l 1,8,-1
 -10 0 l 1,9,-1
 -10 44 l 1,10,-1
 72 77 l 1,11,-1
 318 706 l 1,12,-1
 421 706 l 1,13,-1
 677 77 l 1,14,-1
 764 44 l 1,15,-1
 764 0 l 1,0,-1
477 322 m 1,16,-1
 371 603 l 1,17,-1
 269 322 l 1,18,-1
 477 322 l 1,16,-1
485 823 m 128,-1,20
 452 802 452 802 423.5 802 c 128,-1,21
 395 802 395 802 351.5 828 c 128,-1,22
 308 854 308 854 290 854 c 0,23,24
 258 854 258 854 222 820 c 1,25,-1
 209 809 l 1,26,-1
 172 849 l 1,27,28
 170 849 170 849 188 870.5 c 128,-1,29
 206 892 206 892 238.5 914 c 128,-1,30
 271 936 271 936 299.5 936 c 128,-1,31
 328 936 328 936 371.5 910 c 128,-1,32
 415 884 415 884 432 884 c 0,33,34
 465 884 465 884 502 918 c 2,35,-1
 514 929 l 1,36,-1
 554 887 l 1,37,38
 556 887 556 887 537 865.5 c 128,-1,19
 518 844 518 844 485 823 c 128,-1,20
EndSplineSet
EndChar

StartChar: Aring
Encoding: 197 197 133
Width: 745
GlyphClass: 2
Flags: W
LayerCount: 2
Fore
SplineSet
764 0 m 1,0,-1
 492 0 l 1,1,-1
 492 44 l 1,2,-1
 574 77 l 1,3,-1
 503 254 l 1,4,-1
 243 254 l 1,5,-1
 172 77 l 1,6,-1
 252 44 l 1,7,-1
 252 0 l 1,8,-1
 -10 0 l 1,9,-1
 -10 44 l 1,10,-1
 72 77 l 1,11,-1
 318 706 l 1,12,-1
 421 706 l 1,13,-1
 677 77 l 1,14,-1
 764 44 l 1,15,-1
 764 0 l 1,0,-1
477 322 m 1,16,-1
 371 603 l 1,17,-1
 269 322 l 1,18,-1
 477 322 l 1,16,-1
375 775 m 128,-1,20
 337 775 337 775 311.5 800.5 c 128,-1,21
 286 826 286 826 286 864 c 128,-1,22
 286 902 286 902 311.5 927.5 c 128,-1,23
 337 953 337 953 375 953 c 128,-1,24
 413 953 413 953 438.5 927.5 c 128,-1,25
 464 902 464 902 464 864 c 128,-1,26
 464 826 464 826 438.5 800.5 c 128,-1,19
 413 775 413 775 375 775 c 128,-1,20
414 864 m 128,-1,28
 414 881 414 881 403 892 c 128,-1,29
 392 903 392 903 374.5 903 c 128,-1,30
 357 903 357 903 346.5 892 c 128,-1,31
 336 881 336 881 336 864 c 128,-1,32
 336 847 336 847 346.5 836 c 128,-1,33
 357 825 357 825 374.5 825 c 128,-1,34
 392 825 392 825 403 836 c 128,-1,27
 414 847 414 847 414 864 c 128,-1,28
EndSplineSet
EndChar

StartChar: AE
Encoding: 198 198 134
Width: 1025
GlyphClass: 2
Flags: W
LayerCount: 2
Fore
SplineSet
965 0 m 1,0,-1
 399 0 l 1,1,-1
 399 44 l 1,2,-1
 490 77 l 1,3,-1
 490 254 l 1,4,-1
 262 254 l 1,5,-1
 155 77 l 1,6,-1
 235 44 l 1,7,-1
 235 0 l 1,8,-1
 -22 0 l 1,9,-1
 -22 44 l 1,10,-1
 60 77 l 1,11,-1
 434 706 l 1,12,-1
 965 706 l 1,13,-1
 965 544 l 1,14,-1
 913 544 l 1,15,-1
 880 630 l 1,16,-1
 591 630 l 1,17,-1
 591 392 l 1,18,-1
 821 392 l 1,19,-1
 840 450 l 1,20,-1
 886 450 l 1,21,-1
 886 253 l 1,22,-1
 840 253 l 1,23,-1
 821 320 l 1,24,-1
 591 320 l 1,25,-1
 591 76 l 1,26,-1
 880 76 l 1,27,-1
 913 162 l 1,28,-1
 965 162 l 1,29,-1
 965 0 l 1,0,-1
490 322 m 1,30,-1
 490 629 l 1,31,-1
 304 322 l 1,32,-1
 490 322 l 1,30,-1
EndSplineSet
EndChar

StartChar: Ccedilla
Encoding: 199 199 135
Width: 669
GlyphClass: 2
Flags: W
LayerCount: 2
Fore
SplineSet
412 716 m 0,0,1
 518 716 518 716 597 673 c 1,2,-1
 597 510 l 1,3,-1
 515 510 l 1,4,-1
 497 614 l 1,5,6
 477 636 477 636 414 636 c 0,7,8
 295 636 295 636 227 553 c 128,-1,9
 159 470 159 470 159 344.5 c 128,-1,10
 159 219 159 219 229.5 144.5 c 128,-1,11
 300 70 300 70 408 70 c 0,12,13
 459 70 459 70 509 85 c 128,-1,14
 559 100 559 100 583 115 c 2,15,-1
 607 130 l 1,16,-1
 643 68 l 1,17,18
 639 65 639 65 632.5 59.5 c 128,-1,19
 626 54 626 54 602.5 41 c 128,-1,20
 579 28 579 28 552 18 c 0,21,22
 486 -9 486 -9 399 -11 c 1,23,-1
 390 -34 l 1,24,25
 417 -35 417 -35 436 -53 c 128,-1,26
 455 -71 455 -71 455 -105.5 c 128,-1,27
 455 -140 455 -140 429.5 -160 c 128,-1,28
 404 -180 404 -180 372 -180 c 0,29,30
 317 -180 317 -180 292 -154 c 1,31,-1
 283 -146 l 1,32,-1
 304 -111 l 1,33,34
 327 -136 327 -136 366 -136 c 128,-1,35
 405 -136 405 -136 405 -102 c 0,36,37
 405 -64 405 -64 333 -64 c 1,38,-1
 354 -9 l 1,39,40
 227 5 227 5 140.5 95.5 c 128,-1,41
 54 186 54 186 54 339 c 0,42,43
 54 429 54 429 84.5 502 c 128,-1,44
 115 575 115 575 166 621 c 0,45,46
 271 716 271 716 412 716 c 0,0,1
EndSplineSet
EndChar

StartChar: Eacute
Encoding: 201 201 137
Width: 677
GlyphClass: 2
Flags: W
LayerCount: 2
Fore
SplineSet
617 0 m 1,0,-1
 51 0 l 1,1,-1
 51 44 l 1,2,-1
 142 77 l 1,3,-1
 142 629 l 1,4,-1
 51 662 l 1,5,-1
 51 706 l 1,6,-1
 617 706 l 1,7,-1
 617 544 l 1,8,-1
 565 544 l 1,9,-1
 532 630 l 1,10,-1
 243 630 l 1,11,-1
 243 392 l 1,12,-1
 473 392 l 1,13,-1
 492 450 l 1,14,-1
 538 450 l 1,15,-1
 538 253 l 1,16,-1
 492 253 l 1,17,-1
 473 320 l 1,18,-1
 243 320 l 1,19,-1
 243 76 l 1,20,-1
 532 76 l 1,21,-1
 565 162 l 1,22,-1
 617 162 l 1,23,-1
 617 0 l 1,0,-1
375 801 m 1,24,-1
 286 801 l 1,25,-1
 387 990 l 1,26,-1
 504 990 l 1,27,-1
 375 801 l 1,24,-1
EndSplineSet
EndChar

StartChar: Edieresis
Encoding: 203 203 139
Width: 677
GlyphClass: 2
Flags: W
LayerCount: 2
Fore
SplineSet
617 0 m 1,0,-1
 51 0 l 1,1,-1
 51 44 l 1,2,-1
 142 77 l 1,3,-1
 142 629 l 1,4,-1
 51 662 l 1,5,-1
 51 706 l 1,6,-1
 617 706 l 1,7,-1
 617 544 l 1,8,-1
 565 544 l 1,9,-1
 532 630 l 1,10,-1
 243 630 l 1,11,-1
 243 392 l 1,12,-1
 473 392 l 1,13,-1
 492 450 l 1,14,-1
 538 450 l 1,15,-1
 538 253 l 1,16,-1
 492 253 l 1,17,-1
 473 320 l 1,18,-1
 243 320 l 1,19,-1
 243 76 l 1,20,-1
 532 76 l 1,21,-1
 565 162 l 1,22,-1
 617 162 l 1,23,-1
 617 0 l 1,0,-1
300 843 m 128,-1,25
 300 818 300 818 282.5 800.5 c 128,-1,26
 265 783 265 783 239.5 783 c 128,-1,27
 214 783 214 783 196.5 800.5 c 128,-1,28
 179 818 179 818 179 843.5 c 128,-1,29
 179 869 179 869 196.5 886.5 c 128,-1,30
 214 904 214 904 239 904 c 128,-1,31
 264 904 264 904 282 886 c 128,-1,24
 300 868 300 868 300 843 c 128,-1,25
516 843 m 128,-1,33
 516 818 516 818 498.5 800.5 c 128,-1,34
 481 783 481 783 455.5 783 c 128,-1,35
 430 783 430 783 412.5 800.5 c 128,-1,36
 395 818 395 818 395 843.5 c 128,-1,37
 395 869 395 869 412.5 886.5 c 128,-1,38
 430 904 430 904 455 904 c 128,-1,39
 480 904 480 904 498 886 c 128,-1,32
 516 868 516 868 516 843 c 128,-1,33
EndSplineSet
EndChar

StartChar: Iacute
Encoding: 205 205 141
Width: 385
GlyphClass: 2
Flags: W
LayerCount: 2
Fore
SplineSet
334 0 m 1,0,-1
 51 0 l 1,1,-1
 51 44 l 1,2,-1
 142 77 l 1,3,-1
 142 629 l 1,4,-1
 51 662 l 1,5,-1
 51 706 l 1,6,-1
 334 706 l 1,7,-1
 334 662 l 1,8,-1
 243 629 l 1,9,-1
 243 77 l 1,10,-1
 334 44 l 1,11,-1
 334 0 l 1,0,-1
224 801 m 1,12,-1
 135 801 l 1,13,-1
 236 990 l 1,14,-1
 353 990 l 1,15,-1
 224 801 l 1,12,-1
EndSplineSet
EndChar

StartChar: Idieresis
Encoding: 207 207 143
Width: 385
GlyphClass: 2
Flags: W
LayerCount: 2
Fore
SplineSet
334 0 m 1,0,-1
 51 0 l 1,1,-1
 51 44 l 1,2,-1
 142 77 l 1,3,-1
 142 629 l 1,4,-1
 51 662 l 1,5,-1
 51 706 l 1,6,-1
 334 706 l 1,7,-1
 334 662 l 1,8,-1
 243 629 l 1,9,-1
 243 77 l 1,10,-1
 334 44 l 1,11,-1
 334 0 l 1,0,-1
141 843 m 128,-1,13
 141 818 141 818 123.5 800.5 c 128,-1,14
 106 783 106 783 80 783 c 128,-1,15
 54 783 54 783 37 800.5 c 128,-1,16
 20 818 20 818 20 843.5 c 128,-1,17
 20 869 20 869 37.5 886.5 c 128,-1,18
 55 904 55 904 80.5 904 c 128,-1,19
 106 904 106 904 123.5 886 c 128,-1,12
 141 868 141 868 141 843 c 128,-1,13
357 843 m 128,-1,21
 357 818 357 818 339.5 800.5 c 128,-1,22
 322 783 322 783 296 783 c 128,-1,23
 270 783 270 783 253 800.5 c 128,-1,24
 236 818 236 818 236 843.5 c 128,-1,25
 236 869 236 869 253.5 886.5 c 128,-1,26
 271 904 271 904 296.5 904 c 128,-1,27
 322 904 322 904 339.5 886 c 128,-1,20
 357 868 357 868 357 843 c 128,-1,21
EndSplineSet
EndChar

StartChar: Eth
Encoding: 208 208 144
Width: 779
GlyphClass: 2
Flags: W
LayerCount: 2
Fore
SplineSet
359 0 m 2,0,-1
 51 0 l 1,1,-1
 51 44 l 1,2,-1
 142 77 l 1,3,-1
 142 629 l 1,4,-1
 51 662 l 1,5,-1
 51 706 l 1,6,-1
 360 706 l 2,7,8
 522 706 522 706 623 610 c 128,-1,9
 724 514 724 514 724 354 c 128,-1,10
 724 194 724 194 622.5 97 c 128,-1,11
 521 0 521 0 359 0 c 2,0,-1
243 74 m 1,12,-1
 371 74 l 2,13,14
 479 74 479 74 548.5 147.5 c 128,-1,15
 618 221 618 221 618 352 c 128,-1,16
 618 483 618 483 548 557.5 c 128,-1,17
 478 632 478 632 371 632 c 2,18,-1
 243 632 l 1,19,-1
 243 375 l 1,20,-1
 406 375 l 1,21,-1
 406 312 l 1,22,-1
 243 312 l 1,23,-1
 243 74 l 1,12,-1
EndSplineSet
EndChar

StartChar: Oacute
Encoding: 211 211 147
Width: 792
GlyphClass: 2
Flags: W
LayerCount: 2
Fore
SplineSet
395 -10 m 128,-1,1
 255 -10 255 -10 154.5 89.5 c 128,-1,2
 54 189 54 189 54 350.5 c 128,-1,3
 54 512 54 512 155 613.5 c 128,-1,4
 256 715 256 715 395 715 c 128,-1,5
 534 715 534 715 636 613.5 c 128,-1,6
 738 512 738 512 738 350.5 c 128,-1,7
 738 189 738 189 636.5 89.5 c 128,-1,0
 535 -10 535 -10 395 -10 c 128,-1,1
225.5 151 m 128,-1,9
 288 70 288 70 395.5 70 c 128,-1,10
 503 70 503 70 565 151 c 128,-1,11
 627 232 627 232 627 350.5 c 128,-1,12
 627 469 627 469 565 551.5 c 128,-1,13
 503 634 503 634 394.5 634 c 128,-1,14
 286 634 286 634 224.5 551.5 c 128,-1,15
 163 469 163 469 163 350.5 c 128,-1,8
 163 232 163 232 225.5 151 c 128,-1,9
420 801 m 1,16,-1
 331 801 l 1,17,-1
 432 990 l 1,18,-1
 549 990 l 1,19,-1
 420 801 l 1,16,-1
EndSplineSet
EndChar

StartChar: Otilde
Encoding: 213 213 149
Width: 792
GlyphClass: 2
Flags: W
LayerCount: 2
Fore
SplineSet
395 -10 m 128,-1,1
 255 -10 255 -10 154.5 89.5 c 128,-1,2
 54 189 54 189 54 350.5 c 128,-1,3
 54 512 54 512 155 613.5 c 128,-1,4
 256 715 256 715 395 715 c 128,-1,5
 534 715 534 715 636 613.5 c 128,-1,6
 738 512 738 512 738 350.5 c 128,-1,7
 738 189 738 189 636.5 89.5 c 128,-1,0
 535 -10 535 -10 395 -10 c 128,-1,1
225.5 151 m 128,-1,9
 288 70 288 70 395.5 70 c 128,-1,10
 503 70 503 70 565 151 c 128,-1,11
 627 232 627 232 627 350.5 c 128,-1,12
 627 469 627 469 565 551.5 c 128,-1,13
 503 634 503 634 394.5 634 c 128,-1,14
 286 634 286 634 224.5 551.5 c 128,-1,15
 163 469 163 469 163 350.5 c 128,-1,8
 163 232 163 232 225.5 151 c 128,-1,9
514 823 m 128,-1,17
 481 802 481 802 452.5 802 c 128,-1,18
 424 802 424 802 380.5 828 c 128,-1,19
 337 854 337 854 320 854 c 0,20,21
 287 854 287 854 250 820 c 2,22,-1
 238 809 l 1,23,-1
 201 849 l 1,24,25
 199 849 199 849 217 870.5 c 128,-1,26
 235 892 235 892 267.5 914 c 128,-1,27
 300 936 300 936 328.5 936 c 128,-1,28
 357 936 357 936 400.5 910 c 128,-1,29
 444 884 444 884 462 884 c 0,30,31
 494 884 494 884 530 918 c 1,32,-1
 543 929 l 1,33,-1
 583 887 l 1,34,35
 585 887 585 887 566 865.5 c 128,-1,16
 547 844 547 844 514 823 c 128,-1,17
EndSplineSet
EndChar

StartChar: multiply
Encoding: 215 215 151
Width: 469
GlyphClass: 2
Flags: W
LayerCount: 2
Fore
SplineSet
350 182 m 1,0,-1
 234 297 l 1,1,-1
 119 182 l 1,2,-1
 69 232 l 1,3,-1
 184 347 l 1,4,-1
 69 463 l 1,5,-1
 119 513 l 1,6,-1
 234 398 l 1,7,-1
 350 513 l 1,8,-1
 400 463 l 1,9,-1
 285 347 l 1,10,-1
 400 232 l 1,11,-1
 350 182 l 1,0,-1
EndSplineSet
EndChar

StartChar: Oslash
Encoding: 216 216 152
Width: 792
GlyphClass: 2
Flags: W
LayerCount: 2
Fore
SplineSet
175 70 m 1,0,1
 54 173 54 173 54 342.5 c 128,-1,2
 54 512 54 512 155 613.5 c 128,-1,3
 256 715 256 715 395 715 c 0,4,5
 465 715 465 715 537 683 c 1,6,-1
 556 715 l 1,7,-1
 649 715 l 1,8,-1
 605 641 l 1,9,10
 667 592 667 592 702.5 517 c 128,-1,11
 738 442 738 442 738 350 c 0,12,13
 738 189 738 189 636.5 89.5 c 128,-1,14
 535 -10 535 -10 395 -10 c 0,15,16
 313 -10 313 -10 242 26 c 1,17,-1
 220 -11 l 1,18,-1
 127 -11 l 1,19,-1
 175 70 l 1,0,1
396 70 m 0,20,21
 506 70 506 70 569 151 c 128,-1,22
 632 232 632 232 632 356.5 c 128,-1,23
 632 481 632 481 559 562 c 1,24,-1
 284 98 l 1,25,26
 334 70 334 70 396 70 c 0,20,21
394 634 m 0,27,28
 283 634 283 634 220.5 551.5 c 128,-1,29
 158 469 158 469 158 349 c 128,-1,30
 158 229 158 229 222 150 c 1,31,-1
 494 611 l 1,32,33
 446 634 446 634 394 634 c 0,27,28
EndSplineSet
EndChar

StartChar: Uacute
Encoding: 218 218 154
Width: 777
GlyphClass: 2
Flags: W
LayerCount: 2
Fore
SplineSet
557 269 m 2,0,-1
 557 629 l 1,1,-1
 466 662 l 1,2,-1
 466 706 l 1,3,-1
 749 706 l 1,4,-1
 749 662 l 1,5,-1
 658 629 l 1,6,-1
 658 281 l 2,7,8
 658 146 658 146 590 67.5 c 128,-1,9
 522 -11 522 -11 388 -11 c 128,-1,10
 254 -11 254 -11 186.5 67 c 128,-1,11
 119 145 119 145 119 281 c 2,12,-1
 119 629 l 1,13,-1
 28 662 l 1,14,-1
 28 706 l 1,15,-1
 311 706 l 1,16,-1
 311 662 l 1,17,-1
 220 629 l 1,18,-1
 220 269 l 2,19,20
 220 175 220 175 264.5 122 c 128,-1,21
 309 69 309 69 388.5 69 c 128,-1,22
 468 69 468 69 512.5 121.5 c 128,-1,23
 557 174 557 174 557 269 c 2,0,-1
421 801 m 1,24,-1
 332 801 l 1,25,-1
 433 990 l 1,26,-1
 550 990 l 1,27,-1
 421 801 l 1,24,-1
EndSplineSet
EndChar

StartChar: Udieresis
Encoding: 220 220 156
Width: 777
GlyphClass: 2
Flags: W
LayerCount: 2
Fore
SplineSet
557 269 m 2,0,-1
 557 629 l 1,1,-1
 466 662 l 1,2,-1
 466 706 l 1,3,-1
 749 706 l 1,4,-1
 749 662 l 1,5,-1
 658 629 l 1,6,-1
 658 281 l 2,7,8
 658 146 658 146 590 67.5 c 128,-1,9
 522 -11 522 -11 388 -11 c 128,-1,10
 254 -11 254 -11 186.5 67 c 128,-1,11
 119 145 119 145 119 281 c 2,12,-1
 119 629 l 1,13,-1
 28 662 l 1,14,-1
 28 706 l 1,15,-1
 311 706 l 1,16,-1
 311 662 l 1,17,-1
 220 629 l 1,18,-1
 220 269 l 2,19,20
 220 175 220 175 264.5 122 c 128,-1,21
 309 69 309 69 388.5 69 c 128,-1,22
 468 69 468 69 512.5 121.5 c 128,-1,23
 557 174 557 174 557 269 c 2,0,-1
346 843 m 128,-1,25
 346 818 346 818 328.5 800.5 c 128,-1,26
 311 783 311 783 285.5 783 c 128,-1,27
 260 783 260 783 242.5 800.5 c 128,-1,28
 225 818 225 818 225 843.5 c 128,-1,29
 225 869 225 869 242.5 886.5 c 128,-1,30
 260 904 260 904 285 904 c 128,-1,31
 310 904 310 904 328 886 c 128,-1,24
 346 868 346 868 346 843 c 128,-1,25
562 843 m 128,-1,33
 562 818 562 818 544.5 800.5 c 128,-1,34
 527 783 527 783 501.5 783 c 128,-1,35
 476 783 476 783 458.5 800.5 c 128,-1,36
 441 818 441 818 441 843.5 c 128,-1,37
 441 869 441 869 458.5 886.5 c 128,-1,38
 476 904 476 904 501 904 c 128,-1,39
 526 904 526 904 544 886 c 128,-1,32
 562 868 562 868 562 843 c 128,-1,33
EndSplineSet
EndChar

StartChar: Thorn
Encoding: 222 222 158
Width: 588
GlyphClass: 2
Flags: W
LayerCount: 2
Fore
SplineSet
311 0 m 1,0,-1
 48 0 l 1,1,-1
 48 43 l 1,2,-1
 133 76 l 1,3,-1
 133 698 l 1,4,-1
 49 698 l 1,5,-1
 49 758 l 1,6,7
 88 777 88 777 139.5 777 c 128,-1,8
 191 777 191 777 209 752.5 c 128,-1,9
 227 728 227 728 227 678 c 2,10,-1
 227 500 l 1,11,-1
 335 500 l 2,12,13
 390 500 390 500 436.5 484 c 128,-1,14
 483 468 483 468 517 425.5 c 128,-1,15
 551 383 551 383 551 319 c 0,16,17
 551 233 551 233 483 186.5 c 128,-1,18
 415 140 415 140 322 140 c 2,19,-1
 227 140 l 1,20,-1
 227 76 l 1,21,-1
 311 43 l 1,22,-1
 311 0 l 1,0,-1
227 208 m 1,23,-1
 322 208 l 2,24,25
 384 208 384 208 419 236.5 c 128,-1,26
 454 265 454 265 454 319.5 c 128,-1,27
 454 374 454 374 418 403 c 128,-1,28
 382 432 382 432 321 432 c 2,29,-1
 227 432 l 1,30,-1
 227 208 l 1,23,-1
EndSplineSet
EndChar

StartChar: germandbls
Encoding: 223 223 159
Width: 672
GlyphClass: 2
Flags: W
LayerCount: 2
Fore
SplineSet
291 -147 m 1,0,-1
 26 -147 l 1,1,-1
 26 -104 l 1,2,-1
 110 -71 l 1,3,-1
 110 419 l 1,4,-1
 32 419 l 1,5,-1
 32 479 l 1,6,-1
 110 511 l 1,7,-1
 110 541 l 2,8,9
 110 653 110 653 167.5 713 c 128,-1,10
 225 773 225 773 320 773 c 128,-1,11
 415 773 415 773 476 722.5 c 128,-1,12
 537 672 537 672 537 603 c 0,13,14
 537 520 537 520 492 472 c 0,15,16
 473 451 473 451 454 434 c 0,17,18
 410 393 410 393 410 358 c 0,19,20
 410 315 410 315 494 277 c 0,21,22
 529 261 529 261 564 243 c 128,-1,23
 599 225 599 225 623.5 197.5 c 128,-1,24
 648 170 648 170 648 136 c 0,25,26
 648 64 648 64 593 26.5 c 128,-1,27
 538 -11 538 -11 454 -11 c 0,28,29
 413 -11 413 -11 378 6 c 128,-1,30
 343 23 343 23 329 40 c 2,31,-1
 315 57 l 1,32,-1
 315 154 l 1,33,-1
 375 154 l 1,34,-1
 396 82 l 1,35,36
 424 68 424 68 466 68 c 0,37,38
 558 68 558 68 558 133 c 0,39,40
 558 169 558 169 476 203 c 0,41,42
 442 217 442 217 408.5 233 c 128,-1,43
 375 249 375 249 351 275.5 c 128,-1,44
 327 302 327 302 327 340 c 128,-1,45
 327 378 327 378 339.5 406.5 c 128,-1,46
 352 435 352 435 369.5 451.5 c 128,-1,47
 387 468 387 468 404 484 c 0,48,49
 446 525 446 525 446 603 c 0,50,51
 446 644 446 644 414.5 670 c 128,-1,52
 383 696 383 696 327 696 c 128,-1,53
 271 696 271 696 238.5 657 c 128,-1,54
 206 618 206 618 206 513 c 2,55,-1
 206 -71 l 1,56,-1
 291 -104 l 1,57,-1
 291 -147 l 1,0,-1
EndSplineSet
EndChar

StartChar: atilde
Encoding: 227 227 163
Width: 562
GlyphClass: 2
Flags: W
LayerCount: 2
Fore
SplineSet
542 68 m 1,0,-1
 542 8 l 1,1,2
 503 -11 503 -11 456 -11 c 128,-1,3
 409 -11 409 -11 388.5 7 c 128,-1,4
 368 25 368 25 365 59 c 1,5,6
 310 -11 310 -11 220.5 -11 c 128,-1,7
 131 -11 131 -11 85 25 c 128,-1,8
 39 61 39 61 39 126 c 0,9,10
 39 251 39 251 213 270 c 2,11,-1
 364 286 l 1,12,-1
 364 315 l 2,13,14
 364 373 364 373 340 403 c 128,-1,15
 316 433 316 433 264 433 c 0,16,17
 168 433 168 433 108 412 c 2,18,-1
 88 405 l 1,19,-1
 70 469 l 1,20,21
 98 485 98 485 155 498.5 c 128,-1,22
 212 512 212 512 261 512 c 0,23,24
 368 512 368 512 413 469.5 c 128,-1,25
 458 427 458 427 458 350 c 2,26,-1
 458 68 l 1,27,-1
 542 68 l 1,0,-1
157.5 182 m 128,-1,29
 135 164 135 164 135 133.5 c 128,-1,30
 135 103 135 103 159.5 85.5 c 128,-1,31
 184 68 184 68 228 68 c 0,32,33
 311 68 311 68 364 113 c 1,34,-1
 364 221 l 1,35,-1
 218 205 l 2,36,28
 180 200 180 200 157.5 182 c 128,-1,29
412 617 m 128,-1,38
 379 596 379 596 350.5 596 c 128,-1,39
 322 596 322 596 278.5 622 c 128,-1,40
 235 648 235 648 218 648 c 0,41,42
 185 648 185 648 148 614 c 2,43,-1
 136 603 l 1,44,-1
 99 643 l 1,45,46
 97 643 97 643 115 664.5 c 128,-1,47
 133 686 133 686 165.5 708 c 128,-1,48
 198 730 198 730 226.5 730 c 128,-1,49
 255 730 255 730 298.5 704 c 128,-1,50
 342 678 342 678 360 678 c 0,51,52
 392 678 392 678 428 712 c 1,53,-1
 441 723 l 1,54,-1
 481 681 l 1,55,56
 483 681 483 681 464 659.5 c 128,-1,37
 445 638 445 638 412 617 c 128,-1,38
EndSplineSet
EndChar

StartChar: adieresis
Encoding: 228 228 164
Width: 562
GlyphClass: 2
Flags: W
LayerCount: 2
Fore
SplineSet
542 68 m 1,0,-1
 542 8 l 1,1,2
 503 -11 503 -11 456 -11 c 128,-1,3
 409 -11 409 -11 388.5 7 c 128,-1,4
 368 25 368 25 365 59 c 1,5,6
 310 -11 310 -11 220.5 -11 c 128,-1,7
 131 -11 131 -11 85 25 c 128,-1,8
 39 61 39 61 39 126 c 0,9,10
 39 251 39 251 213 270 c 2,11,-1
 364 286 l 1,12,-1
 364 315 l 2,13,14
 364 373 364 373 340 403 c 128,-1,15
 316 433 316 433 264 433 c 0,16,17
 168 433 168 433 108 412 c 2,18,-1
 88 405 l 1,19,-1
 70 469 l 1,20,21
 98 485 98 485 155 498.5 c 128,-1,22
 212 512 212 512 261 512 c 0,23,24
 368 512 368 512 413 469.5 c 128,-1,25
 458 427 458 427 458 350 c 2,26,-1
 458 68 l 1,27,-1
 542 68 l 1,0,-1
157.5 182 m 128,-1,29
 135 164 135 164 135 133.5 c 128,-1,30
 135 103 135 103 159.5 85.5 c 128,-1,31
 184 68 184 68 228 68 c 0,32,33
 311 68 311 68 364 113 c 1,34,-1
 364 221 l 1,35,-1
 218 205 l 2,36,28
 180 200 180 200 157.5 182 c 128,-1,29
242 637 m 128,-1,38
 242 612 242 612 224.5 594.5 c 128,-1,39
 207 577 207 577 181.5 577 c 128,-1,40
 156 577 156 577 138.5 594.5 c 128,-1,41
 121 612 121 612 121 637.5 c 128,-1,42
 121 663 121 663 138.5 680.5 c 128,-1,43
 156 698 156 698 181 698 c 128,-1,44
 206 698 206 698 224 680 c 128,-1,37
 242 662 242 662 242 637 c 128,-1,38
458 637 m 128,-1,46
 458 612 458 612 440.5 594.5 c 128,-1,47
 423 577 423 577 397.5 577 c 128,-1,48
 372 577 372 577 354.5 594.5 c 128,-1,49
 337 612 337 612 337 637.5 c 128,-1,50
 337 663 337 663 354.5 680.5 c 128,-1,51
 372 698 372 698 397 698 c 128,-1,52
 422 698 422 698 440 680 c 128,-1,45
 458 662 458 662 458 637 c 128,-1,46
EndSplineSet
EndChar

StartChar: ae
Encoding: 230 230 166
Width: 874
GlyphClass: 2
Flags: W
LayerCount: 2
Fore
SplineSet
620 -10 m 0,0,1
 475 -10 475 -10 409 87 c 1,2,3
 399 70 399 70 379 50.5 c 128,-1,4
 359 31 359 31 313.5 10 c 128,-1,5
 268 -11 268 -11 214 -11 c 0,6,7
 131 -11 131 -11 85 25 c 128,-1,8
 39 61 39 61 39 126 c 0,9,10
 39 251 39 251 213 270 c 2,11,-1
 364 286 l 1,12,-1
 364 315 l 2,13,14
 364 373 364 373 340 403 c 128,-1,15
 316 433 316 433 264 433 c 0,16,17
 168 433 168 433 108 412 c 2,18,-1
 88 405 l 1,19,-1
 70 469 l 1,20,21
 98 485 98 485 155 498.5 c 128,-1,22
 212 512 212 512 261 512 c 0,23,24
 395 512 395 512 437 439 c 1,25,26
 507 512 507 512 606 512 c 0,27,28
 834 512 834 512 834 242 c 1,29,-1
 463 242 l 1,30,-1
 463 237 l 2,31,32
 463 166 463 166 513 117 c 128,-1,33
 563 68 563 68 649 68 c 0,34,35
 686 68 686 68 719 76.5 c 128,-1,36
 752 85 752 85 766 94 c 1,37,-1
 781 102 l 1,38,-1
 810 50 l 1,39,40
 807 48 807 48 801.5 43.5 c 128,-1,41
 796 39 796 39 778 29 c 128,-1,42
 760 19 760 19 740 11 c 0,43,44
 686 -10 686 -10 620 -10 c 0,0,1
157.5 182 m 128,-1,46
 135 164 135 164 135 133.5 c 128,-1,47
 135 103 135 103 159.5 85.5 c 128,-1,48
 184 68 184 68 228 68 c 0,49,50
 311 68 311 68 364 113 c 1,51,-1
 364 221 l 1,52,-1
 218 205 l 2,53,45
 180 200 180 200 157.5 182 c 128,-1,46
700.5 400.5 m 128,-1,55
 665 433 665 433 608.5 433 c 128,-1,56
 552 433 552 433 515 401.5 c 128,-1,57
 478 370 478 370 467 306 c 1,58,-1
 741 306 l 1,59,54
 736 368 736 368 700.5 400.5 c 128,-1,55
EndSplineSet
EndChar

StartChar: ccedilla
Encoding: 231 231 167
Width: 523
GlyphClass: 2
Flags: W
LayerCount: 2
Fore
SplineSet
221 -111 m 1,0,1
 244 -136 244 -136 283 -136 c 128,-1,2
 322 -136 322 -136 322 -102 c 0,3,4
 322 -64 322 -64 250 -64 c 1,5,-1
 271 -8 l 1,6,7
 171 0 171 0 108.5 64 c 128,-1,8
 46 128 46 128 46 243 c 0,9,10
 46 311 46 311 73 364.5 c 128,-1,11
 100 418 100 418 144 449 c 0,12,13
 235 512 235 512 343 512 c 0,14,15
 376 512 376 512 408 504 c 128,-1,16
 440 496 440 496 456 488 c 2,17,-1
 472 479 l 1,18,-1
 472 361 l 1,19,-1
 411 361 l 1,20,-1
 397 422 l 1,21,22
 383 433 383 433 343 433 c 0,23,24
 257 433 257 433 200 381 c 128,-1,25
 143 329 143 329 143 250 c 128,-1,26
 143 171 143 171 192.5 119.5 c 128,-1,27
 242 68 242 68 324 68 c 0,28,29
 364 68 364 68 398.5 76.5 c 128,-1,30
 433 85 433 85 447 94 c 2,31,-1
 461 102 l 1,32,-1
 490 50 l 1,33,34
 466 30 466 30 416 11.5 c 128,-1,35
 366 -7 366 -7 317 -9 c 1,36,-1
 307 -34 l 1,37,38
 334 -35 334 -35 353 -53 c 128,-1,39
 372 -71 372 -71 372 -105.5 c 128,-1,40
 372 -140 372 -140 346.5 -160 c 128,-1,41
 321 -180 321 -180 289 -180 c 0,42,43
 234 -180 234 -180 208 -154 c 2,44,-1
 200 -146 l 1,45,-1
 221 -111 l 1,0,1
EndSplineSet
EndChar

StartChar: eacute
Encoding: 233 233 169
Width: 555
GlyphClass: 2
Flags: W
LayerCount: 2
Fore
SplineSet
301 -10 m 0,0,1
 188 -10 188 -10 117.5 54.5 c 128,-1,2
 47 119 47 119 47 243 c 128,-1,3
 47 367 47 367 119 439.5 c 128,-1,4
 191 512 191 512 287 512 c 0,5,6
 515 512 515 512 515 242 c 1,7,-1
 144 242 l 1,8,-1
 144 237 l 2,9,10
 144 166 144 166 194 117 c 128,-1,11
 244 68 244 68 330 68 c 0,12,13
 367 68 367 68 400 76.5 c 128,-1,14
 433 85 433 85 448 94 c 2,15,-1
 462 102 l 1,16,-1
 491 50 l 1,17,18
 488 48 488 48 482.5 43.5 c 128,-1,19
 477 39 477 39 459 29 c 128,-1,20
 441 19 441 19 420 11 c 0,21,22
 367 -10 367 -10 301 -10 c 0,0,1
381.5 400.5 m 128,-1,24
 346 433 346 433 289.5 433 c 128,-1,25
 233 433 233 433 196 401.5 c 128,-1,26
 159 370 159 370 148 306 c 1,27,-1
 422 306 l 1,28,23
 417 368 417 368 381.5 400.5 c 128,-1,24
325 595 m 1,29,-1
 236 595 l 1,30,-1
 337 784 l 1,31,-1
 454 784 l 1,32,-1
 325 595 l 1,29,-1
EndSplineSet
EndChar

StartChar: ecircumflex
Encoding: 234 234 170
Width: 555
GlyphClass: 2
Flags: W
LayerCount: 2
Fore
SplineSet
301 -10 m 0,0,1
 188 -10 188 -10 117.5 54.5 c 128,-1,2
 47 119 47 119 47 243 c 128,-1,3
 47 367 47 367 119 439.5 c 128,-1,4
 191 512 191 512 287 512 c 0,5,6
 515 512 515 512 515 242 c 1,7,-1
 144 242 l 1,8,-1
 144 237 l 2,9,10
 144 166 144 166 194 117 c 128,-1,11
 244 68 244 68 330 68 c 0,12,13
 367 68 367 68 400 76.5 c 128,-1,14
 433 85 433 85 448 94 c 2,15,-1
 462 102 l 1,16,-1
 491 50 l 1,17,18
 488 48 488 48 482.5 43.5 c 128,-1,19
 477 39 477 39 459 29 c 128,-1,20
 441 19 441 19 420 11 c 0,21,22
 367 -10 367 -10 301 -10 c 0,0,1
381.5 400.5 m 128,-1,24
 346 433 346 433 289.5 433 c 128,-1,25
 233 433 233 433 196 401.5 c 128,-1,26
 159 370 159 370 148 306 c 1,27,-1
 422 306 l 1,28,23
 417 368 417 368 381.5 400.5 c 128,-1,24
451 595 m 1,29,-1
 362 595 l 1,30,-1
 291 714 l 1,31,-1
 220 595 l 1,32,-1
 131 595 l 1,33,-1
 242 784 l 1,34,-1
 340 784 l 1,35,-1
 451 595 l 1,29,-1
EndSplineSet
EndChar

StartChar: igrave
Encoding: 236 236 172
Width: 332
GlyphClass: 2
Flags: W
LayerCount: 2
Fore
SplineSet
306 0 m 1,0,-1
 43 0 l 1,1,-1
 43 43 l 1,2,-1
 127 76 l 1,3,-1
 127 433 l 1,4,-1
 43 433 l 1,5,-1
 43 493 l 1,6,7
 82 512 82 512 133.5 512 c 128,-1,8
 185 512 185 512 203 487.5 c 128,-1,9
 221 463 221 463 221 413 c 2,10,-1
 221 76 l 1,11,-1
 306 43 l 1,12,-1
 306 0 l 1,0,-1
121 784 m 1,13,-1
 222 595 l 1,14,-1
 133 595 l 1,15,-1
 4 784 l 1,16,-1
 121 784 l 1,13,-1
EndSplineSet
EndChar

StartChar: iacute
Encoding: 237 237 173
Width: 332
GlyphClass: 2
Flags: W
LayerCount: 2
Fore
SplineSet
306 0 m 1,0,-1
 43 0 l 1,1,-1
 43 43 l 1,2,-1
 127 76 l 1,3,-1
 127 433 l 1,4,-1
 43 433 l 1,5,-1
 43 493 l 1,6,7
 82 512 82 512 133.5 512 c 128,-1,8
 185 512 185 512 203 487.5 c 128,-1,9
 221 463 221 463 221 413 c 2,10,-1
 221 76 l 1,11,-1
 306 43 l 1,12,-1
 306 0 l 1,0,-1
210 595 m 1,13,-1
 121 595 l 1,14,-1
 222 784 l 1,15,-1
 339 784 l 1,16,-1
 210 595 l 1,13,-1
EndSplineSet
EndChar

StartChar: icircumflex
Encoding: 238 238 174
Width: 332
GlyphClass: 2
Flags: W
LayerCount: 2
Fore
SplineSet
306 0 m 1,0,-1
 43 0 l 1,1,-1
 43 43 l 1,2,-1
 127 76 l 1,3,-1
 127 433 l 1,4,-1
 43 433 l 1,5,-1
 43 493 l 1,6,7
 82 512 82 512 133.5 512 c 128,-1,8
 185 512 185 512 203 487.5 c 128,-1,9
 221 463 221 463 221 413 c 2,10,-1
 221 76 l 1,11,-1
 306 43 l 1,12,-1
 306 0 l 1,0,-1
323 595 m 1,13,-1
 234 595 l 1,14,-1
 163 714 l 1,15,-1
 92 595 l 1,16,-1
 3 595 l 1,17,-1
 114 784 l 1,18,-1
 212 784 l 1,19,-1
 323 595 l 1,13,-1
EndSplineSet
EndChar

StartChar: idieresis
Encoding: 239 239 175
Width: 332
GlyphClass: 2
Flags: W
LayerCount: 2
Fore
SplineSet
306 0 m 1,0,-1
 43 0 l 1,1,-1
 43 43 l 1,2,-1
 127 76 l 1,3,-1
 127 433 l 1,4,-1
 43 433 l 1,5,-1
 43 493 l 1,6,7
 82 512 82 512 133.5 512 c 128,-1,8
 185 512 185 512 203 487.5 c 128,-1,9
 221 463 221 463 221 413 c 2,10,-1
 221 76 l 1,11,-1
 306 43 l 1,12,-1
 306 0 l 1,0,-1
112 637 m 128,-1,14
 112 612 112 612 94.5 594.5 c 128,-1,15
 77 577 77 577 51.5 577 c 128,-1,16
 26 577 26 577 8.5 594.5 c 128,-1,17
 -9 612 -9 612 -9 637.5 c 128,-1,18
 -9 663 -9 663 8.5 680.5 c 128,-1,19
 26 698 26 698 51 698 c 128,-1,20
 76 698 76 698 94 680 c 128,-1,13
 112 662 112 662 112 637 c 128,-1,14
328 637 m 128,-1,22
 328 612 328 612 310.5 594.5 c 128,-1,23
 293 577 293 577 267.5 577 c 128,-1,24
 242 577 242 577 224.5 594.5 c 128,-1,25
 207 612 207 612 207 637.5 c 128,-1,26
 207 663 207 663 224.5 680.5 c 128,-1,27
 242 698 242 698 267 698 c 128,-1,28
 292 698 292 698 310 680 c 128,-1,21
 328 662 328 662 328 637 c 128,-1,22
EndSplineSet
EndChar

StartChar: eth
Encoding: 240 240 176
Width: 622
GlyphClass: 2
Flags: W
LayerCount: 2
Fore
SplineSet
503 608 m 1,0,1
 568 510 568 510 568 334.5 c 128,-1,2
 568 159 568 159 497.5 74 c 128,-1,3
 427 -11 427 -11 303.5 -11 c 128,-1,4
 180 -11 180 -11 115 51 c 128,-1,5
 50 113 50 113 50 218.5 c 128,-1,6
 50 324 50 324 118.5 385 c 128,-1,7
 187 446 187 446 290 446 c 0,8,9
 325 446 325 446 359 435.5 c 128,-1,10
 393 425 393 425 411 414.5 c 128,-1,11
 429 404 429 404 448 390 c 2,12,-1
 467 376 l 1,13,14
 463 492 463 492 427 556 c 1,15,-1
 308 476 l 1,16,-1
 272 532 l 1,17,-1
 382 607 l 1,18,19
 346 633 346 633 298.5 633 c 128,-1,20
 251 633 251 633 219 622.5 c 128,-1,21
 187 612 187 612 176 602 c 2,22,-1
 165 592 l 1,23,-1
 145 518 l 1,24,-1
 69 518 l 1,25,-1
 69 621 l 1,26,27
 99 668 99 668 161.5 691.5 c 128,-1,28
 224 715 224 715 287 715 c 0,29,30
 392 715 392 715 458 658 c 1,31,-1
 534 710 l 1,32,-1
 570 654 l 1,33,-1
 503 608 l 1,0,1
186.5 326 m 128,-1,35
 145 287 145 287 145 218.5 c 128,-1,36
 145 150 145 150 186.5 110 c 128,-1,37
 228 70 228 70 297 70 c 128,-1,38
 366 70 366 70 412 126 c 128,-1,39
 458 182 458 182 464 281 c 1,40,41
 463 282 463 282 452.5 293 c 128,-1,42
 442 304 442 304 429 314.5 c 128,-1,43
 416 325 416 325 397 338 c 0,44,45
 355 365 355 365 291.5 365 c 128,-1,34
 228 365 228 365 186.5 326 c 128,-1,35
EndSplineSet
EndChar

StartChar: otilde
Encoding: 245 245 181
Width: 606
GlyphClass: 2
Flags: W
LayerCount: 2
Fore
SplineSet
303 -11 m 128,-1,1
 192 -11 192 -11 119 61.5 c 128,-1,2
 46 134 46 134 46 250 c 128,-1,3
 46 366 46 366 119 439 c 128,-1,4
 192 512 192 512 303 512 c 128,-1,5
 414 512 414 512 487 439 c 128,-1,6
 560 366 560 366 560 250 c 128,-1,7
 560 134 560 134 487 61.5 c 128,-1,0
 414 -11 414 -11 303 -11 c 128,-1,1
303 68 m 128,-1,9
 373 68 373 68 418 116.5 c 128,-1,10
 463 165 463 165 463 247 c 128,-1,11
 463 329 463 329 417.5 381 c 128,-1,12
 372 433 372 433 303 433 c 128,-1,13
 234 433 234 433 188.5 381 c 128,-1,14
 143 329 143 329 143 247 c 128,-1,15
 143 165 143 165 188 116.5 c 128,-1,8
 233 68 233 68 303 68 c 128,-1,9
429 617 m 128,-1,17
 396 596 396 596 367.5 596 c 128,-1,18
 339 596 339 596 295.5 622 c 128,-1,19
 252 648 252 648 234 648 c 0,20,21
 202 648 202 648 166 614 c 1,22,-1
 153 603 l 1,23,-1
 116 643 l 1,24,25
 114 643 114 643 132 664.5 c 128,-1,26
 150 686 150 686 182.5 708 c 128,-1,27
 215 730 215 730 243.5 730 c 128,-1,28
 272 730 272 730 315.5 704 c 128,-1,29
 359 678 359 678 376 678 c 0,30,31
 409 678 409 678 446 712 c 2,32,-1
 458 723 l 1,33,-1
 498 681 l 1,34,35
 500 681 500 681 481 659.5 c 128,-1,16
 462 638 462 638 429 617 c 128,-1,17
EndSplineSet
EndChar

StartChar: divide
Encoding: 247 247 183
Width: 539
GlyphClass: 2
Flags: W
LayerCount: 2
Fore
SplineSet
468 234 m 1,0,-1
 71 234 l 1,1,-1
 71 305 l 1,2,-1
 468 305 l 1,3,-1
 468 234 l 1,0,-1
265 -11 m 128,-1,5
 240 -11 240 -11 223 6 c 128,-1,6
 206 23 206 23 206 48 c 128,-1,7
 206 73 206 73 223 90 c 128,-1,8
 240 107 240 107 265 107 c 128,-1,9
 290 107 290 107 307 90 c 128,-1,10
 324 73 324 73 324 48 c 128,-1,11
 324 23 324 23 307 6 c 128,-1,4
 290 -11 290 -11 265 -11 c 128,-1,5
265 394 m 128,-1,13
 240 394 240 394 223 411 c 128,-1,14
 206 428 206 428 206 453 c 128,-1,15
 206 478 206 478 223 495 c 128,-1,16
 240 512 240 512 265 512 c 128,-1,17
 290 512 290 512 307 495 c 128,-1,18
 324 478 324 478 324 453 c 128,-1,19
 324 428 324 428 307 411 c 128,-1,12
 290 394 290 394 265 394 c 128,-1,13
EndSplineSet
EndChar

StartChar: oslash
Encoding: 248 248 184
Width: 606
GlyphClass: 2
Flags: W
LayerCount: 2
Fore
SplineSet
303 -11 m 0,0,1
 250 -11 250 -11 199 8 c 1,2,-1
 188 -11 l 1,3,-1
 95 -11 l 1,4,-1
 131 50 l 1,5,6
 46 124 46 124 46 245 c 128,-1,7
 46 366 46 366 119 439 c 128,-1,8
 192 512 192 512 303 512 c 0,9,10
 351 512 351 512 396 496 c 1,11,-1
 406 512 l 1,12,-1
 499 512 l 1,13,-1
 466 457 l 1,14,15
 560 382 560 382 560 250 c 0,16,17
 560 134 560 134 487 61.5 c 128,-1,18
 414 -11 414 -11 303 -11 c 0,0,1
303 68 m 0,19,20
 373 68 373 68 418 116.5 c 128,-1,21
 463 165 463 165 463 245.5 c 128,-1,22
 463 326 463 326 419 378 c 1,23,-1
 241 79 l 1,24,25
 271 68 271 68 303 68 c 0,19,20
188.5 381 m 128,-1,27
 143 329 143 329 143 252.5 c 128,-1,28
 143 176 143 176 178 128 c 1,29,-1
 354 424 l 1,30,31
 330 433 330 433 303 433 c 0,32,26
 234 433 234 433 188.5 381 c 128,-1,27
EndSplineSet
EndChar

StartChar: ugrave
Encoding: 249 249 185
Width: 636
GlyphClass: 2
Flags: W
LayerCount: 2
Fore
SplineSet
608 68 m 1,0,-1
 608 8 l 1,1,2
 569 -11 569 -11 520 -11 c 128,-1,3
 471 -11 471 -11 452 9.5 c 128,-1,4
 433 30 433 30 430 70 c 1,5,6
 417 55 417 55 400 40 c 128,-1,7
 383 25 383 25 343.5 7 c 128,-1,8
 304 -11 304 -11 261 -11 c 0,9,10
 183 -11 183 -11 144 32.5 c 128,-1,11
 105 76 105 76 105 151 c 2,12,-1
 105 433 l 1,13,-1
 21 433 l 1,14,-1
 21 493 l 1,15,16
 60 512 60 512 111.5 512 c 128,-1,17
 163 512 163 512 181 487.5 c 128,-1,18
 199 463 199 463 199 413 c 2,19,-1
 199 186 l 2,20,21
 199 127 199 127 218.5 98 c 128,-1,22
 238 69 238 69 289 69 c 128,-1,23
 340 69 340 69 376 88.5 c 128,-1,24
 412 108 412 108 430 129 c 1,25,-1
 430 433 l 1,26,-1
 346 433 l 1,27,-1
 346 493 l 1,28,29
 385 512 385 512 436.5 512 c 128,-1,30
 488 512 488 512 506 487.5 c 128,-1,31
 524 463 524 463 524 413 c 2,32,-1
 524 68 l 1,33,-1
 608 68 l 1,0,-1
234 784 m 1,34,-1
 335 595 l 1,35,-1
 246 595 l 1,36,-1
 117 784 l 1,37,-1
 234 784 l 1,34,-1
EndSplineSet
EndChar

StartChar: uacute
Encoding: 250 250 186
Width: 636
GlyphClass: 2
Flags: W
LayerCount: 2
Fore
SplineSet
608 68 m 1,0,-1
 608 8 l 1,1,2
 569 -11 569 -11 520 -11 c 128,-1,3
 471 -11 471 -11 452 9.5 c 128,-1,4
 433 30 433 30 430 70 c 1,5,6
 417 55 417 55 400 40 c 128,-1,7
 383 25 383 25 343.5 7 c 128,-1,8
 304 -11 304 -11 261 -11 c 0,9,10
 183 -11 183 -11 144 32.5 c 128,-1,11
 105 76 105 76 105 151 c 2,12,-1
 105 433 l 1,13,-1
 21 433 l 1,14,-1
 21 493 l 1,15,16
 60 512 60 512 111.5 512 c 128,-1,17
 163 512 163 512 181 487.5 c 128,-1,18
 199 463 199 463 199 413 c 2,19,-1
 199 186 l 2,20,21
 199 127 199 127 218.5 98 c 128,-1,22
 238 69 238 69 289 69 c 128,-1,23
 340 69 340 69 376 88.5 c 128,-1,24
 412 108 412 108 430 129 c 1,25,-1
 430 433 l 1,26,-1
 346 433 l 1,27,-1
 346 493 l 1,28,29
 385 512 385 512 436.5 512 c 128,-1,30
 488 512 488 512 506 487.5 c 128,-1,31
 524 463 524 463 524 413 c 2,32,-1
 524 68 l 1,33,-1
 608 68 l 1,0,-1
311 595 m 1,34,-1
 222 595 l 1,35,-1
 323 784 l 1,36,-1
 440 784 l 1,37,-1
 311 595 l 1,34,-1
EndSplineSet
EndChar

StartChar: udieresis
Encoding: 252 252 188
Width: 636
GlyphClass: 2
Flags: W
LayerCount: 2
Fore
SplineSet
608 68 m 1,0,-1
 608 8 l 1,1,2
 569 -11 569 -11 520 -11 c 128,-1,3
 471 -11 471 -11 452 9.5 c 128,-1,4
 433 30 433 30 430 70 c 1,5,6
 417 55 417 55 400 40 c 128,-1,7
 383 25 383 25 343.5 7 c 128,-1,8
 304 -11 304 -11 261 -11 c 0,9,10
 183 -11 183 -11 144 32.5 c 128,-1,11
 105 76 105 76 105 151 c 2,12,-1
 105 433 l 1,13,-1
 21 433 l 1,14,-1
 21 493 l 1,15,16
 60 512 60 512 111.5 512 c 128,-1,17
 163 512 163 512 181 487.5 c 128,-1,18
 199 463 199 463 199 413 c 2,19,-1
 199 186 l 2,20,21
 199 127 199 127 218.5 98 c 128,-1,22
 238 69 238 69 289 69 c 128,-1,23
 340 69 340 69 376 88.5 c 128,-1,24
 412 108 412 108 430 129 c 1,25,-1
 430 433 l 1,26,-1
 346 433 l 1,27,-1
 346 493 l 1,28,29
 385 512 385 512 436.5 512 c 128,-1,30
 488 512 488 512 506 487.5 c 128,-1,31
 524 463 524 463 524 413 c 2,32,-1
 524 68 l 1,33,-1
 608 68 l 1,0,-1
233 637 m 128,-1,35
 233 612 233 612 215.5 594.5 c 128,-1,36
 198 577 198 577 172 577 c 128,-1,37
 146 577 146 577 129 594.5 c 128,-1,38
 112 612 112 612 112 637.5 c 128,-1,39
 112 663 112 663 129.5 680.5 c 128,-1,40
 147 698 147 698 172.5 698 c 128,-1,41
 198 698 198 698 215.5 680 c 128,-1,34
 233 662 233 662 233 637 c 128,-1,35
449 637 m 128,-1,43
 449 612 449 612 431.5 594.5 c 128,-1,44
 414 577 414 577 388 577 c 128,-1,45
 362 577 362 577 345 594.5 c 128,-1,46
 328 612 328 612 328 637.5 c 128,-1,47
 328 663 328 663 345.5 680.5 c 128,-1,48
 363 698 363 698 388.5 698 c 128,-1,49
 414 698 414 698 431.5 680 c 128,-1,42
 449 662 449 662 449 637 c 128,-1,43
EndSplineSet
EndChar

StartChar: thorn
Encoding: 254 254 190
Width: 591
GlyphClass: 2
Flags: W
LayerCount: 2
Fore
SplineSet
264 -271 m 1,0,-1
 1 -271 l 1,1,-1
 1 -228 l 1,2,-1
 86 -195 l 1,3,-1
 86 698 l 1,4,-1
 2 698 l 1,5,-1
 2 758 l 1,6,7
 41 777 41 777 92.5 777 c 128,-1,8
 144 777 144 777 162 752.5 c 128,-1,9
 180 728 180 728 180 678 c 2,10,-1
 180 447 l 1,11,12
 228 512 228 512 323 512 c 0,13,14
 402 512 402 512 469 458 c 0,15,16
 503 430 503 430 523.5 378.5 c 128,-1,17
 544 327 544 327 544 259 c 128,-1,18
 544 191 544 191 521 137.5 c 128,-1,19
 498 84 498 84 459 53 c 0,20,21
 380 -10 380 -10 275 -10 c 0,22,23
 227 -10 227 -10 180 4 c 1,24,-1
 180 -195 l 1,25,-1
 264 -228 l 1,26,-1
 264 -271 l 1,0,-1
275 58 m 0,27,28
 356 58 356 58 401.5 108 c 128,-1,29
 447 158 447 158 447 260 c 0,30,31
 447 332 447 332 403 378 c 128,-1,32
 359 424 359 424 309 424 c 0,33,34
 226 424 226 424 180 375 c 1,35,-1
 180 75 l 1,36,-1
 192 72 l 2,37,38
 245 58 245 58 275 58 c 0,27,28
EndSplineSet
EndChar

StartChar: Lslash
Encoding: 321 321 192
Width: 637
GlyphClass: 2
Flags: W
LayerCount: 2
Fore
SplineSet
617 0 m 1,0,-1
 51 0 l 1,1,-1
 51 44 l 1,2,-1
 142 77 l 1,3,-1
 142 278 l 1,4,-1
 54 248 l 1,5,-1
 54 320 l 1,6,-1
 142 350 l 1,7,-1
 142 629 l 1,8,-1
 51 662 l 1,9,-1
 51 706 l 1,10,-1
 334 706 l 1,11,-1
 334 662 l 1,12,-1
 243 629 l 1,13,-1
 243 384 l 1,14,-1
 367 427 l 1,15,-1
 367 355 l 1,16,-1
 243 312 l 1,17,-1
 243 76 l 1,18,-1
 532 76 l 1,19,-1
 565 162 l 1,20,-1
 617 162 l 1,21,-1
 617 0 l 1,0,-1
EndSplineSet
EndChar

StartChar: lslash
Encoding: 322 322 193
Width: 347
GlyphClass: 2
Flags: W
LayerCount: 2
Fore
SplineSet
310 0 m 1,0,-1
 47 0 l 1,1,-1
 47 43 l 1,2,-1
 131 76 l 1,3,-1
 131 287 l 1,4,-1
 16 248 l 1,5,-1
 16 320 l 1,6,-1
 131 359 l 1,7,-1
 131 693 l 1,8,-1
 47 693 l 1,9,-1
 47 753 l 1,10,11
 86 772 86 772 137.5 772 c 128,-1,12
 189 772 189 772 207 747.5 c 128,-1,13
 225 723 225 723 225 673 c 2,14,-1
 225 391 l 1,15,-1
 329 427 l 1,16,-1
 329 355 l 1,17,-1
 225 319 l 1,18,-1
 225 76 l 1,19,-1
 310 43 l 1,20,-1
 310 0 l 1,0,-1
EndSplineSet
EndChar

StartChar: OE
Encoding: 338 338 194
Width: 930
GlyphClass: 2
Flags: W
LayerCount: 2
Fore
SplineSet
870 0 m 1,0,-1
 395 0 l 2,1,2
 255 0 255 0 154.5 96.5 c 128,-1,3
 54 193 54 193 54 350 c 128,-1,4
 54 507 54 507 155 606.5 c 128,-1,5
 256 706 256 706 395 706 c 2,6,-1
 870 706 l 1,7,-1
 870 544 l 1,8,-1
 818 544 l 1,9,-1
 785 630 l 1,10,-1
 496 630 l 1,11,-1
 496 392 l 1,12,-1
 726 392 l 1,13,-1
 745 450 l 1,14,-1
 791 450 l 1,15,-1
 791 253 l 1,16,-1
 745 253 l 1,17,-1
 726 320 l 1,18,-1
 496 320 l 1,19,-1
 496 76 l 1,20,-1
 785 76 l 1,21,-1
 818 162 l 1,22,-1
 870 162 l 1,23,-1
 870 0 l 1,0,-1
395 80 m 1,24,-1
 395 625 l 1,25,26
 285 624 285 624 221.5 544 c 128,-1,27
 158 464 158 464 158 350.5 c 128,-1,28
 158 237 158 237 221.5 158.5 c 128,-1,29
 285 80 285 80 395 80 c 1,24,-1
EndSplineSet
EndChar

StartChar: oe
Encoding: 339 339 195
Width: 976
GlyphClass: 2
Flags: W
LayerCount: 2
Fore
SplineSet
722 -10 m 0,0,1
 577 -10 577 -10 510 88 c 1,2,3
 475 41 475 41 421 15 c 128,-1,4
 367 -11 367 -11 303 -11 c 0,5,6
 192 -11 192 -11 119 61.5 c 128,-1,7
 46 134 46 134 46 250 c 128,-1,8
 46 366 46 366 119 439 c 128,-1,9
 192 512 192 512 303 512 c 0,10,11
 369 512 369 512 424 484.5 c 128,-1,12
 479 457 479 457 514 407 c 1,13,14
 548 457 548 457 599.5 484.5 c 128,-1,15
 651 512 651 512 708 512 c 0,16,17
 936 512 936 512 936 242 c 1,18,-1
 565 242 l 1,19,-1
 565 237 l 2,20,21
 565 166 565 166 615 117 c 128,-1,22
 665 68 665 68 751 68 c 0,23,24
 788 68 788 68 821 76.5 c 128,-1,25
 854 85 854 85 868 94 c 1,26,-1
 883 102 l 1,27,-1
 912 50 l 1,28,29
 909 48 909 48 903.5 43.5 c 128,-1,30
 898 39 898 39 880 29 c 128,-1,31
 862 19 862 19 842 11 c 0,32,33
 788 -10 788 -10 722 -10 c 0,0,1
303 68 m 128,-1,35
 373 68 373 68 418 116.5 c 128,-1,36
 463 165 463 165 463 247 c 128,-1,37
 463 329 463 329 417.5 381 c 128,-1,38
 372 433 372 433 303 433 c 128,-1,39
 234 433 234 433 188.5 381 c 128,-1,40
 143 329 143 329 143 247 c 128,-1,41
 143 165 143 165 188 116.5 c 128,-1,34
 233 68 233 68 303 68 c 128,-1,35
802.5 400.5 m 128,-1,43
 767 433 767 433 710.5 433 c 128,-1,44
 654 433 654 433 617 401.5 c 128,-1,45
 580 370 580 370 569 306 c 1,46,-1
 843 306 l 1,47,42
 838 368 838 368 802.5 400.5 c 128,-1,43
EndSplineSet
EndChar

StartChar: Zcaron
Encoding: 381 381 199
Width: 670
GlyphClass: 2
Flags: W
LayerCount: 2
Fore
SplineSet
613 0 m 1,0,-1
 57 0 l 1,1,-1
 57 76 l 1,2,3
 447 570 447 570 492 630 c 1,4,-1
 159 630 l 1,5,-1
 126 523 l 1,6,-1
 55 523 l 1,7,-1
 55 706 l 1,8,-1
 613 706 l 1,9,-1
 613 630 l 1,10,-1
 177 76 l 1,11,-1
 507 76 l 1,12,-1
 540 187 l 1,13,-1
 613 187 l 1,14,-1
 613 0 l 1,0,-1
503 990 m 1,15,-1
 392 801 l 1,16,-1
 294 801 l 1,17,-1
 183 990 l 1,18,-1
 272 990 l 1,19,-1
 343 871 l 1,20,-1
 414 990 l 1,21,-1
 503 990 l 1,15,-1
EndSplineSet
EndChar

StartChar: florin
Encoding: 402 402 201
Width: 692
GlyphClass: 2
Flags: W
LayerCount: 2
Fore
SplineSet
146 -275 m 0,0,1
 110 -275 110 -275 80.5 -264.5 c 128,-1,2
 51 -254 51 -254 40 -243 c 2,3,-1
 28 -232 l 1,4,-1
 61 -180 l 1,5,6
 87 -196 87 -196 142.5 -196 c 128,-1,7
 198 -196 198 -196 228 -163.5 c 128,-1,8
 258 -131 258 -131 267 -45 c 2,9,-1
 316 419 l 1,10,-1
 238 419 l 1,11,-1
 244 479 l 1,12,-1
 326 511 l 1,13,-1
 332 571 l 2,14,15
 342 670 342 670 398.5 721.5 c 128,-1,16
 455 773 455 773 546 773 c 0,17,18
 582 773 582 773 611.5 762.5 c 128,-1,19
 641 752 641 752 652 741 c 2,20,-1
 663 730 l 1,21,-1
 631 678 l 1,22,23
 605 694 605 694 549.5 694 c 128,-1,24
 494 694 494 694 464.5 661.5 c 128,-1,25
 435 629 435 629 425 543 c 2,26,-1
 420 500 l 1,27,-1
 581 500 l 1,28,-1
 573 419 l 1,29,-1
 412 419 l 1,30,-1
 360 -73 l 2,31,32
 350 -172 350 -172 293.5 -223.5 c 128,-1,33
 237 -275 237 -275 146 -275 c 0,0,1
EndSplineSet
EndChar

StartChar: circumflex
Encoding: 710 710 202
Width: 420
GlyphClass: 2
Flags: W
LayerCount: 2
Fore
SplineSet
370 595 m 1,0,-1
 281 595 l 1,1,-1
 210 714 l 1,2,-1
 139 595 l 1,3,-1
 50 595 l 1,4,-1
 161 784 l 1,5,-1
 259 784 l 1,6,-1
 370 595 l 1,0,-1
EndSplineSet
EndChar

StartChar: caron
Encoding: 711 711 203
Width: 420
GlyphClass: 2
Flags: W
LayerCount: 2
Fore
SplineSet
370 784 m 1,0,-1
 259 595 l 1,1,-1
 161 595 l 1,2,-1
 50 784 l 1,3,-1
 139 784 l 1,4,-1
 210 665 l 1,5,-1
 281 784 l 1,6,-1
 370 784 l 1,0,-1
EndSplineSet
EndChar

StartChar: breve
Encoding: 728 728 204
Width: 355
GlyphClass: 2
Flags: W
LayerCount: 2
Fore
SplineSet
235 719 m 1,0,-1
 305 719 l 1,1,2
 305 660 305 660 274.5 624.5 c 128,-1,3
 244 589 244 589 177.5 589 c 128,-1,4
 111 589 111 589 80.5 624.5 c 128,-1,5
 50 660 50 660 50 719 c 1,6,-1
 119 719 l 1,7,8
 119 652 119 652 177 652 c 128,-1,9
 235 652 235 652 235 719 c 1,0,-1
EndSplineSet
EndChar

StartChar: ring
Encoding: 730 730 205
Width: 278
GlyphClass: 2
Flags: W
LayerCount: 2
Fore
SplineSet
139 569 m 128,-1,1
 101 569 101 569 75.5 594.5 c 128,-1,2
 50 620 50 620 50 658 c 128,-1,3
 50 696 50 696 75.5 721.5 c 128,-1,4
 101 747 101 747 139 747 c 128,-1,5
 177 747 177 747 202.5 721.5 c 128,-1,6
 228 696 228 696 228 658 c 128,-1,7
 228 620 228 620 202.5 594.5 c 128,-1,0
 177 569 177 569 139 569 c 128,-1,1
178 658 m 128,-1,9
 178 675 178 675 167 686 c 128,-1,10
 156 697 156 697 138.5 697 c 128,-1,11
 121 697 121 697 110.5 686 c 128,-1,12
 100 675 100 675 100 658 c 128,-1,13
 100 641 100 641 110.5 630 c 128,-1,14
 121 619 121 619 138.5 619 c 128,-1,15
 156 619 156 619 167 630 c 128,-1,8
 178 641 178 641 178 658 c 128,-1,9
EndSplineSet
EndChar

StartChar: ogonek
Encoding: 731 731 206
Width: 262
GlyphClass: 2
Flags: W
LayerCount: 2
Fore
SplineSet
140 -133 m 0,0,1
 170 -133 170 -133 191 -110 c 1,2,-1
 212 -140 l 1,3,4
 186 -172 186 -172 142.5 -172 c 128,-1,5
 99 -172 99 -172 74.5 -152 c 128,-1,6
 50 -132 50 -132 50 -93.5 c 128,-1,7
 50 -55 50 -55 80 -26.5 c 128,-1,8
 110 2 110 2 140 11 c 2,9,-1
 169 20 l 1,10,-1
 177 1 l 1,11,12
 93 -27 93 -27 93 -86 c 0,13,14
 93 -133 93 -133 140 -133 c 0,0,1
EndSplineSet
EndChar

StartChar: tilde
Encoding: 732 732 207
Width: 484
GlyphClass: 2
Flags: W
LayerCount: 2
Fore
SplineSet
364 617 m 128,-1,1
 331 596 331 596 302.5 596 c 128,-1,2
 274 596 274 596 230.5 622 c 128,-1,3
 187 648 187 648 170 648 c 0,4,5
 137 648 137 648 100 614 c 2,6,-1
 88 603 l 1,7,-1
 51 643 l 1,8,9
 49 643 49 643 67 664.5 c 128,-1,10
 85 686 85 686 117.5 708 c 128,-1,11
 150 730 150 730 178.5 730 c 128,-1,12
 207 730 207 730 250.5 704 c 128,-1,13
 294 678 294 678 312 678 c 0,14,15
 344 678 344 678 380 712 c 1,16,-1
 393 723 l 1,17,-1
 433 681 l 1,18,19
 435 681 435 681 416 659.5 c 128,-1,0
 397 638 397 638 364 617 c 128,-1,1
EndSplineSet
EndChar

StartChar: hungarumlaut
Encoding: 733 733 208
Width: 483
GlyphClass: 2
Flags: W
LayerCount: 2
Fore
SplineSet
139 595 m 1,0,-1
 50 595 l 1,1,-1
 151 784 l 1,2,-1
 268 784 l 1,3,-1
 139 595 l 1,0,-1
304 595 m 1,4,-1
 215 595 l 1,5,-1
 316 784 l 1,6,-1
 433 784 l 1,7,-1
 304 595 l 1,4,-1
EndSplineSet
EndChar

StartChar: endash
Encoding: 8211 8211 209
Width: 667
GlyphClass: 2
Flags: W
LayerCount: 2
Fore
SplineSet
594 235 m 1,0,-1
 73 235 l 1,1,-1
 73 298 l 1,2,-1
 594 298 l 1,3,-1
 594 235 l 1,0,-1
EndSplineSet
EndChar

StartChar: emdash
Encoding: 8212 8212 210
Width: 988
GlyphClass: 2
Flags: W
LayerCount: 2
Fore
SplineSet
915 235 m 1,0,-1
 73 235 l 1,1,-1
 73 298 l 1,2,-1
 915 298 l 1,3,-1
 915 235 l 1,0,-1
EndSplineSet
EndChar

StartChar: quoteleft
Encoding: 8216 8216 211
Width: 207
GlyphClass: 2
Flags: W
LayerCount: 2
Fore
SplineSet
100 774 m 1,0,-1
 105 774 l 2,1,2
 130 774 130 774 147 757 c 128,-1,3
 164 740 164 740 164 715 c 128,-1,4
 164 690 164 690 147 673 c 128,-1,5
 130 656 130 656 99.5 656 c 128,-1,6
 69 656 69 656 52.5 682.5 c 128,-1,7
 36 709 36 709 36 750 c 0,8,9
 36 819 36 819 67 851 c 128,-1,10
 98 883 98 883 146 883 c 1,11,-1
 146 835 l 1,12,13
 128 835 128 835 114 821.5 c 128,-1,14
 100 808 100 808 100 782 c 2,15,-1
 100 774 l 1,0,-1
EndSplineSet
EndChar

StartChar: quoteright
Encoding: 8217 8217 212
Width: 248
GlyphClass: 2
Flags: W
LayerCount: 2
Fore
SplineSet
79 548 m 1,0,-1
 79 596 l 1,1,2
 97 596 97 596 111 609.5 c 128,-1,3
 125 623 125 623 125 649 c 2,4,-1
 125 657 l 1,5,-1
 120 657 l 2,6,7
 95 657 95 657 78 674 c 128,-1,8
 61 691 61 691 61 716 c 128,-1,9
 61 741 61 741 78 758 c 128,-1,10
 95 775 95 775 125.5 775 c 128,-1,11
 156 775 156 775 172.5 748.5 c 128,-1,12
 189 722 189 722 189 681 c 0,13,14
 189 612 189 612 158 580 c 128,-1,15
 127 548 127 548 79 548 c 1,0,-1
EndSplineSet
EndChar

StartChar: quotesinglbase
Encoding: 8218 8218 213
Width: 267
GlyphClass: 2
Flags: W
LayerCount: 2
Fore
SplineSet
89 -120 m 1,0,-1
 89 -72 l 1,1,2
 107 -72 107 -72 121 -58.5 c 128,-1,3
 135 -45 135 -45 135 -19 c 2,4,-1
 135 -11 l 1,5,-1
 130 -11 l 2,6,7
 105 -11 105 -11 88 6 c 128,-1,8
 71 23 71 23 71 48 c 128,-1,9
 71 73 71 73 88 90 c 128,-1,10
 105 107 105 107 135.5 107 c 128,-1,11
 166 107 166 107 182.5 80.5 c 128,-1,12
 199 54 199 54 199 13 c 0,13,14
 199 -56 199 -56 168 -88 c 128,-1,15
 137 -120 137 -120 89 -120 c 1,0,-1
EndSplineSet
EndChar

StartChar: quotedblleft
Encoding: 8220 8220 214
Width: 372
GlyphClass: 2
Flags: W
LayerCount: 2
Fore
SplineSet
100 774 m 1,0,-1
 105 774 l 2,1,2
 130 774 130 774 147 757 c 128,-1,3
 164 740 164 740 164 715 c 128,-1,4
 164 690 164 690 147 673 c 128,-1,5
 130 656 130 656 99.5 656 c 128,-1,6
 69 656 69 656 52.5 682.5 c 128,-1,7
 36 709 36 709 36 750 c 0,8,9
 36 819 36 819 67 851 c 128,-1,10
 98 883 98 883 146 883 c 1,11,-1
 146 835 l 1,12,13
 128 835 128 835 114 821.5 c 128,-1,14
 100 808 100 808 100 782 c 2,15,-1
 100 774 l 1,0,-1
265 774 m 1,16,-1
 270 774 l 2,17,18
 295 774 295 774 312 757 c 128,-1,19
 329 740 329 740 329 715 c 128,-1,20
 329 690 329 690 312 673 c 128,-1,21
 295 656 295 656 264.5 656 c 128,-1,22
 234 656 234 656 217.5 682.5 c 128,-1,23
 201 709 201 709 201 750 c 0,24,25
 201 819 201 819 232 851 c 128,-1,26
 263 883 263 883 311 883 c 1,27,-1
 311 835 l 1,28,29
 293 835 293 835 279 821.5 c 128,-1,30
 265 808 265 808 265 782 c 2,31,-1
 265 774 l 1,16,-1
EndSplineSet
EndChar

StartChar: quotedblright
Encoding: 8221 8221 215
Width: 422
GlyphClass: 2
Flags: W
LayerCount: 2
Fore
SplineSet
79 548 m 1,0,-1
 79 596 l 1,1,2
 97 596 97 596 111 609.5 c 128,-1,3
 125 623 125 623 125 649 c 2,4,-1
 125 657 l 1,5,-1
 120 657 l 2,6,7
 95 657 95 657 78 674 c 128,-1,8
 61 691 61 691 61 716 c 128,-1,9
 61 741 61 741 78 758 c 128,-1,10
 95 775 95 775 125.5 775 c 128,-1,11
 156 775 156 775 172.5 748.5 c 128,-1,12
 189 722 189 722 189 681 c 0,13,14
 189 612 189 612 158 580 c 128,-1,15
 127 548 127 548 79 548 c 1,0,-1
253 548 m 1,16,-1
 253 596 l 1,17,18
 271 596 271 596 285 609.5 c 128,-1,19
 299 623 299 623 299 649 c 2,20,-1
 299 657 l 1,21,-1
 294 657 l 2,22,23
 269 657 269 657 252 674 c 128,-1,24
 235 691 235 691 235 716 c 128,-1,25
 235 741 235 741 252 758 c 128,-1,26
 269 775 269 775 299.5 775 c 128,-1,27
 330 775 330 775 346.5 748.5 c 128,-1,28
 363 722 363 722 363 681 c 0,29,30
 363 612 363 612 332 580 c 128,-1,31
 301 548 301 548 253 548 c 1,16,-1
EndSplineSet
EndChar

StartChar: quotedblbase
Encoding: 8222 8222 216
Width: 441
GlyphClass: 2
Flags: W
LayerCount: 2
Fore
SplineSet
89 -120 m 1,0,-1
 89 -72 l 1,1,2
 107 -72 107 -72 121 -58.5 c 128,-1,3
 135 -45 135 -45 135 -19 c 2,4,-1
 135 -11 l 1,5,-1
 130 -11 l 2,6,7
 105 -11 105 -11 88 6 c 128,-1,8
 71 23 71 23 71 48 c 128,-1,9
 71 73 71 73 88 90 c 128,-1,10
 105 107 105 107 135.5 107 c 128,-1,11
 166 107 166 107 182.5 80.5 c 128,-1,12
 199 54 199 54 199 13 c 0,13,14
 199 -56 199 -56 168 -88 c 128,-1,15
 137 -120 137 -120 89 -120 c 1,0,-1
263 -120 m 1,16,-1
 263 -72 l 1,17,18
 281 -72 281 -72 295 -58.5 c 128,-1,19
 309 -45 309 -45 309 -19 c 2,20,-1
 309 -11 l 1,21,-1
 304 -11 l 2,22,23
 279 -11 279 -11 262 6 c 128,-1,24
 245 23 245 23 245 48 c 128,-1,25
 245 73 245 73 262 90 c 128,-1,26
 279 107 279 107 309.5 107 c 128,-1,27
 340 107 340 107 356.5 80.5 c 128,-1,28
 373 54 373 54 373 13 c 0,29,30
 373 -56 373 -56 342 -88 c 128,-1,31
 311 -120 311 -120 263 -120 c 1,16,-1
EndSplineSet
EndChar

StartChar: dagger
Encoding: 8224 8224 217
Width: 374
GlyphClass: 2
Flags: W
LayerCount: 2
Fore
SplineSet
228 -279 m 1,0,-1
 145 -279 l 1,1,-1
 145 516 l 1,2,-1
 52 501 l 1,3,-1
 52 611 l 1,4,-1
 145 591 l 1,5,-1
 145 772 l 1,6,-1
 228 772 l 1,7,-1
 228 590 l 1,8,-1
 322 611 l 1,9,-1
 322 501 l 1,10,-1
 228 517 l 1,11,-1
 228 -279 l 1,0,-1
EndSplineSet
EndChar

StartChar: daggerdbl
Encoding: 8225 8225 218
Width: 378
GlyphClass: 2
Flags: W
LayerCount: 2
Fore
SplineSet
230 -279 m 1,0,-1
 147 -279 l 1,1,-1
 147 -60 l 1,2,-1
 54 -76 l 1,3,-1
 54 34 l 1,4,-1
 147 14 l 1,5,-1
 147 516 l 1,6,-1
 54 501 l 1,7,-1
 54 611 l 1,8,-1
 147 591 l 1,9,-1
 147 772 l 1,10,-1
 230 772 l 1,11,-1
 230 590 l 1,12,-1
 324 611 l 1,13,-1
 324 501 l 1,14,-1
 230 517 l 1,15,-1
 230 13 l 1,16,-1
 324 34 l 1,17,-1
 324 -76 l 1,18,-1
 230 -60 l 1,19,-1
 230 -279 l 1,0,-1
EndSplineSet
EndChar

StartChar: bullet
Encoding: 8226 8226 219
Width: 398
GlyphClass: 2
Flags: W
LayerCount: 2
Fore
SplineSet
199 234 m 128,-1,1
 152 234 152 234 118.5 267.5 c 128,-1,2
 85 301 85 301 85 348 c 128,-1,3
 85 395 85 395 118.5 428.5 c 128,-1,4
 152 462 152 462 199 462 c 128,-1,5
 246 462 246 462 279.5 428.5 c 128,-1,6
 313 395 313 395 313 348 c 128,-1,7
 313 301 313 301 279.5 267.5 c 128,-1,0
 246 234 246 234 199 234 c 128,-1,1
EndSplineSet
EndChar

StartChar: ellipsis
Encoding: 8230 8230 220
Width: 610
GlyphClass: 2
Flags: W
LayerCount: 2
Fore
SplineSet
130 -11 m 128,-1,1
 105 -11 105 -11 88 6 c 128,-1,2
 71 23 71 23 71 48 c 128,-1,3
 71 73 71 73 88 90 c 128,-1,4
 105 107 105 107 130 107 c 128,-1,5
 155 107 155 107 172 90 c 128,-1,6
 189 73 189 73 189 48 c 128,-1,7
 189 23 189 23 172 6 c 128,-1,0
 155 -11 155 -11 130 -11 c 128,-1,1
305 -11 m 128,-1,9
 280 -11 280 -11 263 6 c 128,-1,10
 246 23 246 23 246 48 c 128,-1,11
 246 73 246 73 263 90 c 128,-1,12
 280 107 280 107 305 107 c 128,-1,13
 330 107 330 107 347 90 c 128,-1,14
 364 73 364 73 364 48 c 128,-1,15
 364 23 364 23 347 6 c 128,-1,8
 330 -11 330 -11 305 -11 c 128,-1,9
480 -11 m 128,-1,17
 455 -11 455 -11 438 6 c 128,-1,18
 421 23 421 23 421 48 c 128,-1,19
 421 73 421 73 438 90 c 128,-1,20
 455 107 455 107 480 107 c 128,-1,21
 505 107 505 107 522 90 c 128,-1,22
 539 73 539 73 539 48 c 128,-1,23
 539 23 539 23 522 6 c 128,-1,16
 505 -11 505 -11 480 -11 c 128,-1,17
EndSplineSet
EndChar

StartChar: perthousand
Encoding: 8240 8240 221
Width: 1351
GlyphClass: 2
Flags: W
LayerCount: 2
Fore
SplineSet
214 316 m 128,-1,1
 136 316 136 316 87 369.5 c 128,-1,2
 38 423 38 423 38 514 c 128,-1,3
 38 605 38 605 87 660 c 128,-1,4
 136 715 136 715 214 715 c 128,-1,5
 292 715 292 715 342 660 c 128,-1,6
 392 605 392 605 392 514 c 128,-1,7
 392 423 392 423 342 369.5 c 128,-1,0
 292 316 292 316 214 316 c 128,-1,1
215 385 m 128,-1,9
 259 385 259 385 283.5 422.5 c 128,-1,10
 308 460 308 460 308 514.5 c 128,-1,11
 308 569 308 569 283.5 607 c 128,-1,12
 259 645 259 645 214 645 c 128,-1,13
 169 645 169 645 145 607 c 128,-1,14
 121 569 121 569 121 514.5 c 128,-1,15
 121 460 121 460 146 422.5 c 128,-1,8
 171 385 171 385 215 385 c 128,-1,9
325 -11 m 1,16,-1
 232 -11 l 1,17,-1
 609 715 l 1,18,-1
 702 715 l 1,19,-1
 325 -11 l 1,16,-1
718 -11 m 128,-1,21
 640 -11 640 -11 591 42.5 c 128,-1,22
 542 96 542 96 542 187 c 128,-1,23
 542 278 542 278 591 333 c 128,-1,24
 640 388 640 388 718 388 c 128,-1,25
 796 388 796 388 846 333 c 128,-1,26
 896 278 896 278 896 187 c 128,-1,27
 896 96 896 96 846 42.5 c 128,-1,20
 796 -11 796 -11 718 -11 c 128,-1,21
719 58 m 128,-1,29
 763 58 763 58 787.5 95.5 c 128,-1,30
 812 133 812 133 812 187.5 c 128,-1,31
 812 242 812 242 787.5 280 c 128,-1,32
 763 318 763 318 718 318 c 128,-1,33
 673 318 673 318 649 280 c 128,-1,34
 625 242 625 242 625 187.5 c 128,-1,35
 625 133 625 133 650 95.5 c 128,-1,28
 675 58 675 58 719 58 c 128,-1,29
1136 -11 m 128,-1,37
 1058 -11 1058 -11 1009 42.5 c 128,-1,38
 960 96 960 96 960 187 c 128,-1,39
 960 278 960 278 1009 333 c 128,-1,40
 1058 388 1058 388 1136 388 c 128,-1,41
 1214 388 1214 388 1264 333 c 128,-1,42
 1314 278 1314 278 1314 187 c 128,-1,43
 1314 96 1314 96 1264 42.5 c 128,-1,36
 1214 -11 1214 -11 1136 -11 c 128,-1,37
1137 58 m 128,-1,45
 1181 58 1181 58 1205.5 95.5 c 128,-1,46
 1230 133 1230 133 1230 187.5 c 128,-1,47
 1230 242 1230 242 1205.5 280 c 128,-1,48
 1181 318 1181 318 1136 318 c 128,-1,49
 1091 318 1091 318 1067 280 c 128,-1,50
 1043 242 1043 242 1043 187.5 c 128,-1,51
 1043 133 1043 133 1068 95.5 c 128,-1,44
 1093 58 1093 58 1137 58 c 128,-1,45
EndSplineSet
EndChar

StartChar: guilsinglleft
Encoding: 8249 8249 222
Width: 345
GlyphClass: 2
Flags: W
LayerCount: 2
Fore
SplineSet
282 -21 m 1,0,-1
 47 208 l 1,1,-1
 47 289 l 1,2,-1
 282 518 l 1,3,-1
 282 407 l 1,4,-1
 128 248 l 1,5,-1
 282 90 l 1,6,-1
 282 -21 l 1,0,-1
EndSplineSet
EndChar

StartChar: guilsinglright
Encoding: 8250 8250 223
Width: 345
GlyphClass: 2
Flags: W
LayerCount: 2
Fore
SplineSet
298 289 m 1,0,-1
 298 208 l 1,1,-1
 63 -21 l 1,2,-1
 63 90 l 1,3,-1
 217 248 l 1,4,-1
 63 407 l 1,5,-1
 63 518 l 1,6,-1
 298 289 l 1,0,-1
EndSplineSet
EndChar

StartChar: Euro
Encoding: 8364 8364 224
Width: 763
GlyphClass: 2
Flags: W
LayerCount: 2
Fore
SplineSet
723 68 m 1,0,1
 618 -11 618 -11 474 -11 c 0,2,3
 362 -11 362 -11 271 51.5 c 128,-1,4
 180 114 180 114 148 230 c 1,5,-1
 54 230 l 1,6,-1
 54 301 l 1,7,-1
 440 301 l 1,8,-1
 440 230 l 1,9,-1
 257 230 l 1,10,11
 285 155 285 155 346 112.5 c 128,-1,12
 407 70 407 70 488 70 c 0,13,14
 539 70 539 70 589 85 c 128,-1,15
 639 100 639 100 663 115 c 2,16,-1
 687 130 l 1,17,-1
 723 68 l 1,0,1
500 377 m 1,18,-1
 53 377 l 1,19,-1
 53 448 l 1,20,-1
 147 448 l 1,21,22
 179 575 179 575 276 645.5 c 128,-1,23
 373 716 373 716 492 716 c 0,24,25
 549 716 549 716 597 699 c 128,-1,26
 645 682 645 682 664 665 c 2,27,-1
 684 648 l 1,28,-1
 629 591 l 1,29,30
 610 610 610 610 571 625.5 c 128,-1,31
 532 641 532 641 494 641 c 0,32,33
 401 641 401 641 339 589 c 128,-1,34
 277 537 277 537 252 448 c 1,35,-1
 500 448 l 1,36,-1
 500 377 l 1,18,-1
EndSplineSet
EndChar

StartChar: trademark
Encoding: 8482 8482 225
Width: 1014
GlyphClass: 2
Flags: W
LayerCount: 2
Fore
SplineSet
950 418 m 1,0,-1
 788 418 l 1,1,-1
 788 455 l 1,2,-1
 833 474 l 1,3,-1
 813 691 l 1,4,-1
 737 418 l 1,5,-1
 655 418 l 1,6,-1
 579 691 l 1,7,-1
 559 474 l 1,8,-1
 620 455 l 1,9,-1
 620 418 l 1,10,-1
 443 418 l 1,11,-1
 443 457 l 1,12,-1
 496 476 l 1,13,-1
 526 714 l 1,14,-1
 473 733 l 1,15,-1
 473 771 l 1,16,-1
 621 771 l 1,17,-1
 693 498 l 1,18,-1
 696 490 l 1,19,-1
 700 498 l 1,20,-1
 772 771 l 1,21,-1
 918 771 l 1,22,-1
 918 733 l 1,23,-1
 866 714 l 1,24,-1
 897 476 l 1,25,-1
 950 457 l 1,26,-1
 950 418 l 1,0,-1
322 418 m 1,27,-1
 155 418 l 1,28,-1
 155 450 l 1,29,-1
 201 467 l 1,30,-1
 201 718 l 1,31,-1
 108 718 l 1,32,-1
 91 675 l 1,33,-1
 65 675 l 1,34,-1
 65 771 l 1,35,-1
 415 771 l 1,36,-1
 415 675 l 1,37,-1
 389 675 l 1,38,-1
 373 718 l 1,39,-1
 276 718 l 1,40,-1
 276 467 l 1,41,-1
 322 450 l 1,42,-1
 322 418 l 1,27,-1
EndSplineSet
EndChar

StartChar: notequal
Encoding: 8800 8800 226
Width: 529
GlyphClass: 2
Flags: W
LayerCount: 2
Fore
SplineSet
462 165 m 1,0,-1
 265 165 l 1,1,-1
 231 42 l 1,2,-1
 138 42 l 1,3,-1
 172 165 l 1,4,-1
 65 165 l 1,5,-1
 65 236 l 1,6,-1
 192 236 l 1,7,-1
 230 372 l 1,8,-1
 65 372 l 1,9,-1
 65 443 l 1,10,-1
 250 443 l 1,11,-1
 282 558 l 1,12,-1
 375 558 l 1,13,-1
 343 443 l 1,14,-1
 462 443 l 1,15,-1
 462 372 l 1,16,-1
 323 372 l 1,17,-1
 285 236 l 1,18,-1
 462 236 l 1,19,-1
 462 165 l 1,0,-1
EndSplineSet
EndChar

StartChar: fi
Encoding: 64257 64257 227
Width: 729
GlyphClass: 2
Flags: W
LayerCount: 2
Fore
SplineSet
703 0 m 1,0,-1
 440 0 l 1,1,-1
 440 43 l 1,2,-1
 524 76 l 1,3,-1
 524 419 l 1,4,-1
 220 419 l 1,5,-1
 220 76 l 1,6,-1
 305 43 l 1,7,-1
 305 0 l 1,8,-1
 40 0 l 1,9,-1
 40 43 l 1,10,-1
 124 76 l 1,11,-1
 124 419 l 1,12,-1
 46 419 l 1,13,-1
 46 479 l 1,14,-1
 124 511 l 1,15,-1
 124 571 l 2,16,17
 124 670 124 670 174.5 721.5 c 128,-1,18
 225 773 225 773 317 773 c 0,19,20
 353 773 353 773 383.5 762.5 c 128,-1,21
 414 752 414 752 426 741 c 2,22,-1
 439 730 l 1,23,-1
 412 678 l 1,24,25
 384 694 384 694 328.5 694 c 128,-1,26
 273 694 273 694 246.5 661.5 c 128,-1,27
 220 629 220 629 220 543 c 2,28,-1
 220 500 l 1,29,-1
 524 500 l 2,30,31
 582 500 582 500 600 475.5 c 128,-1,32
 618 451 618 451 618 401 c 2,33,-1
 618 76 l 1,34,-1
 703 43 l 1,35,-1
 703 0 l 1,0,-1
566 604 m 128,-1,37
 533 604 533 604 510 627 c 128,-1,38
 487 650 487 650 487 683 c 128,-1,39
 487 716 487 716 510 739 c 128,-1,40
 533 762 533 762 566 762 c 128,-1,41
 599 762 599 762 622 739 c 128,-1,42
 645 716 645 716 645 683 c 128,-1,43
 645 650 645 650 622 627 c 128,-1,36
 599 604 599 604 566 604 c 128,-1,37
EndSplineSet
EndChar

StartChar: fl
Encoding: 64258 64258 228
Width: 730
GlyphClass: 2
Flags: W
LayerCount: 2
Fore
SplineSet
305 0 m 1,0,-1
 40 0 l 1,1,-1
 40 43 l 1,2,-1
 124 76 l 1,3,-1
 124 419 l 1,4,-1
 46 419 l 1,5,-1
 46 479 l 1,6,-1
 124 511 l 1,7,-1
 124 571 l 2,8,9
 124 670 124 670 174.5 721.5 c 128,-1,10
 225 773 225 773 317 773 c 0,11,12
 353 773 353 773 383.5 762.5 c 128,-1,13
 414 752 414 752 426 741 c 2,14,-1
 439 730 l 1,15,-1
 412 678 l 1,16,17
 384 694 384 694 328.5 694 c 128,-1,18
 273 694 273 694 246.5 661.5 c 128,-1,19
 220 629 220 629 220 543 c 2,20,-1
 220 500 l 1,21,-1
 381 500 l 1,22,-1
 381 419 l 1,23,-1
 220 419 l 1,24,-1
 220 76 l 1,25,-1
 305 43 l 1,26,-1
 305 0 l 1,0,-1
702 0 m 1,27,-1
 439 0 l 1,28,-1
 439 43 l 1,29,-1
 523 76 l 1,30,-1
 523 693 l 1,31,-1
 474 693 l 1,32,-1
 474 763 l 1,33,34
 498 772 498 772 523 772 c 0,35,36
 581 772 581 772 599 747.5 c 128,-1,37
 617 723 617 723 617 673 c 2,38,-1
 617 76 l 1,39,-1
 702 43 l 1,40,-1
 702 0 l 1,27,-1
EndSplineSet
EndChar

StartChar: apple
Encoding: 65539 -1 229
Width: 1327
GlyphClass: 2
Flags: W
LayerCount: 2
Fore
SplineSet
879 358 m 1,0,-1
 884 264 l 1,1,-1
 771 264 l 1,2,3
 771 424 771 424 779 477 c 2,4,-1
 782 497 l 1,5,-1
 858 497 l 1,6,7
 864 455 864 455 864 423 c 1,8,-1
 866 433 l 1,9,10
 884 501 884 501 945 501 c 0,11,12
 985 501 985 501 1001.5 477.5 c 128,-1,13
 1018 454 1018 454 1019 400 c 2,14,-1
 1021 264 l 1,15,-1
 909 264 l 1,16,-1
 911 358 l 2,17,18
 911 383 911 383 896 383 c 0,19,20
 879 383 879 383 879 358 c 1,0,-1
168 264 m 1,21,-1
 52 264 l 1,22,23
 52 402 52 402 60 532 c 1,24,-1
 63 571 l 1,25,-1
 158 571 l 1,26,27
 168 434 168 434 168 264 c 1,21,-1
1251 468 m 128,-1,29
 1277 435 1277 435 1277 378.5 c 128,-1,30
 1277 322 1277 322 1246.5 290 c 128,-1,31
 1216 258 1216 258 1156.5 258 c 128,-1,32
 1097 258 1097 258 1066.5 290 c 128,-1,33
 1036 322 1036 322 1036 377 c 0,34,35
 1036 501 1036 501 1156 501 c 0,36,28
 1225 501 1225 501 1251 468 c 128,-1,29
1156.5 336 m 128,-1,38
 1180 336 1180 336 1180 364.5 c 128,-1,39
 1180 393 1180 393 1156.5 393 c 128,-1,40
 1133 393 1133 393 1133 364.5 c 128,-1,37
 1133 336 1133 336 1156.5 336 c 128,-1,38
435 264 m 1,41,-1
 359 264 l 1,42,-1
 350 322 l 1,43,44
 338 258 338 258 276 258 c 0,45,46
 187 258 187 258 187 370 c 0,47,48
 187 435 187 435 218 468 c 128,-1,49
 249 501 249 501 319 501 c 0,50,51
 435 501 435 501 435 389 c 2,52,-1
 435 264 l 1,41,-1
314 336 m 0,53,54
 338 336 338 336 338 364.5 c 128,-1,55
 338 393 338 393 314 393 c 0,56,57
 293 393 293 393 293 364.5 c 128,-1,58
 293 336 293 336 314 336 c 0,53,54
625 -57 m 1,59,-1
 498 -57 l 1,60,61
 498 82 498 82 506 192 c 1,62,-1
 509 225 l 1,63,-1
 587 225 l 1,64,65
 594 174 594 174 594 150 c 1,66,67
 608 233 608 233 672 233 c 0,68,69
 707 233 707 233 728.5 203.5 c 128,-1,70
 750 174 750 174 750 114.5 c 128,-1,71
 750 55 750 55 717 20 c 128,-1,72
 684 -15 684 -15 623 -15 c 1,73,74
 625 -30 625 -30 625 -57 c 1,59,-1
646 102 m 0,75,76
 646 123 646 123 627 123 c 0,77,78
 604 123 604 123 604 93 c 1,79,-1
 608 66 l 1,80,81
 622 66 622 66 634 76.5 c 128,-1,82
 646 87 646 87 646 102 c 0,75,76
931 59 m 0,83,84
 953 59 953 59 972 74 c 1,85,-1
 972 1 l 1,86,87
 951 -15 951 -15 892 -15 c 128,-1,88
 833 -15 833 -15 800 17.5 c 128,-1,89
 767 50 767 50 767 106 c 0,90,91
 767 233 767 233 890 233 c 0,92,93
 942 233 942 233 972 202.5 c 128,-1,94
 1002 172 1002 172 1002 119 c 1,95,-1
 997 83 l 1,96,-1
 877 83 l 1,97,98
 877 59 877 59 931 59 c 0,83,84
871 108 m 1,99,-1
 910 108 l 1,100,101
 911 111 911 111 911 116 c 0,102,103
 911 135 911 135 893 135 c 0,104,105
 871 135 871 135 871 108 c 1,99,-1
469 322 m 1,106,-1
 471 408 l 1,107,-1
 448 408 l 1,108,-1
 448 491 l 1,109,-1
 564 527 l 1,110,-1
 568 497 l 1,111,-1
 740 497 l 1,112,113
 748 434 748 434 748 264 c 1,114,-1
 634 264 l 1,115,116
 634 374 634 374 636 408 c 1,117,-1
 579 408 l 1,118,-1
 581 345 l 1,119,120
 583 343 583 343 592 343 c 1,121,-1
 609 347 l 1,122,-1
 609 275 l 1,123,124
 602 258 602 258 547 258 c 0,125,126
 469 258 469 258 469 322 c 1,106,-1
691 510 m 128,-1,128
 666 510 666 510 649 527.5 c 128,-1,129
 632 545 632 545 632 570 c 128,-1,130
 632 595 632 595 649 612.5 c 128,-1,131
 666 630 666 630 691 630 c 128,-1,132
 716 630 716 630 733 612.5 c 128,-1,133
 750 595 750 595 750 570 c 128,-1,134
 750 545 750 545 733 527.5 c 128,-1,127
 716 510 716 510 691 510 c 128,-1,128
443 -24 m 128,-1,136
 407 -57 407 -57 337.5 -57 c 128,-1,137
 268 -57 268 -57 236 -36 c 1,138,-1
 236 47 l 1,139,140
 261 28 261 28 299 28 c 128,-1,141
 337 28 337 28 355 37 c 128,-1,142
 373 46 373 46 376 55 c 2,143,-1
 380 64 l 1,144,145
 369 49 369 49 323 49 c 0,146,147
 230 49 230 49 230 123 c 2,148,-1
 230 131 l 1,149,-1
 185 131 l 1,150,-1
 187 70 l 1,151,152
 203 70 203 70 215 76 c 1,153,-1
 215 2 l 1,154,155
 197 -15 197 -15 148 -15 c 0,156,157
 75 -15 75 -15 75 49 c 1,158,-1
 77 131 l 1,159,-1
 50 131 l 1,160,-1
 50 214 l 1,161,-1
 171 254 l 1,162,-1
 175 225 l 1,163,-1
 340 225 l 1,164,165
 338 123 338 123 338 119 c 0,166,167
 338 93 338 93 353.5 93 c 128,-1,168
 369 93 369 93 369 119 c 2,169,-1
 367 225 l 1,170,-1
 473 225 l 1,171,172
 479 167 479 167 479 88 c 128,-1,135
 479 9 479 9 443 -24 c 128,-1,136
1056 183 m 1,173,-1
 1056 172 l 1,174,-1
 1048 172 l 1,175,-1
 1048 209 l 1,176,-1
 1064 209 l 2,177,178
 1079 209 1079 209 1079 197 c 0,179,180
 1079 188 1079 188 1071 185 c 1,181,-1
 1079 172 l 1,182,-1
 1070 172 l 1,183,-1
 1063 183 l 1,184,-1
 1056 183 l 1,173,-1
1056 190 m 1,185,-1
 1064 190 l 2,186,187
 1071 190 1071 190 1071 196 c 128,-1,188
 1071 202 1071 202 1064 202 c 2,189,-1
 1056 202 l 1,190,-1
 1056 190 l 1,185,-1
1062 153 m 128,-1,192
 1047 153 1047 153 1036 164 c 128,-1,193
 1025 175 1025 175 1025 190 c 128,-1,194
 1025 205 1025 205 1036 216 c 128,-1,195
 1047 227 1047 227 1062 227 c 128,-1,196
 1077 227 1077 227 1088 216 c 128,-1,197
 1099 205 1099 205 1099 190 c 128,-1,198
 1099 175 1099 175 1088 164 c 128,-1,191
 1077 153 1077 153 1062 153 c 128,-1,192
1092 190 m 128,-1,200
 1092 202 1092 202 1083 211 c 128,-1,201
 1074 220 1074 220 1062 220 c 128,-1,202
 1050 220 1050 220 1041 211 c 128,-1,203
 1032 202 1032 202 1032 190 c 128,-1,204
 1032 178 1032 178 1041 169 c 128,-1,205
 1050 160 1050 160 1062 160 c 128,-1,206
 1074 160 1074 160 1083 169 c 128,-1,199
 1092 178 1092 178 1092 190 c 128,-1,200
EndSplineSet
EndChar
